<?xml version="1.0" standalone="no"?> <!DOCTYPE svg PUBLIC "-//W3C//DTD SVG 1.0//EN" "http://www.w3.org/TR/2001/REC-SVG-20010904/DTD/svg10.dtd" > <svg xmlns="http://www.w3.org/2000/svg" width="100%" height="100%">
<defs >
<font horiz-adv-x="1215" ><font-face
    font-family="Asenine Wide"
    units-per-em="2455"
    panose-1="2 0 4 0 0 0 0 0 0 0"
    ascent="1972"
    descent="-483"
    alphabetic="0" />
<missing-glyph horiz-adv-x="1227" />
<glyph unicode=" " glyph-name="space" horiz-adv-x="1092" />
<glyph unicode="!" glyph-name="exclam" horiz-adv-x="369" d="M247 287H122V1456H247V287ZM300 68Q300 -10 186 -10Q71 -10 71 68Q71 143 186 143Q300 143 300 68Z" />
<glyph unicode="&quot;" glyph-name="quotedbl" horiz-adv-x="696" d="M627 1434L612 1101H483L468 1434H627ZM229 1434L214 1101H85L71 1434H229Z" />
<glyph unicode="#" glyph-name="numbersign" horiz-adv-x="1753" d="M1059 469L1115 752H690L634 469H1059ZM1308 1118L1252 831H1683L1668 752H1237L1182 469H1612L1598 387H1167L1112 100H988L1044 387H620L564 100H445L501 387H71L85 469H516L571 752H141L156
831H587L642 1118H761L705 831H1129L1185 1118H1308Z" />
<glyph unicode="$" glyph-name="dollar" horiz-adv-x="1488" d="M1419 369Q1419 76 964 14V-159H830V2Q783 0 733 0H620V-159H484V0Q243 3 71 60V146Q322 84 484 86V762Q313 814 238 855Q71 948 71 1110Q71 1361 484 1416V1579H620V1429Q681 1432 750 1432H830V1579H964V1432Q1073
1422 1091 1419Q1198 1404 1290 1372V1294Q1131 1346 964 1354V733Q1155 679 1223 641Q1419 530 1419 369ZM830 770V1354H712Q663 1354 620 1352V825L642 819L830 770ZM484 864V1338Q205 1292 205 1116Q205 993 339 921Q387 895 484 864ZM1272 362Q1272 492 1108
573Q1062 596 964 627V111Q1272 165 1272 362ZM830 95V667Q817 671 768 684L620 724V86Q737 87 830 95Z" />
<glyph unicode="%" glyph-name="percent" horiz-adv-x="1881" d="M996 1166Q996 1007 837 924Q711 859 535 859Q360 859 232 924Q71 1007 71 1166Q71 1326 232 1409Q359 1475 535 1475Q711 1475 837 1409Q996 1326 996 1166ZM1683 1442L267 -25H133L1557 1442H1683ZM1812
303Q1812 144 1651 61Q1524 -4 1348 -4Q1171 -4 1046 60Q886 142 886 303Q886 464 1046 547Q1171 612 1348 612Q1524 612 1651 546Q1812 463 1812 303ZM870 1166Q870 1283 755 1344Q663 1393 535 1393Q407 1393 314 1344Q196 1283 196 1166Q196 1049 314 988Q407
939 535 939Q662 939 755 989Q870 1050 870 1166ZM1686 303Q1686 420 1569 481Q1476 531 1348 531Q1220 531 1127 482Q1009 420 1009 303Q1009 186 1127 125Q1220 76 1348 76Q1477 76 1569 125Q1686 186 1686 303Z" />
<glyph unicode="&amp;" glyph-name="ampersand" horiz-adv-x="1578" d="M1509 400Q1509 231 1303 113L1305 112L566 -245Q703 -316 841 -316Q937 -316 1174 -240Q1359 -181 1470 -181L1468 -257Q1387 -257 1191 -315L1164 -323L1152 -327Q951 -394 841 -394Q640
-394 381 -233L469 -189L855 -2Q824 -4 792 -4Q507 -4 300 101Q71 217 71 400Q71 568 278 686Q376 742 498 772Q412 798 345 838Q168 943 168 1095Q168 1261 357 1363Q533 1458 787 1458Q1048 1458 1219 1365Q1405 1264 1405 1095Q1405 943 1228 838Q1161 798 1082
773Q990 733 792 733Q584 733 428 668Q216 580 216 401Q216 222 428 134Q584 69 792 69Q974 69 1110 122L1206 168Q1363 263 1363 401L1509 400ZM1270 1096Q1270 1253 1097 1331Q966 1390 787 1390Q612 1390 478 1330Q302 1251 302 1096Q302 939 477 861Q608 803
787 803Q957 803 1094 866Q1270 946 1270 1096Z" />
<glyph unicode="&apos;" glyph-name="quotesingle" horiz-adv-x="299" d="M229 1434L214 1101H85L71 1434H229Z" />
<glyph unicode="(" glyph-name="parenleft" horiz-adv-x="595" d="M526 1599Q171 1188 171 739Q171 252 526 -103L478 -175Q71 209 71 737Q71 1229 471 1664L526 1599Z" />
<glyph unicode=")" glyph-name="parenright" horiz-adv-x="595" d="M526 737Q526 209 118 -175L71 -103Q426 252 426 739Q426 1188 71 1599L126 1664Q526 1229 526 737Z" />
<glyph unicode="*" glyph-name="asterisk" horiz-adv-x="1218" d="M1149 1067H650L657 1072V1070Q698 879 1028 879L1018 815Q808 815 675 899Q629 928 601 959Q575 929 528 899Q395 815 186 815L175 879Q300 879 396 917Q522 966 546 1067H71V1132H546V1135Q532
1208 453 1261Q348 1331 181 1331L184 1389Q465 1389 601 1246Q631 1278 674 1305Q805 1389 1018 1389L1021 1331Q855 1331 750 1261Q670 1208 657 1135V1132H1149V1067Z" />
<glyph unicode="+" glyph-name="plus" horiz-adv-x="1487" d="M1417 569H804V150H684V569H71V651H684V1071H804V651H1417V569Z" />
<glyph unicode="," glyph-name="comma" horiz-adv-x="389" d="M320 80Q320 66 316 54L318 53L208 -168H71L146 9Q80 26 80 80Q80 155 205 155H208V156V155Q320 154 320 80Z" />
<glyph unicode="-" glyph-name="hyphen" horiz-adv-x="1120" d="M1051 455H71V537H1051V455Z" />
<glyph unicode="." glyph-name="period" horiz-adv-x="369" d="M300 68Q300 -10 186 -10Q71 -10 71 68Q71 143 186 143Q300 143 300 68Z" />
<glyph unicode="/" glyph-name="slash" horiz-adv-x="1087" d="M1018 1456L207 2H71L884 1456H1018Z" />
<glyph unicode="0" glyph-name="zero" horiz-adv-x="1623" d="M1554 717Q1554 370 1417 196Q1244 -25 822 -25Q386 -25 210 191Q71 362 71 717Q71 1071 210 1242Q384 1456 822 1456Q1255 1456 1423 1241Q1554 1074 1554 717ZM1413 719Q1413 1051 1326 1182Q1198
1374 822 1374Q438 1374 306 1183Q212 1047 212 719Q212 392 307 254Q441 61 822 61Q1199 61 1326 255Q1413 388 1413 719Z" />
<glyph unicode="1" glyph-name="one" horiz-adv-x="594" d="M525 0H402V1290L71 1172V1262L525 1432V0Z" />
<glyph unicode="2" glyph-name="two" horiz-adv-x="1383" d="M1314 1042Q1314 844 1119 729Q955 634 742 634H733Q562 634 435 577Q275 504 243 358V169Q243 94 365 82H1252V0H379Q279 0 206 34Q111 79 111 168V302Q111 487 282 602Q411 689 600 710L609 711H615Q891
729 1012 795Q1179 886 1179 1044Q1179 1219 1014 1306Q884 1374 691 1374Q252 1374 196 1057H71Q100 1267 299 1371Q461 1456 695 1456Q937 1456 1103 1371Q1314 1262 1314 1042Z" />
<glyph unicode="3" glyph-name="three" horiz-adv-x="1380" d="M1080 1128Q1080 1255 919 1323Q783 1381 584 1381Q375 1381 225 1302L129 1354Q323 1453 584 1453Q831 1453 1012 1370Q1214 1278 1214 1127Q1214 931 896 842Q1066 795 1176 702Q1311 587 1311
431Q1311 198 1048 75Q845 -20 582 -20Q287 -20 71 115L163 168Q336 56 582 56Q802 56 964 134Q1173 235 1173 433Q1173 606 1005 708Q872 789 679 806Q672 805 394 805V878L676 877Q1080 912 1080 1128Z" />
<glyph unicode="4" glyph-name="four" horiz-adv-x="1631" d="M1561 406H1254V0H1119V406H273Q71 406 71 489Q71 535 123 582L1101 1456H1254V481H1561V406ZM1119 481V1335L240 545Q222 529 222 508Q222 481 310 481H1119Z" />
<glyph unicode="5" glyph-name="five" horiz-adv-x="1421" d="M1351 422Q1351 194 1109 83Q926 0 667 0H564Q257 0 71 103L162 164Q297 80 543 80H645Q1210 80 1210 420Q1210 603 1027 691Q888 758 682 758H126V1432H1204V1356H261V836H660Q927 836 1105 759Q1351
654 1351 422Z" />
<glyph unicode="6" glyph-name="six" horiz-adv-x="1603" d="M1534 503Q1534 248 1282 111Q1079 1 801 1Q524 1 321 112Q71 249 71 503Q71 593 109 672L105 673L579 1453H712L391 923Q567 1004 801 1004Q1078 1004 1282 894Q1534 757 1534 503ZM1402 501Q1402
717 1200 832Q1034 925 801 925Q569 925 404 831Q203 716 203 501Q203 285 403 170Q568 77 801 77Q1034 77 1200 170Q1402 285 1402 501Z" />
<glyph unicode="7" glyph-name="seven" horiz-adv-x="1621" d="M1553 1337Q1553 1308 1521 1260L688 0H547L1398 1282Q1413 1305 1413 1329Q1413 1356 1342 1356H71V1432H1351Q1553 1432 1553 1337Z" />
<glyph unicode="8" glyph-name="eight" horiz-adv-x="1578" d="M1509 400Q1509 216 1282 101Q1076 -4 792 -4Q507 -4 300 101Q71 217 71 400Q71 568 278 686Q376 742 498 772Q412 798 345 838Q168 943 168 1095Q168 1261 357 1363Q533 1458 787 1458Q1048 1458
1219 1365Q1405 1264 1405 1095Q1405 943 1228 838Q1161 798 1082 773Q1205 743 1306 685Q1509 569 1509 400ZM1270 1096Q1270 1253 1097 1331Q966 1390 787 1390Q612 1390 478 1330Q302 1251 302 1096Q302 939 477 861Q608 803 787 803Q957 803 1094 866Q1270
946 1270 1096ZM818 798V803Q780 804 761 803V798H818ZM820 733V738H759V733Q772 732 787 732Q804 732 820 733ZM1363 401Q1363 557 1191 649Q1033 733 792 733Q584 733 428 668Q216 580 216 401Q216 222 428 134Q584 69 792 69Q1033 69 1191 153Q1363 245 1363
401Z" />
<glyph unicode="9" glyph-name="nine" horiz-adv-x="1603" d="M1534 951Q1534 861 1495 783L1500 782L1026 1H893L1214 531Q1038 450 804 450Q529 450 324 561Q71 698 71 951Q71 1204 324 1342Q529 1453 804 1453Q1082 1453 1284 1343Q1534 1206 1534 951ZM1402
953Q1402 1169 1202 1284Q1037 1377 804 1377Q569 1377 405 1284Q203 1170 203 953Q203 736 405 622Q569 529 804 529Q1034 529 1200 624Q1402 739 1402 953Z" />
<glyph unicode=":" glyph-name="colon" horiz-adv-x="370" d="M302 713Q302 637 188 637Q71 637 71 713Q71 791 188 791Q302 791 302 713ZM302 68Q302 -10 188 -10Q71 -10 71 68Q71 143 188 143Q302 143 302 68Z" />
<glyph unicode=";" glyph-name="semicolon" horiz-adv-x="389" d="M310 713Q310 637 196 637Q80 637 80 713Q80 791 196 791Q310 791 310 713ZM320 80Q320 66 316 54L318 53L208 -168H71L146 9Q80 26 80 80Q80 155 205 155H208V156V155Q320 154 320 80Z" />
<glyph unicode="&lt;" glyph-name="less" horiz-adv-x="1397" d="M1327 98L71 580V641L1327 1124V1024L270 610L1327 196V98Z" />
<glyph unicode="=" glyph-name="equal" horiz-adv-x="1666" d="M1598 752H71V831H1598V752ZM1598 387H71V469H1598V387Z" />
<glyph unicode="&gt;" glyph-name="greater" horiz-adv-x="1397" d="M1327 580L71 98V196L1128 610L71 1024V1124L1327 641V580Z" />
<glyph unicode="?" glyph-name="question" horiz-adv-x="1338" d="M1269 1042Q1269 677 655 627V268H526V711H570Q777 711 929 776Q1134 864 1134 1044Q1134 1219 969 1306Q839 1374 646 1374Q431 1374 300 1286Q246 1250 224 1187Q214 1162 196 1057H71Q100 1270
213 1345Q379 1456 650 1456Q892 1456 1058 1371Q1269 1262 1269 1042ZM705 68Q705 -10 591 -10Q474 -10 474 68Q474 143 591 143Q705 143 705 68Z" />
<glyph unicode="@" glyph-name="at" horiz-adv-x="2857" d="M2788 174Q2556 -46 2127 -173Q1769 -279 1452 -279Q888 -279 522 -94Q71 134 71 522Q71 852 368 1094Q804 1450 1560 1450Q2060 1450 2390 1282Q2779 1083 2779 778Q2779 432 2413 238Q2204 127 2001
127Q1895 127 1848 148Q1775 179 1775 270L1800 274L1789 289Q1624 182 1390 131Q1252 101 1108 104Q788 111 640 259Q550 351 550 470Q551 542 585 621Q692 871 976 1001Q1222 1113 1522 1107Q1908 1099 2037 880L2119 1077L2245 1074L1920 294L1923 295Q1923
241 1936 226Q1957 203 2039 203Q2172 203 2331 296Q2632 472 2632 768Q2632 1061 2300 1226Q2001 1374 1545 1374Q1039 1374 691 1182Q226 925 226 510Q226 108 664 -76Q978 -207 1446 -207Q1735 -207 2102 -98Q2518 26 2712 213L2788 174ZM1936 722Q1936 809
1890 877Q1789 1025 1495 1031Q1217 1037 1001 917Q793 802 717 620Q687 548 687 482Q687 387 753 315Q869 189 1141 183Q1286 180 1428 218Q1670 283 1842 412L1896 543Q1936 641 1936 722Z" />
<glyph unicode="A" glyph-name="A" horiz-adv-x="1561" d="M1492 0H1357V711H205V0H71V926Q71 1200 300 1340Q490 1456 783 1456Q1122 1456 1314 1301Q1492 1157 1492 926V0ZM1357 791V895Q1357 1374 783 1374Q205 1374 205 895V791H1357Z" />
<glyph unicode="B" glyph-name="B" horiz-adv-x="1515" d="M1446 394Q1446 179 1201 77Q1022 3 772 3H342Q250 3 171 42Q74 90 73 173L71 1298H72Q72 1388 166 1433Q239 1468 339 1468L705 1469Q930 1469 1105 1390Q1335 1287 1335 1090Q1335 856 963 771Q1446
693 1446 394ZM1194 1082Q1194 1218 1056 1302Q961 1360 880 1376Q831 1386 702 1386H327Q205 1374 205 1299V793H594V794H663Q849 794 994 849Q1194 926 1194 1082ZM1305 394Q1305 714 700 714H571V713H205L208 172Q209 97 330 85H748Q1305 85 1305 394Z" />
<glyph unicode="C" glyph-name="C" horiz-adv-x="1983" d="M1914 1239L1812 1186Q1544 1374 1152 1374Q794 1374 532 1228Q212 1050 212 719Q212 386 531 207Q792 61 1152 61Q1535 61 1812 256L1884 174Q1573 -25 1152 -25Q741 -25 441 138Q71 339 71 717Q71 1091
443 1293Q745 1456 1152 1456Q1598 1456 1914 1239Z" />
<glyph unicode="D" glyph-name="D" horiz-adv-x="1735" d="M1666 728Q1666 413 1453 220Q1214 3 756 3H342Q250 3 171 42Q74 90 73 173L71 1298H72Q72 1388 166 1433Q239 1468 339 1468L705 1469Q1158 1469 1423 1245Q1666 1040 1666 728ZM1525 730Q1525 1007
1324 1186Q1100 1386 699 1386H327Q205 1374 205 1299L208 172Q208 97 330 85L748 84Q1150 84 1351 281Q1525 451 1525 730Z" />
<glyph unicode="E" glyph-name="E" horiz-adv-x="1206" d="M1137 0H339Q244 0 167 37Q71 85 71 170V1262H72Q72 1352 166 1397Q239 1432 339 1432H1137V1350H327Q205 1338 205 1263V757H1006V677H205V169Q205 94 327 82H1137V0Z" />
<glyph unicode="F" glyph-name="F" horiz-adv-x="1206" d="M1137 1350H327Q205 1338 205 1263V757H988V677H205V0H71V1262H72Q72 1352 166 1397Q239 1432 339 1432H1137V1350Z" />
<glyph unicode="G" glyph-name="G" horiz-adv-x="1983" d="M1914 1239L1812 1186Q1544 1374 1152 1374Q794 1374 532 1228Q212 1050 212 719Q212 386 531 207Q792 61 1152 61Q1509 61 1775 231V563Q1775 638 1653 650H843V732H1641Q1737 732 1812 697Q1909 651
1909 562V-20H1775V112Q1501 -25 1152 -25Q741 -25 441 138Q71 339 71 717Q71 1091 443 1293Q745 1456 1152 1456Q1598 1456 1914 1239Z" />
<glyph unicode="H" glyph-name="H" horiz-adv-x="1563" d="M1494 0H1357V711H205V0H71V1432H205V791H1357V1432H1494V0Z" />
<glyph unicode="I" glyph-name="I" horiz-adv-x="274" d="M205 0H71V1432H205V0Z" />
<glyph unicode="J" glyph-name="J" horiz-adv-x="1157" d="M1087 455Q1087 259 980 136Q847 -15 571 -15Q490 -15 393 0L71 50L109 136L439 82Q501 72 556 72Q759 72 865 191Q952 289 952 434V1432H1087V455Z" />
<glyph unicode="K" glyph-name="K" horiz-adv-x="1567" d="M1499 1H1327L444 773L205 621V2H71V1434H205V746L1269 1429H1468L543 836L1499 1Z" />
<glyph unicode="L" glyph-name="L" horiz-adv-x="1206" d="M1137 0H339Q242 0 168 35Q71 81 71 170V1432H205V169Q205 94 327 82H1137V0Z" />
<glyph unicode="M" glyph-name="M" horiz-adv-x="1984" d="M1915 1H1780L1779 1336Q1779 1368 1746 1368Q1721 1368 1706 1333L1168 127Q1111 -2 993 -2Q875 -2 818 127L280 1333Q265 1368 240 1368Q207 1368 207 1336V-4H72L71 1331Q71 1444 237 1444Q367 1444
410 1348L955 121Q970 88 993 88Q1015 88 1029 120L1577 1348Q1619 1444 1752 1444Q1914 1444 1914 1332L1915 1Z" />
<glyph unicode="N" glyph-name="N" horiz-adv-x="1599" d="M1530 124Q1530 -5 1357 -5Q1240 -5 1170 94L286 1341Q272 1362 246 1362Q205 1362 205 1325V0H71V1315Q71 1444 243 1444Q361 1444 431 1346L1315 100Q1330 79 1355 79Q1395 79 1395 114V1432H1530V124Z" />
<glyph unicode="O" glyph-name="O" horiz-adv-x="2178" d="M2109 717Q2109 357 1824 174Q1514 -25 1092 -25Q624 -25 315 191Q71 362 71 717Q71 1071 318 1243Q624 1456 1092 1456Q1556 1456 1864 1240Q2109 1069 2109 717ZM1968 719Q1968 1038 1768 1182Q1502
1374 1092 1374Q678 1374 412 1183Q212 1039 212 719Q212 399 412 254Q680 61 1092 61Q1502 61 1768 255Q1968 400 1968 719Z" />
<glyph unicode="P" glyph-name="P" horiz-adv-x="1461" d="M1392 1018Q1392 823 1173 692Q986 580 639 580H205V0H71V1282Q71 1371 168 1417Q243 1452 339 1452L741 1451Q989 1451 1167 1359Q1392 1244 1392 1018ZM1251 1016Q1251 1202 1080 1296Q944 1370 741
1370H327Q205 1358 205 1283V662H686Q902 662 1052 732Q1251 824 1251 1016Z" />
<glyph unicode="Q" glyph-name="Q" horiz-adv-x="2178" d="M2109 717Q2109 359 1829 177Q1695 90 1539 40Q1411 -137 1149 -205Q1161 -208 1193 -217Q1451 -295 1557 -295Q1751 -295 2022 -137V-229Q1770 -376 1557 -376Q1447 -376 1216 -307Q1214 -306 1203 -303L1174
-294Q1020 -245 897 -236H880V-235H869Q676 -235 403 -394V-303Q651 -156 869 -156Q882 -156 897 -157Q1177 -150 1346 -5Q1224 -25 1092 -25Q624 -25 315 191Q71 362 71 717Q71 1071 318 1243Q624 1456 1092 1456Q1556 1456 1864 1240Q2109 1069 2109 717ZM1968
719Q1968 1038 1768 1182Q1502 1374 1092 1374Q678 1374 412 1183Q212 1039 212 719Q212 399 412 254Q680 61 1092 61Q1278 61 1437 103Q1479 178 1479 267Q1479 480 1276 599Q1107 697 877 697L880 767Q1157 767 1360 656Q1611 519 1611 265Q1611 210 1596 159Q1688
201 1765 257Q1968 403 1968 719Z" />
<glyph unicode="R" glyph-name="R" horiz-adv-x="1461" d="M1392 1018Q1392 822 1173 692Q1116 658 1038 632L1390 1H1255L918 603Q795 580 639 580H205V0H71V1282Q71 1371 168 1417Q243 1452 339 1452L741 1451Q989 1451 1167 1359Q1392 1244 1392 1018ZM1251
1016Q1251 1201 1079 1295Q942 1370 741 1370H327Q205 1358 205 1283V662H686Q902 662 1052 732Q1251 824 1251 1016Z" />
<glyph unicode="S" glyph-name="S" horiz-adv-x="1488" d="M1419 369Q1419 154 1166 61Q990 -3 733 0L646 1V0H609Q101 0 101 373V430H217V373Q217 86 620 86H667Q883 86 1036 127Q1272 190 1272 362Q1272 492 1108 573Q1022 616 768 684L630 721Q340 799 238
855Q71 948 71 1110Q71 1432 750 1432H904Q1412 1432 1412 1063V1006H1294V1063Q1294 1354 891 1354H712Q205 1354 205 1116Q205 993 339 921Q420 877 642 819L855 763Q1138 689 1223 641Q1419 530 1419 369Z" />
<glyph unicode="T" glyph-name="T" horiz-adv-x="1488" d="M1419 1350H810V0H675V1350H71V1432H1419V1350Z" />
<glyph unicode="U" glyph-name="U" horiz-adv-x="1561" d="M1492 506Q1492 234 1264 93Q1073 -25 783 -25Q488 -25 299 91Q71 230 71 506V1432H205V541Q205 61 783 61Q1357 61 1357 541V1432H1492V506Z" />
<glyph unicode="V" glyph-name="V" horiz-adv-x="1777" d="M1709 1432L1078 109Q1016 -23 888 -23Q763 -23 700 109L71 1432H205L835 103Q853 66 888 66Q923 66 940 102L1574 1432H1709Z" />
<glyph unicode="W" glyph-name="W" horiz-adv-x="2647" d="M2578 1432L1949 109Q1886 -23 1758 -23Q1633 -23 1570 109L1324 627L1078 109Q1016 -23 888 -23Q763 -23 700 109L71 1432H205L835 103Q853 66 888 66Q924 66 940 102L1255 772L940 1432H1075L1706 103Q1723
66 1758 66Q1793 66 1810 102L2443 1432H2578Z" />
<glyph unicode="X" glyph-name="X" horiz-adv-x="1611" d="M1542 1H1405L807 643L207 1H71L738 716L71 1432H205L807 788L1407 1432H1542L874 716L1542 1Z" />
<glyph unicode="Y" glyph-name="Y" horiz-adv-x="1611" d="M1542 1432L870 711V0H744V709L71 1432H205L807 788L1407 1432H1542Z" />
<glyph unicode="Z" glyph-name="Z" horiz-adv-x="1503" d="M1434 0H285Q71 0 71 102Q71 152 141 219L1266 1288Q1284 1305 1284 1321Q1284 1352 1207 1352H88V1432H1214Q1416 1432 1416 1327Q1416 1278 1366 1231L234 156Q208 132 208 115Q208 82 288 82H1434V0Z" />
<glyph unicode="[" glyph-name="bracketleft" horiz-adv-x="561" d="M492 -179H339Q243 -179 168 -144Q71 -99 71 -9V1463Q71 1552 168 1598Q242 1633 339 1633H492V1561H312Q191 1549 191 1474V-20Q191 -95 312 -107H492V-179Z" />
<glyph unicode="\" glyph-name="backslash" horiz-adv-x="988" d="M919 -3H785L71 1456H207L919 -3Z" />
<glyph unicode="]" glyph-name="bracketright" horiz-adv-x="561" d="M492 -9Q492 -99 394 -144Q318 -179 224 -179H71V-107H250Q372 -94 372 -20V1474Q372 1548 250 1561H71V1633H224Q320 1633 394 1598Q492 1552 492 1463V-9Z" />
<glyph unicode="^" glyph-name="asciicircum" horiz-adv-x="959" d="M889 1121H741L481 1358L222 1121H71L382 1432H580L889 1121Z" />
<glyph unicode="_" glyph-name="underscore" horiz-adv-x="1676" d="M1606 -483H71V-403H1606V-483Z" />
<glyph unicode="`" glyph-name="grave" horiz-adv-x="646" d="M71 1432L397 1081H577L255 1432H71Z" />
<glyph unicode="a" glyph-name="a" horiz-adv-x="1598" d="M1529 0H1402V180Q1284 70 1072 15Q945 -18 804 -18Q524 -18 322 91Q71 226 71 483Q71 744 316 878Q513 985 798 985Q1183 985 1402 771V968H1529V0ZM1402 303V434Q1402 636 1258 765Q1097 909 804 909Q568
909 404 817Q203 703 203 485Q203 264 403 151Q564 61 804 61Q948 61 1072 102Q1289 173 1402 303Z" />
<glyph unicode="b" glyph-name="b" horiz-adv-x="1599" d="M1530 483Q1530 225 1279 90Q1078 -18 797 -18Q656 -18 528 15Q315 70 198 180V0L71 1V1428H196V771Q417 985 803 985Q1087 985 1284 878Q1530 744 1530 483ZM1398 485Q1398 703 1196 817Q1032 909 797
909Q500 909 340 766Q198 638 198 434V303Q312 173 528 102Q653 61 797 61Q1034 61 1197 153Q1398 266 1398 485Z" />
<glyph unicode="c" glyph-name="c" horiz-adv-x="1389" d="M1320 840L1228 787Q1054 909 804 909Q569 909 405 816Q203 702 203 485Q203 268 405 154Q569 61 804 61Q1055 61 1228 185L1317 129Q1102 -18 804 -18Q529 -18 324 93Q71 230 71 483Q71 736 324 874Q529
985 804 985Q1107 985 1320 840Z" />
<glyph unicode="d" glyph-name="d" horiz-adv-x="1599" d="M1530 1428L1529 0H1402V180Q1286 70 1072 15Q945 -18 804 -18Q524 -18 322 91Q71 226 71 483Q71 744 316 878Q513 985 798 985Q1184 985 1404 771V1428H1530ZM1402 303V434Q1402 636 1258 765Q1097 909
804 909Q568 909 404 817Q203 703 203 485Q203 264 403 151Q564 61 804 61Q948 61 1072 102Q1289 173 1402 303Z" />
<glyph unicode="e" glyph-name="e" horiz-adv-x="1600" d="M1532 499Q1532 473 1524 455H204Q221 250 427 145Q591 61 819 61Q957 61 1102 92Q1265 127 1348 185L1442 126Q1231 -18 819 -18Q537 -18 330 90Q71 226 71 483Q71 736 324 874Q529 985 804 985Q1072
985 1277 877Q1532 744 1532 499ZM1400 535Q1372 727 1178 827Q1019 909 804 909Q589 909 429 827Q233 727 205 535H1400Z" />
<glyph unicode="f" glyph-name="f" horiz-adv-x="766" d="M780 1334L624 1354Q577 1360 531 1360Q386 1360 296 1296Q193 1224 193 1085V967H660V887H193V0H71V1094Q71 1267 215 1361Q339 1441 522 1441Q584 1441 645 1432L780 1412V1334Z" />
<glyph unicode="g" glyph-name="g" horiz-adv-x="1598" d="M1529 39Q1529 -222 1292 -352Q1102 -457 819 -457Q645 -457 514 -433Q438 -419 229 -361L273 -277Q522 -373 825 -373Q1060 -373 1213 -286Q1402 -178 1402 39V174Q1345 127 1237 74Q1147 30 1087 15Q955
-18 804 -18Q524 -18 322 91Q71 226 71 483Q71 744 316 878Q513 985 798 985Q1183 985 1402 771V967H1529V39ZM1402 287V434Q1402 636 1258 765Q1097 909 804 909Q568 909 404 817Q203 703 203 485Q203 264 403 151Q564 61 804 61Q962 61 1087 102Q1281 165 1402
287Z" />
<glyph unicode="h" glyph-name="h" horiz-adv-x="1320" d="M1251 0H1128V573Q1128 737 985 829Q862 907 688 907Q489 907 353 818Q193 715 193 526V0H71V1432H193V795Q369 987 688 987Q923 987 1073 892Q1251 778 1251 557V0Z" />
<glyph unicode="i" glyph-name="i" horiz-adv-x="321" d="M252 1239Q252 1178 159 1178Q71 1178 71 1239Q71 1298 159 1298Q252 1298 252 1239ZM224 0H97V967H224V0Z" />
<glyph unicode="j" glyph-name="j" horiz-adv-x="807" d="M738 1239Q738 1178 648 1178Q556 1178 556 1239Q556 1298 648 1298Q738 1298 738 1239ZM709 -98Q709 -436 156 -436H71V-358H156Q587 -358 587 -90V967H709V-98Z" />
<glyph unicode="k" glyph-name="k" horiz-adv-x="1366" d="M1297 1H1148L540 447L196 200V0H71V1432H196V305L1136 984H1285L612 499L1297 1Z" />
<glyph unicode="l" glyph-name="l" horiz-adv-x="265" d="M196 0H71V1432H196V0Z" />
<glyph unicode="m" glyph-name="m" horiz-adv-x="2133" d="M2064 0H1938V618Q1938 766 1803 844Q1692 909 1533 909Q1374 909 1262 845Q1127 766 1127 618V0H1004V618Q1004 766 868 844Q757 909 599 909Q420 909 307 829Q219 766 199 675V0H71V592Q71 601 72 617T73
643V967H199V869Q344 985 605 985Q903 985 1065 797Q1234 985 1527 985Q1747 985 1890 900Q2064 797 2064 592V0Z" />
<glyph unicode="n" glyph-name="n" horiz-adv-x="1320" d="M1251 0H1128V573Q1128 742 972 833Q843 909 661 909Q481 909 356 843Q196 760 196 596V2H195V0H72V2H71V969H196V836Q358 985 661 985Q903 985 1061 889Q1251 773 1251 547V0Z" />
<glyph unicode="o" glyph-name="o" horiz-adv-x="1603" d="M1534 483Q1534 229 1283 92Q1080 -18 804 -18Q529 -18 324 93Q71 230 71 483Q71 736 324 874Q529 985 804 985Q1081 985 1284 874Q1534 737 1534 483ZM1402 485Q1402 701 1202 816Q1037 909 804 909Q569
909 405 816Q203 702 203 485Q203 268 405 154Q569 61 804 61Q1034 61 1200 156Q1402 271 1402 485Z" />
<glyph unicode="p" glyph-name="p" horiz-adv-x="1599" d="M1530 483Q1530 225 1279 90Q1078 -18 797 -18Q656 -18 528 15Q315 70 198 180V-460L71 -459V998H196V771Q417 985 803 985Q1087 985 1284 878Q1530 744 1530 483ZM1398 485Q1398 703 1196 817Q1032 909
797 909Q500 909 340 766Q198 638 198 434V303Q312 173 528 102Q653 61 797 61Q1034 61 1197 153Q1398 266 1398 485Z" />
<glyph unicode="q" glyph-name="q" horiz-adv-x="1599" d="M1530 998L1529 -460H1402V180Q1286 70 1072 15Q945 -18 804 -18Q524 -18 322 91Q71 226 71 483Q71 744 316 878Q513 985 798 985Q1184 985 1404 771V998H1530ZM1402 303V434Q1402 636 1258 765Q1097
909 804 909Q568 909 404 817Q203 703 203 485Q203 264 403 151Q564 61 804 61Q948 61 1072 102Q1289 173 1402 303Z" />
<glyph unicode="r" glyph-name="r" horiz-adv-x="930" d="M861 875H852Q867 875 682 889Q466 890 332 770Q193 645 193 432V0H71V967H193V778Q369 971 700 971Q726 969 861 956V875Z" />
<glyph unicode="s" glyph-name="s" horiz-adv-x="1249" d="M1181 248Q1181 0 615 0H468Q196 0 71 106L183 151Q287 80 468 80H706Q1054 80 1054 242Q1054 381 723 442L442 494Q81 561 81 741Q81 967 539 967H679V968H762Q1037 968 1158 866L1046 821Q946 889 748
889H492Q207 889 207 737Q207 622 501 567L793 512Q1181 439 1181 248Z" />
<glyph unicode="t" glyph-name="t" horiz-adv-x="601" d="M589 887H196V196Q196 78 323 78H410V0H345Q71 0 71 188V1241H196V967H589V887Z" />
<glyph unicode="u" glyph-name="u" horiz-adv-x="1318" d="M1249 420Q1249 194 1059 78Q901 -18 660 -18Q416 -18 260 77Q71 192 71 420V967H193V393Q193 222 348 131Q476 57 660 57Q841 57 969 133Q1123 224 1123 393V967H1249V420Z" />
<glyph unicode="v" glyph-name="v" horiz-adv-x="1458" d="M1389 967L891 78Q836 -20 731 -20Q623 -20 568 78L71 967H205L676 119Q701 74 727 74Q759 74 783 118L1254 967H1389Z" />
<glyph unicode="w" glyph-name="w" horiz-adv-x="2148" d="M2079 967L1581 78Q1526 -20 1421 -20Q1314 -20 1258 78L1075 403L891 78Q835 -20 731 -20Q623 -20 568 78L71 967H205L676 119Q701 74 727 74Q759 74 783 118L1008 525L761 967H896L1366 119Q1391 74
1417 74Q1449 74 1473 118L1944 967H2079Z" />
<glyph unicode="x" glyph-name="x" horiz-adv-x="1401" d="M1332 2H1195L700 424L207 2H71L633 497L71 982H205L700 569L1182 982H1317L769 497L1332 2Z" />
<glyph unicode="y" glyph-name="y" horiz-adv-x="1334" d="M1265 30Q1265 -231 1028 -361Q838 -466 555 -466Q298 -466 71 -370L114 -286Q240 -347 389 -368Q488 -382 561 -382Q796 -382 949 -295Q1138 -187 1138 30V128Q975 -18 675 -18Q431 -18 275 77Q85 192
85 420V967H208V393Q208 222 363 131Q491 57 675 57Q856 57 984 133Q1138 224 1138 393V967H1265V30Z" />
<glyph unicode="z" glyph-name="z" horiz-adv-x="1200" d="M1131 0H261Q71 0 71 96Q71 137 147 199L938 838Q955 853 955 864Q955 889 900 889H144V967H882Q1091 967 1091 877Q1091 830 1026 778L240 143Q216 124 216 109Q216 84 280 84H1131V0Z" />
<glyph unicode="{" glyph-name="braceleft" horiz-adv-x="1080" d="M1011 -212H950Q651 -212 550 -122Q465 -46 465 161V401Q465 684 71 728V732H72L76 733Q226 748 336 827Q465 921 465 1060Q465 1357 462 1324Q474 1519 550 1585Q653 1674 1011 1675V1592Q744
1592 672 1529Q609 1474 606 1342Q605 1297 610 1222Q616 1130 616 1101Q620 946 584 877Q525 766 339 730Q529 694 582 596Q617 531 612 378Q611 356 608 290Q605 228 608 159Q615 -18 671 -67Q741 -129 1011 -129V-212Z" />
<glyph unicode="|" glyph-name="bar" horiz-adv-x="274" d="M205 -483H71V1565H205V-483Z" />
<glyph unicode="}" glyph-name="braceright" horiz-adv-x="1080" d="M1011 728Q616 684 616 401V161Q616 -46 529 -122Q426 -212 130 -212H71V-129Q338 -129 410 -67Q465 -19 473 159Q475 216 473 290L469 378Q464 533 498 596Q551 694 741 730Q557 766 497 877Q460
944 463 1101Q464 1131 470 1222Q475 1297 474 1342Q471 1474 408 1529Q336 1592 71 1592V1675Q426 1675 529 1585Q606 1518 618 1324Q616 1357 616 1060Q616 920 744 827Q854 748 1004 733L1008 732H1011V728Z" />
<glyph unicode="~" glyph-name="asciitilde" horiz-adv-x="1456" d="M1387 1035Q1309 958 1233 924Q1122 875 962 880Q875 883 704 911T445 943Q254 949 150 887H71Q146 966 224 1000Q331 1047 501 1041Q585 1038 750 1010T999 978Q1195 970 1306 1035H1387Z" />
</font>
</defs>
</svg>
