<?xml version="1.0" standalone="no"?> <!DOCTYPE svg PUBLIC "-//W3C//DTD SVG 1.0//EN" "http://www.w3.org/TR/2001/REC-SVG-20010904/DTD/svg10.dtd" > <svg xmlns="http://www.w3.org/2000/svg" width="100%" height="100%">
<defs >
<font horiz-adv-x="480" ><font-face
    font-family="Asenine Super Thin"
    units-per-em="2455"
    panose-1="0 0 4 0 0 0 0 0 0 0"
    ascent="1972"
    descent="-483"
    alphabetic="0" />
<missing-glyph horiz-adv-x="1227" />
<glyph unicode=" " glyph-name="space" horiz-adv-x="432" />
<glyph unicode="!" glyph-name="exclam" horiz-adv-x="146" d="M98 287H48V1456H98V287ZM119 68Q119 -10 73 -10Q28 -10 28 68Q28 143 73 143Q119 143 119 68Z" />
<glyph unicode="&quot;" glyph-name="quotedbl" horiz-adv-x="275" d="M248 1434L242 1101H191L185 1434H248ZM91 1434L85 1101H34L28 1434H91Z" />
<glyph unicode="#" glyph-name="numbersign" horiz-adv-x="693" d="M419 469L440 752H273L251 469H419ZM517 1118L495 831H665L659 752H489L467 469H638L631 387H461L440 100H390L413 387H245L223 100H176L198 387H28L34 469H204L226 752H55L62 831H232L254 1118H300L279
831H447L468 1118H517Z" />
<glyph unicode="$" glyph-name="dollar" horiz-adv-x="588" d="M561 369Q561 76 381 14V-159H328V2Q310 0 290 0H245V-159H192V0Q96 3 28 60V146Q128 84 192 86V762Q123 814 94 855Q28 948 28 1110Q28 1361 192 1416V1579H245V1429Q269 1432 296 1432H328V1579H381V1432Q425
1421 431 1419Q473 1404 510 1372V1294Q447 1346 381 1354V733Q457 678 484 641Q561 531 561 369ZM328 770V1354H282Q262 1354 245 1352V825L254 819L328 770ZM192 864V1338Q81 1292 81 1116Q81 993 134 921Q153 895 192 864ZM503 362Q503 492 438 573Q420 596
381 627V111Q503 165 503 362ZM328 95V667Q327 668 303 684L245 724V86Q291 87 328 95Z" />
<glyph unicode="%" glyph-name="percent" horiz-adv-x="744" d="M393 1166Q393 1054 357 971Q309 859 212 859Q114 859 65 970Q28 1054 28 1166Q28 1278 65 1363Q114 1475 212 1475Q301 1475 351 1375Q393 1290 393 1166ZM665 1442L105 -25H53L615 1442H665ZM716
303Q716 192 679 108Q630 -4 533 -4Q434 -4 386 107Q350 190 350 303Q350 416 386 500Q435 612 533 612Q630 612 679 499Q716 415 716 303ZM344 1166Q344 1248 318 1310Q282 1393 212 1393Q139 1393 104 1311Q78 1249 78 1166Q78 1085 105 1022Q141 939 212 939Q282
939 317 1023Q344 1085 344 1166ZM666 303Q666 394 635 457Q599 531 533 531Q462 531 426 448Q399 385 399 303Q399 222 426 159Q462 76 533 76Q604 76 640 159Q666 221 666 303Z" />
<glyph unicode="&amp;" glyph-name="ampersand" horiz-adv-x="624" d="M597 400Q597 231 515 113L516 112L223 -245Q278 -316 333 -316Q371 -316 464 -240Q537 -181 581 -181V-257Q543 -257 470 -315L460 -323L455 -327Q365 -394 333 -394Q253 -394 151 -233L186
-189L338 -2Q326 -4 313 -4Q201 -4 119 101Q28 217 28 400Q28 569 109 686Q148 742 197 772Q163 798 136 838Q66 943 66 1095Q66 1229 121 1331Q188 1458 311 1458Q436 1458 502 1332Q555 1232 555 1095Q555 942 486 838Q460 799 427 773Q391 733 313 733Q195 733
134 620Q85 530 85 401Q85 272 134 182Q195 69 313 69Q385 69 439 122L477 168Q539 263 539 401L597 400ZM502 1096Q502 1207 462 1287Q411 1390 311 1390Q211 1390 160 1287Q119 1206 119 1096Q119 985 160 905Q211 803 311 803Q407 803 460 907Q502 990 502 1096Z"
/>
<glyph unicode="&apos;" glyph-name="quotesingle" horiz-adv-x="118" d="M91 1434L85 1101H34L28 1434H91Z" />
<glyph unicode="(" glyph-name="parenleft" horiz-adv-x="236" d="M208 1599Q68 1188 68 739Q68 252 208 -103L189 -175Q28 209 28 737Q28 1229 186 1664L208 1599Z" />
<glyph unicode=")" glyph-name="parenright" horiz-adv-x="236" d="M208 737Q208 209 47 -175L28 -103Q169 252 169 739Q169 1188 28 1599L50 1664Q208 1229 208 737Z" />
<glyph unicode="*" glyph-name="asterisk" horiz-adv-x="481" d="M454 1067H256L259 1072V1070Q276 879 406 879L403 815Q318 815 266 899Q250 926 238 959Q228 930 209 899Q157 815 73 815L69 879Q198 879 216 1067H28V1132H216V1135Q210 1209 179 1261Q138 1331
72 1331L73 1389Q185 1389 238 1246Q248 1276 266 1305Q319 1389 403 1389V1331Q338 1331 296 1261Q265 1208 259 1135V1132H454V1067Z" />
<glyph unicode="+" glyph-name="plus" horiz-adv-x="588" d="M561 569H318V150H270V569H28V651H270V1071H318V651H561V569Z" />
<glyph unicode="," glyph-name="comma" horiz-adv-x="153" d="M126 80Q126 66 125 54L126 53L82 -168H28L58 9Q32 26 32 80Q32 155 81 155H82V156V155Q126 154 126 80Z" />
<glyph unicode="-" glyph-name="hyphen" horiz-adv-x="443" d="M416 455H28V537H416V455Z" />
<glyph unicode="." glyph-name="period" horiz-adv-x="146" d="M119 68Q119 -10 73 -10Q28 -10 28 68Q28 143 73 143Q119 143 119 68Z" />
<glyph unicode="/" glyph-name="slash" horiz-adv-x="430" d="M403 1456L82 2H28L350 1456H403Z" />
<glyph unicode="0" glyph-name="zero" horiz-adv-x="641" d="M614 717Q614 369 561 196Q492 -25 325 -25Q153 -25 83 191Q28 363 28 717Q28 1070 83 1242Q152 1456 325 1456Q496 1456 563 1241Q614 1075 614 717ZM558 719Q558 1053 524 1182Q474 1374 325 1374Q173
1374 121 1183Q84 1048 84 719Q84 391 122 254Q175 61 325 61Q474 61 524 255Q558 386 558 719Z" />
<glyph unicode="1" glyph-name="one" horiz-adv-x="235" d="M207 0H159V1290L28 1172V1262L207 1432V0Z" />
<glyph unicode="2" glyph-name="two" horiz-adv-x="547" d="M520 1042Q520 891 466 773Q402 634 293 634H290Q120 634 96 358V169Q96 94 144 82H495V0H150Q44 0 44 168V302Q44 487 112 602Q164 691 237 710L241 711H243Q353 729 400 795Q466 886 466 1044Q466
1168 430 1254Q380 1374 273 1374Q99 1374 78 1057H28Q37 1223 91 1328Q157 1456 275 1456Q409 1456 473 1306Q520 1196 520 1042Z" />
<glyph unicode="3" glyph-name="three" horiz-adv-x="545" d="M427 1128Q427 1231 381 1300Q329 1381 231 1381Q148 1381 89 1302L51 1354Q128 1453 231 1453Q350 1453 420 1345Q480 1252 480 1127Q480 931 354 842Q518 728 518 431Q518 266 457 140Q378 -20 230
-20Q113 -20 28 115L65 168Q132 56 230 56Q353 56 416 191Q464 294 464 433Q464 559 424 656Q372 782 269 806Q250 805 156 805V878L267 877Q427 912 427 1128Z" />
<glyph unicode="4" glyph-name="four" horiz-adv-x="644" d="M618 406H496V0H442V406H108Q28 406 28 489Q28 535 49 582L435 1456H496V481H618V406ZM442 481V1335L95 545Q88 529 88 508Q88 481 122 481H442Z" />
<glyph unicode="5" glyph-name="five" horiz-adv-x="561" d="M534 422Q534 260 480 147Q409 0 264 0H223Q102 0 28 103L64 164Q117 80 215 80H255Q478 80 478 420Q478 550 438 639Q384 758 269 758H50V1432H476V1356H103V836H261Q410 836 481 695Q534 588 534 422Z" />
<glyph unicode="6" glyph-name="six" horiz-adv-x="634" d="M607 503Q607 307 539 166Q459 1 316 1Q175 1 95 167Q28 308 28 503Q28 593 43 672L42 673L229 1453H282L155 923Q224 1004 316 1004Q459 1004 539 839Q607 699 607 503ZM554 501Q554 667 500 784Q436
925 316 925Q198 925 134 784Q80 666 80 501Q80 335 133 218Q197 77 316 77Q436 77 500 218Q554 335 554 501Z" />
<glyph unicode="7" glyph-name="seven" horiz-adv-x="641" d="M614 1337Q614 1307 601 1260L272 0H216L553 1282Q558 1303 558 1329Q558 1356 531 1356H28V1432H534Q614 1432 614 1337Z" />
<glyph unicode="8" glyph-name="eight" horiz-adv-x="624" d="M597 400Q597 251 531 135Q452 -4 313 -4Q201 -4 119 101Q28 217 28 400Q28 569 109 686Q148 742 197 772Q163 798 136 838Q66 943 66 1095Q66 1229 121 1331Q188 1458 311 1458Q436 1458 502 1332Q555
1232 555 1095Q555 942 486 838Q460 799 427 773Q477 743 517 685Q597 569 597 400ZM502 1096Q502 1207 462 1287Q411 1390 311 1390Q211 1390 160 1287Q119 1206 119 1096Q119 985 160 905Q211 803 311 803Q407 803 460 907Q502 990 502 1096ZM323 798V803Q308
804 300 803V798H323ZM324 733V738H300V733Q306 732 311 732Q318 732 324 733ZM539 401Q539 528 490 619Q429 733 313 733Q195 733 134 620Q85 530 85 401Q85 272 134 182Q195 69 313 69Q429 69 490 183Q539 274 539 401Z" />
<glyph unicode="9" glyph-name="nine" horiz-adv-x="634" d="M607 951Q607 861 591 783L593 782L406 1H353L480 531Q410 450 318 450Q176 450 96 615Q28 756 28 951Q28 1145 96 1287Q177 1453 318 1453Q461 1453 540 1288Q607 1148 607 951ZM554 953Q554 1119
501 1236Q437 1377 318 1377Q198 1377 133 1236Q80 1120 80 953Q80 786 133 670Q198 529 318 529Q436 529 500 671Q554 789 554 953Z" />
<glyph unicode=":" glyph-name="colon" horiz-adv-x="146" d="M119 713Q119 637 74 637Q28 637 28 713Q28 791 74 791Q119 791 119 713ZM119 68Q119 -10 74 -10Q28 -10 28 68Q28 143 74 143Q119 143 119 68Z" />
<glyph unicode=";" glyph-name="semicolon" horiz-adv-x="153" d="M122 713Q122 637 78 637Q32 637 32 713Q32 791 78 791Q122 791 122 713ZM126 80Q126 66 125 54L126 53L82 -168H28L58 9Q32 26 32 80Q32 155 81 155H82V156V155Q126 154 126 80Z" />
<glyph unicode="&lt;" glyph-name="less" horiz-adv-x="552" d="M524 98L28 580V641L524 1124V1024L107 610L524 196V98Z" />
<glyph unicode="=" glyph-name="equal" horiz-adv-x="658" d="M631 752H28V831H631V752ZM631 387H28V469H631V387Z" />
<glyph unicode="&gt;" glyph-name="greater" horiz-adv-x="552" d="M524 580L28 98V196L446 610L28 1024V1124L524 641V580Z" />
<glyph unicode="?" glyph-name="question" horiz-adv-x="529" d="M501 1042Q501 677 259 627V268H208V711H226Q342 711 402 825Q448 915 448 1044Q448 1168 412 1254Q362 1374 256 1374Q170 1374 119 1286Q97 1250 89 1187Q84 1157 78 1057H28Q40 1271 84 1345Q150
1456 256 1456Q391 1456 455 1307Q501 1198 501 1042ZM279 68Q279 -10 233 -10Q187 -10 187 68Q187 143 233 143Q279 143 279 68Z" />
<glyph unicode="@" glyph-name="at" horiz-adv-x="1130" d="M1102 174Q1010 -46 841 -173Q699 -279 574 -279Q351 -279 206 -94Q28 134 28 522Q28 851 146 1094Q318 1450 617 1450Q814 1450 945 1282Q1099 1084 1099 778Q1099 432 954 238Q871 127 791 127Q701
127 701 270L711 274L708 289Q642 182 550 131Q495 101 438 104Q311 111 253 259Q217 351 218 470Q218 544 231 621Q265 822 353 956Q457 1115 602 1107Q754 1099 805 880L838 1077L888 1074L760 295Q760 241 765 226Q774 203 805 203Q859 203 922 296Q1040 472
1040 768Q1040 1005 946 1171Q830 1374 611 1374Q411 1374 273 1182Q89 925 89 510Q89 222 186 35Q310 -207 571 -207Q686 -207 831 -98Q995 26 1072 213L1102 174ZM765 722Q765 808 747 877Q707 1025 591 1031Q472 1037 384 901Q310 786 283 620Q272 548 272 482Q272
387 298 315Q344 189 451 183Q508 180 564 218Q660 283 728 412L749 543Q765 645 765 722Z" />
<glyph unicode="A" glyph-name="A" horiz-adv-x="618" d="M590 0H537V711H81V0H28V926Q28 1137 86 1278Q160 1456 310 1456Q456 1456 531 1277Q590 1135 590 926V0ZM537 791V895Q537 1374 310 1374Q81 1374 81 895V791H537Z" />
<glyph unicode="B" glyph-name="B" horiz-adv-x="599" d="M571 394Q571 240 516 136Q446 3 306 3H136Q83 3 53 65Q29 115 29 173L28 1298V1298Q28 1467 134 1468L279 1469Q405 1470 473 1336Q527 1229 527 1090Q527 856 380 771Q571 693 571 394ZM472 1082Q472
1218 417 1302Q380 1360 348 1376Q328 1386 277 1386H129Q81 1374 81 1299V793H235V794H262Q368 794 425 889Q472 969 472 1082ZM516 394Q516 714 277 714H226V713H81L82 172Q82 97 130 85H296Q516 85 516 394Z" />
<glyph unicode="C" glyph-name="C" horiz-adv-x="784" d="M757 1239L716 1186Q610 1374 455 1374Q271 1374 169 1156Q84 973 84 719Q84 463 169 280Q270 61 455 61Q607 61 716 256L745 174Q622 -25 455 -25Q244 -25 127 219Q28 426 28 717Q28 1005 128 1212Q246
1456 455 1456Q631 1456 757 1239Z" />
<glyph unicode="D" glyph-name="D" horiz-adv-x="686" d="M658 728Q658 442 588 253Q496 3 299 3H136Q83 3 53 65Q29 115 29 173L28 1298V1298Q28 1467 134 1468L279 1469Q458 1470 563 1245Q658 1041 658 728ZM603 730Q603 1007 524 1186Q435 1386 276 1386H129Q81
1374 81 1299L82 172Q82 97 130 85L296 84Q467 83 545 310Q603 477 603 730Z" />
<glyph unicode="E" glyph-name="E" horiz-adv-x="477" d="M450 0H134Q81 0 51 62Q28 110 28 170V1262V1262Q28 1432 134 1432H450V1350H129Q81 1338 81 1263V757H398V677H81V169Q81 94 129 82H450V0Z" />
<glyph unicode="F" glyph-name="F" horiz-adv-x="477" d="M450 1350H129Q81 1338 81 1263V757H390V677H81V0H28V1262V1262Q28 1432 134 1432H450V1350Z" />
<glyph unicode="G" glyph-name="G" horiz-adv-x="784" d="M757 1239L716 1186Q610 1374 455 1374Q271 1374 169 1156Q84 973 84 719Q84 463 169 280Q270 61 455 61Q597 61 701 231V563Q701 638 654 650H333V732H648Q755 732 755 562V-20H701V112Q594 -25 455 -25Q244
-25 127 219Q28 426 28 717Q28 1005 128 1212Q246 1456 455 1456Q631 1456 757 1239Z" />
<glyph unicode="H" glyph-name="H" horiz-adv-x="618" d="M591 0H537V711H81V0H28V1432H81V791H537V1432H591V0Z" />
<glyph unicode="I" glyph-name="I" horiz-adv-x="109" d="M81 0H28V1432H81V0Z" />
<glyph unicode="J" glyph-name="J" horiz-adv-x="457" d="M430 455Q430 274 394 156Q343 -15 226 -15Q194 -15 156 0L28 50L43 136L174 82Q198 72 220 72Q310 72 350 217Q377 312 377 434V1432H430V455Z" />
<glyph unicode="K" glyph-name="K" horiz-adv-x="620" d="M592 1H524L176 773L81 621V2H28V1434H81V746L501 1429H581L215 836L592 1Z" />
<glyph unicode="L" glyph-name="L" horiz-adv-x="477" d="M450 0H134Q28 0 28 170V1432H81V169Q81 94 129 82H450V0Z" />
<glyph unicode="M" glyph-name="M" horiz-adv-x="785" d="M757 1H704L703 1336Q703 1368 690 1368Q680 1368 674 1333L462 127Q439 -2 393 -2Q346 -2 323 127L111 1333Q105 1368 95 1368Q82 1368 82 1336V-4H28V1331Q28 1444 94 1444Q145 1444 162 1348L377 121Q383
88 393 88Q401 88 407 120L623 1348Q640 1444 692 1444Q757 1444 757 1332V1Z" />
<glyph unicode="N" glyph-name="N" horiz-adv-x="632" d="M604 124Q604 -5 537 -5Q491 -5 463 94L113 1341Q107 1362 97 1362Q81 1362 81 1325V0H28V1315Q28 1444 96 1444Q143 1444 170 1346L520 100Q526 79 535 79Q551 79 551 114V1432H604V124Z" />
<glyph unicode="O" glyph-name="O" horiz-adv-x="861" d="M834 717Q834 358 721 174Q598 -25 432 -25Q247 -25 125 191Q28 363 28 717Q28 1071 126 1243Q246 1456 432 1456Q615 1456 737 1240Q834 1068 834 717ZM778 719Q778 1039 699 1182Q594 1374 432 1374Q268
1374 163 1183Q84 1039 84 719Q84 399 163 254Q269 61 432 61Q594 61 699 255Q778 400 778 719Z" />
<glyph unicode="P" glyph-name="P" horiz-adv-x="577" d="M551 1018Q551 823 464 692Q389 580 253 580H81V0H28V1282Q28 1344 50 1391Q79 1452 134 1452L293 1451Q421 1450 490 1312Q551 1193 551 1018ZM494 1016Q494 1147 456 1240Q404 1370 293 1370H129Q81
1358 81 1283V662H271Q392 662 450 786Q494 880 494 1016Z" />
<glyph unicode="Q" glyph-name="Q" horiz-adv-x="861" d="M834 717Q834 359 723 177Q670 90 608 40Q558 -137 454 -205Q459 -208 471 -217Q573 -295 615 -295Q692 -295 799 -137V-229Q700 -376 615 -376Q572 -376 480 -307Q479 -306 476 -303L464 -294Q401 -245
354 -236H348V-235H343Q267 -235 159 -394V-303Q257 -156 343 -156Q349 -156 354 -157Q465 -150 532 -5Q484 -25 432 -25Q247 -25 125 191Q28 363 28 717Q28 1071 126 1243Q246 1456 432 1456Q615 1456 737 1240Q834 1068 834 717ZM778 719Q778 1039 699 1182Q594
1374 432 1374Q268 1374 163 1183Q84 1039 84 719Q84 399 163 254Q269 61 432 61Q505 61 568 103Q584 178 584 267Q584 430 530 552Q465 697 346 697L348 767Q490 767 570 601Q637 461 637 265Q637 210 631 159Q666 200 698 257Q778 404 778 719Z" />
<glyph unicode="R" glyph-name="R" horiz-adv-x="577" d="M551 1018Q551 823 464 692Q440 657 410 632L550 1H496L363 603Q314 580 253 580H81V0H28V1282Q28 1344 50 1391Q79 1452 134 1452L293 1451Q421 1450 490 1312Q551 1193 551 1018ZM494 1016Q494 1159
450 1255Q396 1370 293 1370H129Q81 1358 81 1283V662H271Q392 662 450 786Q494 880 494 1016Z" />
<glyph unicode="S" glyph-name="S" horiz-adv-x="588" d="M561 369Q561 213 505 117Q435 -4 290 0L256 1V0H241Q40 0 40 373V430H86V373Q86 86 245 86H264Q349 86 410 127Q503 190 503 362Q503 492 438 573Q403 616 303 684L249 721Q134 798 94 855Q28 948 28
1110Q28 1432 296 1432H357Q558 1432 558 1063V1006H511V1063Q511 1354 352 1354H282Q81 1354 81 1116Q81 993 134 921Q166 878 254 819L338 763Q451 688 484 641Q561 531 561 369Z" />
<glyph unicode="T" glyph-name="T" horiz-adv-x="588" d="M561 1350H320V0H266V1350H28V1432H561V1350Z" />
<glyph unicode="U" glyph-name="U" horiz-adv-x="618" d="M590 506Q590 296 531 154Q458 -25 310 -25Q160 -25 86 153Q28 294 28 506V1432H81V541Q81 61 310 61Q537 61 537 541V1432H590V506Z" />
<glyph unicode="V" glyph-name="V" horiz-adv-x="702" d="M675 1432L427 109Q402 -23 351 -23Q302 -23 277 109L28 1432H81L330 103Q337 66 351 66Q365 66 372 102L622 1432H675Z" />
<glyph unicode="W" glyph-name="W" horiz-adv-x="1046" d="M1019 1432L770 109Q745 -23 695 -23Q645 -23 621 109L524 627L427 109Q402 -23 351 -23Q302 -23 277 109L28 1432H81L330 103Q337 66 351 66Q365 66 372 102L496 772L372 1432H425L674 103Q681 66 695
66Q709 66 715 102L966 1432H1019Z" />
<glyph unicode="X" glyph-name="X" horiz-adv-x="637" d="M610 1H555L319 643L82 1H28L292 716L28 1432H81L319 788L556 1432H610L346 716L610 1Z" />
<glyph unicode="Y" glyph-name="Y" horiz-adv-x="637" d="M610 1432L344 711V0H294V709L28 1432H81L319 788L556 1432H610Z" />
<glyph unicode="Z" glyph-name="Z" horiz-adv-x="594" d="M567 0H112Q28 0 28 102Q28 152 55 219L500 1288Q507 1305 507 1321Q507 1352 477 1352H35V1432H480Q560 1432 560 1327Q560 1279 540 1231L92 156Q82 132 82 115Q82 82 114 82H567V0Z" />
<glyph unicode="[" glyph-name="bracketleft" horiz-adv-x="222" d="M195 -179H134Q28 -179 28 -9V1463Q28 1633 134 1633H195V1561H123Q75 1549 75 1474V-20Q75 -95 123 -107H195V-179Z" />
<glyph unicode="\" glyph-name="backslash" horiz-adv-x="390" d="M363 -3H310L28 1456H82L363 -3Z" />
<glyph unicode="]" glyph-name="bracketright" horiz-adv-x="222" d="M195 -9Q195 -179 89 -179H28V-107H99Q147 -94 147 -20V1474Q147 1548 99 1561H28V1633H89Q195 1633 195 1463V-9Z" />
<glyph unicode="^" glyph-name="asciicircum" horiz-adv-x="379" d="M352 1121H293L190 1358L88 1121H28L151 1432H229L352 1121Z" />
<glyph unicode="_" glyph-name="underscore" horiz-adv-x="662" d="M635 -483H28V-403H635V-483Z" />
<glyph unicode="`" glyph-name="grave" horiz-adv-x="256" d="M28 1432L157 1081H228L101 1432H28Z" />
<glyph unicode="a" glyph-name="a" horiz-adv-x="631" d="M604 0H554V180Q507 69 424 15Q374 -18 318 -18Q174 -18 95 146Q28 285 28 483Q28 686 92 822Q170 985 316 985Q468 985 554 771V968H604V0ZM554 303V434Q554 617 507 744Q444 909 318 909Q197 909 133
769Q80 652 80 485Q80 314 132 200Q195 61 318 61Q375 61 424 102Q509 173 554 303Z" />
<glyph unicode="b" glyph-name="b" horiz-adv-x="632" d="M604 483Q604 283 538 146Q459 -18 315 -18Q259 -18 209 15Q125 70 79 180V0H28V1V1428H78V771Q165 985 317 985Q464 985 541 822Q604 686 604 483ZM553 485Q553 654 500 769Q435 909 315 909Q187 909
126 744Q79 618 79 434V303Q123 173 209 102Q258 61 315 61Q437 61 500 200Q553 314 553 485Z" />
<glyph unicode="c" glyph-name="c" horiz-adv-x="549" d="M522 840L486 787Q417 909 318 909Q198 909 133 768Q80 652 80 485Q80 318 133 202Q198 61 318 61Q417 61 486 185L521 129Q436 -18 318 -18Q176 -18 96 147Q28 288 28 483Q28 677 96 819Q177 985 318
985Q437 985 522 840Z" />
<glyph unicode="d" glyph-name="d" horiz-adv-x="632" d="M604 1428V0H554V180Q508 70 424 15Q374 -18 318 -18Q174 -18 95 146Q28 285 28 483Q28 686 92 822Q170 985 316 985Q468 985 555 771V1428H604ZM554 303V434Q554 617 507 744Q444 909 318 909Q197 909
133 769Q80 652 80 485Q80 315 132 200Q196 61 318 61Q375 61 424 102Q509 173 554 303Z" />
<glyph unicode="e" glyph-name="e" horiz-adv-x="633" d="M605 499Q605 473 602 455H81Q86 294 142 187Q207 61 323 61Q463 61 533 185L570 126Q487 -18 323 -18Q179 -18 98 145Q28 285 28 483Q28 677 96 819Q177 985 318 985Q456 985 536 826Q605 688 605 499ZM553
535Q544 687 490 788Q426 909 318 909Q201 909 137 773Q89 673 81 535H553Z" />
<glyph unicode="f" glyph-name="f" horiz-adv-x="303" d="M308 1334L246 1354Q228 1360 210 1360Q76 1360 76 1085V967H261V887H76V0H28V1094Q28 1228 65 1322Q113 1441 206 1441Q231 1441 255 1432L308 1412V1334Z" />
<glyph unicode="g" glyph-name="g" horiz-adv-x="631" d="M604 39Q604 -162 543 -296Q469 -457 323 -457Q255 -457 203 -433Q173 -419 91 -361L108 -277Q206 -373 326 -373Q454 -373 513 -221Q554 -114 554 39V174Q533 127 489 74Q453 30 430 15Q378 -18 318 -18Q174
-18 95 146Q28 285 28 483Q28 686 92 822Q170 985 316 985Q468 985 554 771V967H604V39ZM554 287V434Q554 617 507 744Q444 909 318 909Q197 909 133 769Q80 652 80 485Q80 314 132 200Q195 61 318 61Q380 61 430 102Q507 166 554 287Z" />
<glyph unicode="h" glyph-name="h" horiz-adv-x="522" d="M494 0H446V573Q446 699 408 792Q361 907 272 907Q172 907 119 775Q76 669 76 526V0H28V1432H76V795Q146 987 272 987Q391 987 449 841Q494 727 494 557V0Z" />
<glyph unicode="i" glyph-name="i" horiz-adv-x="127" d="M99 1239Q99 1178 63 1178Q28 1178 28 1239Q28 1298 63 1298Q99 1298 99 1239ZM89 0H38V967H89V0Z" />
<glyph unicode="j" glyph-name="j" horiz-adv-x="319" d="M292 1239Q292 1178 256 1178Q220 1178 220 1239Q220 1298 256 1298Q292 1298 292 1239ZM280 -98Q280 -436 62 -436H28V-358H62Q232 -358 232 -90V967H280V-98Z" />
<glyph unicode="k" glyph-name="k" horiz-adv-x="540" d="M513 1H454L213 447L78 200V0H28V1432H78V305L449 984H508L242 499L513 1Z" />
<glyph unicode="l" glyph-name="l" horiz-adv-x="105" d="M78 0H28V1432H78V0Z" />
<glyph unicode="m" glyph-name="m" horiz-adv-x="843" d="M816 0H766V618Q766 722 736 800Q694 909 606 909Q524 909 480 812Q445 733 445 618V0H397V618Q397 722 366 800Q324 909 236 909Q99 909 79 675V0H28V592Q28 601 28 618Q29 634 29 643V967H79V869Q136
985 239 985Q357 985 421 797Q488 985 604 985Q715 985 772 854Q816 750 816 592V0Z" />
<glyph unicode="n" glyph-name="n" horiz-adv-x="522" d="M494 0H446V573Q446 704 405 796Q355 909 262 909Q161 909 113 796Q78 713 78 596V2H77V0H28V2V2V969H78V836Q142 985 262 985Q385 985 446 838Q494 722 494 547V0Z" />
<glyph unicode="o" glyph-name="o" horiz-adv-x="634" d="M607 483Q607 288 539 147Q460 -18 318 -18Q176 -18 96 147Q28 288 28 483Q28 677 96 819Q177 985 318 985Q459 985 539 819Q607 678 607 483ZM554 485Q554 651 501 768Q437 909 318 909Q198 909 133 768Q80
652 80 485Q80 318 133 202Q198 61 318 61Q436 61 500 203Q554 321 554 485Z" />
<glyph unicode="p" glyph-name="p" horiz-adv-x="632" d="M604 483Q604 283 538 146Q459 -18 315 -18Q259 -18 209 15Q125 70 79 180V-460H28V-459V998H78V771Q165 985 317 985Q464 985 541 822Q604 686 604 483ZM553 485Q553 654 500 769Q435 909 315 909Q187
909 126 744Q79 618 79 434V303Q123 173 209 102Q258 61 315 61Q437 61 500 200Q553 314 553 485Z" />
<glyph unicode="q" glyph-name="q" horiz-adv-x="632" d="M604 998V-460H554V180Q508 70 424 15Q374 -18 318 -18Q174 -18 95 146Q28 285 28 483Q28 686 92 822Q170 985 316 985Q468 985 555 771V998H604ZM554 303V434Q554 617 507 744Q444 909 318 909Q197 909
133 769Q80 652 80 485Q80 315 132 200Q196 61 318 61Q375 61 424 102Q509 173 554 303Z" />
<glyph unicode="r" glyph-name="r" horiz-adv-x="367" d="M340 875H336Q343 875 269 889Q159 890 109 703Q76 582 76 432V0H28V967H76V778Q146 971 277 971Q287 969 340 956V875Z" />
<glyph unicode="s" glyph-name="s" horiz-adv-x="494" d="M467 248Q467 0 243 0H185Q78 0 28 106L72 151Q113 80 185 80H280Q417 80 417 242Q417 381 286 442L175 494Q32 561 32 741Q32 967 213 967H269V968H301Q410 968 457 866L413 821Q374 889 296 889H195Q82
889 82 737Q82 622 198 567L313 512Q467 439 467 248Z" />
<glyph unicode="t" glyph-name="t" horiz-adv-x="238" d="M233 887H78V196Q78 78 128 78H162V0H136Q28 0 28 188V1241H78V967H233V887Z" />
<glyph unicode="u" glyph-name="u" horiz-adv-x="521" d="M494 420Q494 245 445 129Q384 -18 261 -18Q137 -18 76 128Q28 244 28 420V967H76V393Q76 261 117 169Q166 57 261 57Q354 57 403 170Q444 263 444 393V967H494V420Z" />
<glyph unicode="v" glyph-name="v" horiz-adv-x="576" d="M549 967L352 78Q330 -20 289 -20Q247 -20 225 78L28 967H81L267 119Q277 74 287 74Q300 74 310 118L496 967H549Z" />
<glyph unicode="w" glyph-name="w" horiz-adv-x="849" d="M822 967L625 78Q604 -20 561 -20Q519 -20 497 78L425 403L352 78Q330 -20 289 -20Q247 -20 225 78L28 967H81L267 119Q277 74 287 74Q300 74 310 118L398 525L300 967H354L540 119Q550 74 561 74Q572
74 582 118L768 967H822Z" />
<glyph unicode="x" glyph-name="x" horiz-adv-x="554" d="M527 2H473L277 424L82 2H28L250 497L28 982H81L277 569L467 982H521L304 497L527 2Z" />
<glyph unicode="y" glyph-name="y" horiz-adv-x="527" d="M500 30Q500 -172 439 -305Q365 -466 219 -466Q118 -466 28 -370L45 -286Q95 -347 153 -368Q192 -382 222 -382Q342 -382 402 -247Q450 -139 450 30V128Q385 -18 266 -18Q142 -18 82 128Q34 243 34 420V967H82V393Q82
261 123 169Q173 57 266 57Q360 57 410 170Q450 262 450 393V967H500V30Z" />
<glyph unicode="z" glyph-name="z" horiz-adv-x="474" d="M447 0H103Q28 0 28 96Q28 138 58 199L370 838Q377 852 377 864Q377 889 356 889H57V967H349Q431 967 431 877Q431 830 406 778L95 143Q85 124 85 109Q85 84 111 84H447V0Z" />
<glyph unicode="{" glyph-name="braceleft" horiz-adv-x="427" d="M400 -212H375Q258 -212 218 -122Q184 -45 184 161V401Q184 684 28 728V732V732L30 733Q105 751 148 860Q185 953 184 1060L182 1324Q181 1505 218 1585Q259 1674 400 1675V1592Q292 1592 260
1515Q241 1471 239 1342Q239 1297 241 1221Q243 1132 243 1101Q245 941 231 877Q208 766 134 730Q210 694 230 596Q243 535 242 378Q241 340 240 290Q239 233 240 159Q244 -19 265 -67Q292 -129 400 -129V-212Z" />
<glyph unicode="|" glyph-name="bar" horiz-adv-x="109" d="M81 -483H28V1565H81V-483Z" />
<glyph unicode="}" glyph-name="braceright" horiz-adv-x="427" d="M400 728Q243 684 243 401V161Q243 -47 209 -122Q169 -212 52 -212H28V-129Q134 -129 162 -67Q184 -18 187 159Q188 221 187 290L186 378Q183 530 197 596Q218 694 293 730Q220 766 196 877Q183
942 183 1101Q183 1130 186 1222Q187 1298 187 1342Q186 1470 167 1515Q135 1592 28 1592V1675Q169 1675 209 1585Q239 1518 244 1324Q243 1357 243 1060Q243 951 280 859Q322 752 397 733L398 732H400V728Z" />
<glyph unicode="~" glyph-name="asciitilde" horiz-adv-x="576" d="M548 1035Q517 957 487 924Q444 875 380 880Q345 883 279 911T176 943Q100 949 59 887H28Q58 966 89 1000Q131 1047 198 1041Q233 1038 297 1010T395 978Q472 970 517 1035H548Z" />
</font>
</defs>
</svg>
