<?xml version="1.0" standalone="no"?> <!DOCTYPE svg PUBLIC "-//W3C//DTD SVG 1.0//EN" "http://www.w3.org/TR/2001/REC-SVG-20010904/DTD/svg10.dtd" > <svg xmlns="http://www.w3.org/2000/svg" width="100%" height="100%">
<defs >
<font horiz-adv-x="443" ><font-face
    font-family="ParmaPetitSCItalic"
    units-per-em="1000"
    panose-1="2 0 6 3 7 0 0 2 0 3"
    ascent="448"
    descent="-198"
    alphabetic="0" />
<missing-glyph horiz-adv-x="1000" />
<glyph unicode=" " glyph-name="space" horiz-adv-x="228" />
<glyph unicode="!" glyph-name="exclam" horiz-adv-x="249" d="M389 653Q379 668 373 673Q362 681 352 681Q335 681 304 659Q274 638 259 636L180 203L203 196Q294 461 389 653ZM204 51Q204 73 187 88T149 103Q127 103 110 86Q95 69 95 46Q95 24 114 9Q132 -6
154 -6Q176 -6 190 11T204 51Z" />
<glyph unicode="&quot;" glyph-name="quotedbl" horiz-adv-x="365" d="M568 621Q568 657 549 683Q528 711 492 711Q435 711 435 661Q435 646 447 630Q457 615 473 615H480Q497 622 508 633L512 634Q514 633 516 632T520 629Q525 619 525 608Q525 515 362 464L369
440Q439 450 500 499Q568 555 568 621ZM380 620Q380 657 361 682Q338 711 304 711Q248 711 248 665Q248 648 259 631Q269 615 286 615Q302 615 312 625Q322 634 325 634Q331 632 335 625Q338 614 338 612Q338 560 280 514Q232 475 174 464L182 440Q255 451 313
499Q380 554 380 620Z" />
<glyph unicode="#" glyph-name="numbersign" horiz-adv-x="777" d="M636 393L452 391Q468 439 480 474T500 534L549 685H538L490 534L446 390L413 383L443 377L440 363L445 376L631 378L636 393ZM446 684H436L387 533L343 389Q321 389 274 389Q227 389 153 388L149
374L340 376L337 362L343 377L371 383L348 388Q365 436 377 472T398 533L446 684ZM597 273L413 271L420 303L406 270L375 264L401 258L312 -19H321L410 256L592 258L597 273ZM333 263L310 268L317 302L303 269Q282 269 235 269Q188 269 115 268L110 254L298 256L209
-20H219L308 258L333 263Z" />
<glyph unicode="$" glyph-name="dollar" horiz-adv-x="395" d="M429 340Q429 398 346 425L366 478H332L316 432Q248 434 198 402Q140 365 140 299Q140 262 169 233Q188 214 230 191L174 32Q137 38 110 62Q108 66 107 68T106 70Q106 68 106 69T108 78Q123 100 123
105Q123 117 113 127Q104 136 92 136Q52 136 52 97Q52 32 164 4L144 -52H177L195 -3Q264 -6 321 33Q383 77 383 143Q383 181 353 214Q326 244 287 257L336 397Q350 395 359 386Q369 377 369 366Q369 359 363 349Q358 337 358 332Q358 306 390 306Q406 306 417 316Q429
325 429 340ZM306 404L259 274Q239 278 223 295Q208 311 208 330Q208 363 235 384T295 405L306 404ZM319 107Q319 73 286 49Q254 25 219 25H205L257 175Q319 148 319 107Z" />
<glyph unicode="%" glyph-name="percent" horiz-adv-x="873" d="M922 317Q922 367 898 405Q871 448 822 448Q727 448 651 343Q581 246 581 148Q581 81 609 40Q640 -8 704 -8Q793 -8 862 113Q922 219 922 317ZM784 659H442Q427 666 406 666Q307 666 232 557Q164
459 164 355Q164 294 194 254Q227 210 286 210Q375 210 446 330Q507 434 507 534Q507 616 456 651H741L303 0H343L784 659ZM893 321Q893 239 836 136Q771 19 699 19Q648 19 648 97Q648 174 701 288Q761 416 829 416Q863 416 880 383Q893 358 893 321ZM477 539Q477
455 420 352Q355 236 283 236Q231 236 231 314Q231 391 284 505Q346 633 415 633Q447 633 464 601Q477 576 477 539Z" />
<glyph unicode="&amp;" glyph-name="ampersand" horiz-adv-x="499" d="M525 192Q525 209 513 223Q501 236 484 236Q451 236 451 208Q451 179 474 179Q485 179 488 180Q489 156 453 156Q450 156 443 156Q437 156 427 157T409 158Q401 158 394 158Q292 158 292 104Q292
71 326 71Q353 71 353 97Q351 103 348 105Q344 108 340 109L335 108Q336 110 336 113T338 118Q341 120 343 122T347 125Q381 110 381 83Q381 56 348 40Q319 25 292 25Q236 25 198 56Q156 89 156 143Q156 209 223 246Q259 207 301 207Q317 207 333 217Q348 226 348
241Q348 261 324 272Q304 281 282 281Q273 281 269 280Q267 330 300 367T382 404Q406 404 426 393Q450 379 453 358L451 352L448 349Q447 348 443 348Q439 348 435 352Q430 355 426 355Q398 355 398 329Q398 319 409 310Q420 302 430 302Q447 302 466 319Q483 336
483 355Q483 392 445 413Q413 430 374 430Q309 430 259 405Q198 374 198 313Q198 289 209 269Q78 224 78 132Q78 62 145 23Q201 -9 276 -9Q320 -9 360 13Q409 40 409 80Q409 109 374 132Q380 132 385 133H395Q465 133 477 136Q525 146 525 192ZM319 239L318 234L313
230Q310 229 309 229T307 228Q281 228 269 259H270Q298 259 314 248L319 239Z" />
<glyph unicode="&apos;" glyph-name="quotesingle" horiz-adv-x="182" d="M252 687L244 711Q169 695 112 650Q46 597 46 528Q46 490 68 465Q89 440 125 440Q146 440 162 453Q178 465 178 486Q178 503 167 520Q156 535 140 535Q125 535 115 526Q104 517 101 517L97
518L91 526Q90 530 90 533T89 539Q89 595 146 636Q178 659 252 687Z" />
<glyph unicode="(" glyph-name="parenleft" horiz-adv-x="437" d="M664 709L657 735Q603 718 565 704T503 676Q351 596 254 468Q145 326 145 167Q145 56 193 -37Q233 -114 322 -205L343 -185Q317 -160 295 -128T255 -54Q221 26 221 100Q221 160 245 249Q295 429
392 538Q494 653 664 709Z" />
<glyph unicode=")" glyph-name="parenright" horiz-adv-x="437" d="M434 361Q434 470 384 565Q344 641 258 735L236 715Q289 668 324 585Q358 504 358 431Q358 365 334 280Q284 99 187 -8Q88 -119 -84 -180L-77 -205Q23 -176 76 -147Q228 -67 325 61Q434 203 434 361Z" />
<glyph unicode="*" glyph-name="asterisk" horiz-adv-x="777" d="M636 597L625 607Q577 561 525 507T416 388Q463 428 496 457T549 507Q571 529 636 597ZM734 345V360H583Q553 360 522 357Q500 355 478 354T433 352Q503 348 540 347T583 345H734ZM389 553V704H374V553Q374
560 375 522T381 400Q382 420 383 443T387 491Q389 507 389 522Q389 537 389 553ZM346 385Q286 454 235 509T138 607L127 596Q182 539 236 487T346 385ZM634 107Q560 184 416 313Q455 268 484 236T535 182Q540 177 562 156T624 97L634 107ZM331 352Q308 353 286
354T241 357Q209 360 180 360H29V346H180Q196 346 331 352ZM387 0V151Q387 166 387 181Q387 196 385 211Q383 233 382 255T379 300Q373 148 373 151V0H387ZM344 315Q296 273 263 244T212 197Q198 184 177 162T126 109L136 99Q190 150 241 204T344 315Z" />
<glyph unicode="+" glyph-name="plus" horiz-adv-x="499" d="M510 269V312L305 303L315 508H271L280 303L74 312V269L280 278L271 72H315L305 278L510 269Z" />
<glyph unicode="," glyph-name="comma" horiz-adv-x="208" d="M196 28Q196 63 174 89Q153 116 119 116Q63 116 63 66Q63 51 75 35Q87 20 101 20Q117 20 133 36L140 38L144 37Q153 29 153 17Q153 -78 -11 -132L-3 -156Q196 -98 196 28Z" />
<glyph unicode="-" glyph-name="hyphen" horiz-adv-x="333" d="M374 270H125L98 200H346L374 270Z" />
<glyph unicode="." glyph-name="period" horiz-adv-x="208" d="M203 47Q203 71 186 88Q169 103 145 103Q124 103 109 85T94 46Q94 22 112 7Q131 -7 154 -7Q174 -7 189 10Q203 27 203 47Z" />
<glyph unicode="/" glyph-name="slash" horiz-adv-x="311" d="M549 764H507L-58 -89L-15 -88L549 764Z" />
<glyph unicode="0" glyph-name="zero" horiz-adv-x="478" d="M488 308Q488 371 457 412Q422 459 363 459Q267 459 188 351Q115 251 115 152Q115 84 148 39Q185 -12 250 -12Q348 -12 422 102Q488 204 488 308ZM454 321Q454 235 397 135Q332 22 254 22Q192 22 192
107Q192 190 247 298Q310 420 384 420Q418 420 437 386Q454 357 454 321Z" />
<glyph unicode="1" glyph-name="one" horiz-adv-x="478" d="M434 447L414 463Q374 447 316 436Q315 436 291 432T216 420L211 411L325 403L179 27L75 6L64 0Q214 3 375 0L385 6L268 27Q334 201 375 305T434 447Z" />
<glyph unicode="2" glyph-name="two" horiz-adv-x="478" d="M473 83L463 94Q409 49 359 49Q336 49 273 77Q210 104 154 104Q455 182 455 332Q455 385 418 422Q382 459 330 459Q267 459 217 415Q168 372 168 309Q168 280 180 247L194 252Q186 273 186 292Q186 330
220 361Q253 391 292 391Q329 391 351 369Q374 348 374 313Q374 236 289 187Q249 170 210 153T130 119Q45 82 45 34Q45 20 55 7Q64 -6 78 -6Q110 -6 110 25Q110 57 85 58Q110 69 123 69Q153 69 214 28Q273 -12 310 -12Q356 -12 399 21Q418 36 436 51T473 83Z" />
<glyph unicode="3" glyph-name="three" horiz-adv-x="478" d="M485 397Q490 429 484 444Q482 449 480 452T476 458Q424 424 354 424Q340 424 326 425T296 432Q260 442 246 461L198 401Q169 365 147 344L157 335L203 371Q249 356 301 356Q306 356 323 356T369 358Q355
347 333 327T279 276Q226 224 188 197L200 186Q245 213 271 213Q344 213 344 133Q344 56 286 -18Q224 -98 151 -98Q124 -98 102 -85Q76 -70 76 -46Q76 -38 91 -20Q106 -4 106 8Q106 47 73 47Q24 47 24 -12Q24 -63 67 -97Q105 -128 158 -128Q249 -128 337 -55Q429
22 429 109Q429 163 396 204Q365 244 310 244Q300 244 283 240Q395 358 485 397Z" />
<glyph unicode="4" glyph-name="four" horiz-adv-x="478" d="M496 460L462 479Q253 309 45 101L61 67Q157 76 216 76H274L213 -104H295Q314 -43 328 2T354 78L458 75L477 128Q451 129 425 129T370 130Q384 172 398 213T428 297Q445 346 462 386T496 460ZM375 367Q363
344 351 315T327 250Q317 220 309 190T290 129L115 128Q202 209 266 268T375 367Z" />
<glyph unicode="5" glyph-name="five" horiz-adv-x="478" d="M490 471L477 473Q442 444 403 444Q360 444 264 469Q251 428 238 388T212 307Q197 259 183 219T154 147H177Q199 223 262 223Q297 223 318 199Q338 176 338 141Q338 64 280 -4Q220 -76 145 -76Q88 -76
76 -42V-39Q76 -35 97 -24Q118 -14 118 6Q118 42 79 42Q57 42 41 23Q26 5 26 -18Q26 -58 69 -83Q105 -104 148 -104Q245 -104 332 -29Q423 50 423 143Q423 197 388 232Q352 266 299 266Q265 266 219 242L272 373Q304 368 326 366T360 363Q428 363 490 471Z" />
<glyph unicode="6" glyph-name="six" horiz-adv-x="478" d="M560 558Q390 552 259 440Q118 320 118 154Q118 79 160 33Q202 -12 277 -12Q357 -12 416 48Q474 106 474 186Q474 244 439 288Q401 335 345 335Q289 335 249 302Q268 350 298 390T370 466Q460 542 555
544L560 558ZM397 209Q397 145 366 87Q328 16 270 16Q231 16 209 47Q190 73 190 114Q190 178 224 236Q263 304 322 304Q359 304 380 274Q397 250 397 209Z" />
<glyph unicode="7" glyph-name="seven" horiz-adv-x="478" d="M525 417V459L508 476Q468 436 424 436Q317 436 238 489Q209 429 190 393T162 344L173 335L214 388Q262 369 333 369Q395 369 444 380Q418 351 387 316T321 238H188L168 223L300 213Q146 17 146 -40Q146
-65 161 -84Q174 -103 198 -103Q224 -103 242 -88Q259 -73 259 -48Q259 -26 245 -18Q237 -14 212 -14L209 -12L208 -7Q208 29 345 213L467 223L487 238H364Q415 304 455 348T525 417Z" />
<glyph unicode="8" glyph-name="eight" horiz-adv-x="478" d="M508 453Q508 499 469 528Q435 553 384 553Q319 553 270 518Q216 477 216 415Q216 362 275 291Q196 257 163 231Q106 186 106 124Q106 63 157 24Q202 -11 267 -11Q337 -11 389 38Q440 86 440 156Q440
199 419 235Q412 247 369 302Q392 316 415 330T461 359Q508 397 508 453ZM439 446Q439 412 406 369T349 326L348 328L345 333Q330 352 321 364T307 384Q288 415 288 444Q288 477 312 503Q334 528 368 528Q400 528 420 504Q439 481 439 446ZM368 135Q368 90 342
55Q314 18 269 18Q227 18 203 46Q179 73 179 115Q179 204 291 268Q301 272 335 219Q368 166 368 135Z" />
<glyph unicode="9" glyph-name="nine" horiz-adv-x="478" d="M476 301Q476 371 434 415T323 459Q241 459 181 402T121 263Q121 202 155 159Q193 112 252 112Q314 112 346 145Q319 59 232 -13Q144 -85 56 -95L40 -97L36 -111Q47 -110 62 -109T96 -106Q247 -89 361
31Q476 152 476 301ZM406 333Q406 269 372 211Q333 143 274 143Q198 143 198 246Q198 308 231 365Q270 433 327 433Q367 433 388 401Q406 374 406 333Z" />
<glyph unicode=":" glyph-name="colon" horiz-adv-x="249" d="M296 340V351Q296 374 279 389T238 404Q218 404 202 386Q187 368 187 348Q187 328 202 312T236 296Q258 296 278 307Q296 317 296 340ZM199 47Q199 71 182 88Q165 103 141 103Q120 103 105 85T90 46Q90
22 108 7Q127 -7 150 -7Q170 -7 185 10Q199 27 199 47Z" />
<glyph unicode=";" glyph-name="semicolon" horiz-adv-x="249" d="M283 340V352Q283 374 265 389Q248 404 225 404Q204 404 189 386Q175 369 175 348Q175 328 190 312T224 296Q245 296 265 307Q283 317 283 340ZM209 27Q209 62 188 89Q168 116 133 116Q78 116
78 66Q78 51 90 35Q100 20 115 20Q125 20 136 27Q151 37 154 38L158 37Q162 33 164 30Q167 19 167 12Q167 -40 108 -81Q76 -103 4 -132L11 -156Q56 -142 88 -127T143 -95Q209 -46 209 27Z" />
<glyph unicode="&lt;" glyph-name="less" horiz-adv-x="606" d="M554 -8V60L129 253L554 446V514L46 284V222L554 -8Z" />
<glyph unicode="=" glyph-name="equal" horiz-adv-x="499" d="M536 358V403H37V358H536ZM536 183V227H37V183H536Z" />
<glyph unicode="&gt;" glyph-name="greater" horiz-adv-x="606" d="M560 222V284L52 514V446L477 253L52 60V-8L560 222Z" />
<glyph unicode="?" glyph-name="question" horiz-adv-x="416" d="M525 510Q525 576 481 623T372 670Q320 670 262 634Q197 593 197 545Q197 498 242 498Q257 498 271 513Q284 526 284 543Q284 553 266 582V589Q290 640 356 640Q401 640 430 611Q458 583 458 538Q458
503 444 476T399 432Q370 415 340 401T279 370Q207 317 186 212L178 172L185 166Q188 176 192 188T204 217Q226 269 298 296Q422 341 428 345Q501 386 520 474Q525 499 525 510ZM213 51Q213 69 198 86Q184 103 166 103H155Q133 103 118 86Q104 69 104 46Q104 23
122 8Q141 -6 164 -6Q185 -6 199 12Q213 29 213 51Z" />
<glyph unicode="@" glyph-name="at" horiz-adv-x="634" d="M627 418Q563 541 409 571Q381 576 356 576Q225 576 131 468Q37 362 28 213L50 211Q59 346 148 447Q235 547 356 547Q369 547 382 546T409 542Q536 515 594 418Q615 382 615 334Q615 239 545 139Q479
44 429 44Q419 44 408 52Q399 59 399 71Q399 117 564 447H477L452 390Q444 459 380 459Q271 459 169 338Q72 222 72 110Q72 -12 174 -12Q260 -12 329 101Q327 85 326 77T324 70Q324 -6 385 -6Q467 -6 556 101Q648 213 648 326Q648 377 627 418ZM420 369Q420 299
341 171Q257 33 194 33Q151 33 151 80Q151 152 225 283Q306 425 375 425Q394 425 408 407Q420 390 420 369Z" />
<glyph unicode="A" glyph-name="A" horiz-adv-x="624" d="M660 717H603Q569 669 529 617T442 506Q392 445 344 385T246 263Q188 192 137 134T40 28L-36 7L-47 0Q76 3 190 0L201 7L105 28Q141 76 185 131T281 252H454L397 28L302 7L293 0Q452 3 577 0L587 7L505
28Q510 68 519 116T543 222L660 717ZM548 587Q528 525 507 450T462 283H305L548 587Z" />
<glyph unicode="B" glyph-name="B" horiz-adv-x="624" d="M696 578Q696 644 636 679Q586 707 516 707Q500 707 477 707T422 705T367 704T327 703Q326 703 303 704T234 707L225 702L330 676L82 33L-20 7L-31 -1Q3 1 34 2T97 4Q128 4 191 1Q252 -2 284 -2Q410 -2
489 41Q592 96 592 211Q592 273 539 323Q487 372 422 372Q696 403 696 578ZM598 588Q598 496 532 444Q470 396 378 396Q359 396 346 396Q333 396 325 397L421 643Q430 667 446 675Q458 681 487 681Q535 681 567 658Q598 636 598 588ZM494 242Q494 140 413 83Q344
33 236 33Q233 33 219 33Q206 33 183 34L315 372Q494 357 494 242Z" />
<glyph unicode="C" glyph-name="C" horiz-adv-x="624" d="M791 697L782 709L713 666Q666 717 589 717Q424 717 284 574Q145 432 145 264Q145 146 217 67T406 -12Q485 -12 540 23Q566 39 589 64T636 124L622 134Q600 106 579 87T537 54Q488 23 422 23Q256 23 256
213Q256 369 342 513Q441 681 585 681Q687 681 687 595Q687 525 665 481L678 472Q700 528 728 584T791 697Z" />
<glyph unicode="D" glyph-name="D" horiz-adv-x="708" d="M762 449Q762 578 674 647Q594 709 461 709Q450 709 435 709T397 707Q376 706 361 706T334 705H255L221 706L209 699L317 673Q255 497 202 338T100 33L1 6L-10 -2Q18 0 40 1T81 2Q94 2 113 2T159 1Q185
-1 203 -1Q222 -1 235 -1Q293 -1 342 4T432 22Q528 50 603 118Q762 260 762 449ZM655 498Q655 368 587 240Q532 136 460 87Q422 61 375 48T270 34H259Q253 34 245 34Q238 34 228 35Q217 36 209 36T196 37Q242 180 278 286T339 463Q347 487 354 512T370 562Q379
592 388 616T407 658Q418 678 453 678Q553 678 601 639Q655 595 655 498Z" />
<glyph unicode="E" glyph-name="E" horiz-adv-x="624" d="M682 682Q682 703 665 703Q623 703 538 700Q495 699 464 700T411 701Q386 701 341 702T229 708L223 702L324 674L93 32L-6 7L-16 0H548Q553 0 558 5Q574 54 579 84Q593 127 604 159T623 212L606 217Q572
102 476 66Q415 43 270 43H191L307 364Q367 362 385 357Q424 343 424 299Q424 297 424 287T426 257Q427 244 427 234T425 215L438 214Q440 246 448 281T469 355Q474 371 487 404T521 490L508 498Q472 389 349 389Q341 389 333 389T316 391L418 671L558 663Q635
658 635 586V509L649 506Q654 529 658 552T668 598Q675 632 678 652T682 682Z" />
<glyph unicode="F" glyph-name="F" horiz-adv-x="541" d="M740 689Q740 705 728 705Q687 705 608 702Q568 701 539 701T489 700Q420 700 228 709L219 704L324 678L96 28L-1 7L-11 0Q134 3 293 0L304 7L192 28L307 350Q392 347 394 346Q439 335 439 286Q439 286
439 276T441 243Q442 219 439 200L451 197Q500 389 543 473L531 481Q485 375 388 375Q371 375 353 375T315 377L418 670L535 664Q619 659 637 651Q679 633 679 567V490L691 488L718 593Q729 635 734 658T740 689Z" />
<glyph unicode="G" glyph-name="G" horiz-adv-x="708" d="M806 693L796 706L728 663Q693 698 663 708Q637 717 587 717Q484 717 378 644Q276 573 210 467Q141 356 141 256Q141 143 213 65Q285 -12 397 -12Q505 -12 636 84L683 216L769 227L777 243Q652 241 577
240T472 238L465 222L579 212L542 87Q484 23 389 23Q250 23 250 189Q250 346 343 504Q448 681 593 681Q635 681 666 659Q702 633 702 594Q702 531 677 478L691 469Q710 515 738 571T806 693Z" />
<glyph unicode="H" glyph-name="H" horiz-adv-x="708" d="M899 706Q759 703 607 706L597 699L707 678L595 387H315L430 678L522 699L532 706Q361 703 234 706L224 699L329 678L80 28L-11 7L-22 0Q133 3 279 0L290 7L181 28L306 354Q419 351 583 354L458 28L362
7L351 0Q522 3 648 0L659 7L555 28L805 678L889 699L899 706Z" />
<glyph unicode="I" glyph-name="I" horiz-adv-x="333" d="M541 706Q370 703 247 706L237 699L343 678L93 28L1 7L-10 0Q145 3 291 0L301 7L194 28L443 678L531 699L541 706Z" />
<glyph unicode="J" glyph-name="J" horiz-adv-x="375" d="M575 706Q430 703 271 706L260 700L368 678Q304 464 239 277T106 -75Q68 -168 22 -168Q-3 -168 -8 -145Q-6 -138 1 -128Q9 -117 9 -113Q9 -73 -29 -73Q-50 -73 -64 -90Q-77 -106 -77 -129Q-77 -158 -47
-179Q-21 -198 11 -198Q100 -198 184 -67Q216 -19 247 48T309 204Q329 261 346 318T384 432Q413 515 437 575T477 678L564 699L575 706Z" />
<glyph unicode="K" glyph-name="K" horiz-adv-x="708" d="M830 706Q718 703 594 706L585 699L684 678L433 456Q422 446 411 436T388 415Q354 386 339 386H312L423 678L516 699L526 706Q371 703 232 706L222 699L326 678L83 28L-9 7L-19 0Q134 3 278 0L289 7L184
28L304 359Q370 359 407 335T445 263Q445 100 473 -13Q496 -107 530 -154T619 -201Q659 -201 684 -181Q693 -174 727 -128L717 -111Q704 -135 679 -152Q652 -172 626 -172Q578 -172 578 -106Q578 -91 581 -59Q584 -28 584 -12Q584 113 539 214Q487 332 384 374Q407
391 418 399T430 407L747 678L820 699L830 706Z" />
<glyph unicode="L" glyph-name="L" horiz-adv-x="624" d="M651 231L640 237Q564 104 510 71Q457 41 300 41H178L435 678L530 699L539 706Q385 703 232 706L224 699L330 678Q287 549 223 389T72 31L-18 5L-30 -2Q48 2 99 3T176 5Q207 5 252 4T360 0T467 -3T544
-4Q558 -4 566 5Q583 65 604 121T651 231Z" />
<glyph unicode="M" glyph-name="M" horiz-adv-x="873" d="M1071 710Q1007 706 947 705T829 703Q806 661 764 606Q747 583 729 560T693 514L433 172L491 712Q441 708 401 706T330 704L237 705L226 696L340 676L49 28L-44 7L-55 0Q72 3 200 0L212 7L97 28Q123 98
157 179T233 355Q269 436 305 516T379 678H388L340 15H358Q408 85 469 168T604 348Q667 431 730 512T857 676L866 677Q760 409 694 248T602 28L515 7L505 0Q649 3 799 0L811 7L706 28L966 677L1060 704L1071 710Z" />
<glyph unicode="N" glyph-name="N" horiz-adv-x="708" d="M911 706Q789 703 665 706L655 699L772 678Q759 643 750 617T734 573Q680 441 638 344T567 180Q513 347 473 475T404 698Q364 700 318 702T216 708L206 700Q233 698 263 687Q300 673 314 656Q315 652 315
649T317 642L79 29L-11 8L-23 0Q99 3 227 0L237 7L122 28Q193 216 246 354T335 587Q370 475 400 382T454 211T493 82T513 0H540Q589 145 672 341Q708 426 744 509T816 678L901 699L911 706Z" />
<glyph unicode="O" glyph-name="O" horiz-adv-x="686" d="M766 477Q766 564 720 635Q668 717 585 717Q412 717 274 567Q138 419 138 246Q138 141 193 68Q253 -12 355 -12Q448 -12 552 68Q643 138 696 230Q766 351 766 477ZM669 556Q669 427 593 254Q507 58 404
28Q380 21 354 21Q296 21 268 55Q239 90 239 147Q239 237 278 360Q321 497 388 585Q467 690 556 690Q612 690 642 650Q669 614 669 556Z" />
<glyph unicode="P" glyph-name="P" horiz-adv-x="562" d="M695 546Q695 630 637 672Q586 708 498 708Q466 708 402 705Q370 704 347 704T307 703Q300 703 290 703Q281 703 268 705Q255 705 246 705T231 706L220 701L326 673L166 232Q134 144 115 93T90 28L-3 7L-15
0Q166 4 301 0L310 7L193 28L303 336Q373 314 419 314Q528 314 608 374Q695 440 695 546ZM592 557Q592 470 530 408Q469 347 381 347Q359 347 310 359L425 677H434Q511 677 547 656Q592 629 592 557Z" />
<glyph unicode="Q" glyph-name="Q" horiz-adv-x="686" d="M766 477Q766 564 720 635Q668 717 585 717Q412 717 274 567Q138 419 138 246Q138 141 193 68Q253 -12 355 -12Q368 -12 379 -11T401 -8Q401 -72 435 -133Q476 -204 534 -204Q564 -204 581 -188Q591 -181
613 -150L601 -135Q594 -147 576 -162Q557 -178 542 -178Q520 -178 506 -134Q496 -103 496 -71Q496 -39 496 -14T494 28Q612 95 688 218Q766 345 766 477ZM246 226L339 193Q395 164 407 119Q410 108 410 96Q410 86 405 61Q401 41 401 27Q377 21 353 21Q297 21 268
56T239 147Q239 164 240 183T246 226ZM669 556Q669 457 613 307T491 85V87Q486 109 462 137T392 192Q355 214 320 224T249 244Q279 408 355 536Q446 690 556 690Q612 690 642 650Q669 614 669 556Z" />
<glyph unicode="R" glyph-name="R" horiz-adv-x="666" d="M707 -128L697 -111Q684 -135 659 -152Q632 -172 606 -172Q558 -172 558 -106Q558 -91 561 -59Q564 -28 564 -12Q564 300 403 375Q502 378 583 424Q679 479 679 572Q679 639 627 675Q583 706 511 706Q511
706 475 706T364 704Q319 703 283 703T217 706L208 699L319 675L233 427L138 450L131 440L224 402Q164 231 131 138T91 28L1 7L-7 0Q129 3 278 0L286 7L189 28L312 384Q435 360 435 273Q435 86 453 -8Q490 -201 599 -201Q639 -201 664 -181Q673 -174 707 -128ZM577
587Q577 513 521 454Q465 397 392 397Q350 397 320 408L397 622Q409 656 416 663Q428 675 460 675Q509 675 540 656Q577 632 577 587Z" />
<glyph unicode="S" glyph-name="S" horiz-adv-x="582" d="M655 675L646 686L609 649Q562 689 539 700Q503 717 456 717Q370 717 315 653Q260 591 260 504Q260 426 318 361Q318 361 345 337T427 263Q485 211 485 166Q485 108 443 65T344 22Q274 22 228 71Q181 121
175 190Q174 196 174 215Q174 235 174 269L161 272Q153 221 134 153L101 36L111 28L153 78Q177 54 198 38T239 11Q287 -12 346 -12Q441 -12 507 57T573 221Q573 301 511 360Q482 382 453 403T395 447Q333 496 333 559Q333 612 369 650Q405 687 458 687Q527 687
560 630Q586 584 586 511Q586 506 586 499T584 482Q583 471 583 464T582 453L597 449Q599 495 616 563Q634 632 655 675Z" />
<glyph unicode="T" glyph-name="T" horiz-adv-x="666" d="M876 693Q876 707 857 707Q813 707 728 704Q642 701 599 701Q438 701 284 710Q283 710 268 707L266 705Q258 678 253 657T246 622Q238 587 229 555T209 492H223Q256 581 289 617Q321 652 377 661Q410 665
523 667Q494 586 466 507T408 346Q340 158 285 28L180 7L170 0Q335 3 500 0L510 7L389 28Q482 279 538 438T618 667Q636 667 654 667Q673 667 693 666Q754 665 770 658Q807 645 807 599Q807 533 796 491H810Q813 503 846 599Q876 690 876 693Z" />
<glyph unicode="U" glyph-name="U" horiz-adv-x="728" d="M934 706Q799 703 675 706L663 699L780 678Q758 583 730 486T664 286Q621 168 573 111Q504 28 403 28Q345 28 308 49Q261 75 261 129Q261 179 346 398Q385 500 415 570T466 678L559 699L569 706Q398 703
256 706L246 699L351 678Q327 618 302 559T254 438Q211 329 191 259T171 159Q171 79 241 31Q302 -11 387 -11Q533 -11 618 110Q643 145 670 207T727 360L827 678L923 699L934 706Z" />
<glyph unicode="V" glyph-name="V" horiz-adv-x="666" d="M915 706Q782 703 647 706L636 699L761 678Q717 614 665 544T550 395Q524 363 468 295T325 123L459 678L556 699L568 706Q450 703 255 706L243 699L349 678Q310 367 199 -12H243Q317 73 390 157T537 326Q620
423 688 510T814 678L904 699L915 706Z" />
<glyph unicode="W" glyph-name="W" horiz-adv-x="935" d="M1179 706Q1057 703 923 706L912 699L1020 678Q975 619 923 553T811 412Q794 391 741 326T596 149Q633 292 659 391T703 551Q720 609 729 640T741 678L831 699L843 706Q701 703 563 706L552 699L645 678L614
548L285 145Q367 482 426 678L506 699L517 706Q382 703 243 706L231 699L323 678Q283 481 240 310T151 -12H189L592 468Q578 407 564 347T534 227Q517 156 500 97T467 -12H499L1080 678L1167 699L1179 706Z" />
<glyph unicode="X" glyph-name="X" horiz-adv-x="748" d="M875 706Q745 703 616 706L607 699L723 678Q641 593 582 534T485 437Q456 522 437 582T409 679L512 699L523 706Q368 703 221 706L209 699L302 678L406 368L57 28L-34 7L-44 0Q93 3 233 0L242 7L121 28Q152
63 188 102T266 183Q288 205 325 241T417 332Q460 200 484 125T515 28L406 6L397 0Q572 3 705 0L715 7L621 28L497 404L781 678L866 699L875 706Z" />
<glyph unicode="Y" glyph-name="Y" horiz-adv-x="624" d="M867 706Q743 703 605 706L595 699L712 678Q660 602 608 538T501 420Q477 470 456 547Q451 566 444 598T425 678L526 699L536 706Q453 703 230 706L221 699L310 678Q384 481 415 383Q374 268 341 180T279
28L175 7L165 0Q317 3 500 0L510 7L395 28Q402 62 415 108T449 213Q466 258 482 302T516 392L773 678L856 699L867 706Z" />
<glyph unicode="Z" glyph-name="Z" horiz-adv-x="728" d="M830 697L820 717Q785 712 718 709T551 706H469L395 707Q387 707 379 707T362 709Q354 710 349 710T341 711Q327 711 320 702Q313 691 306 665Q300 643 295 622T283 580Q269 529 253 497L267 492Q268 497
270 501T275 512Q318 600 366 631Q416 664 510 668Q541 670 582 671T677 673Q481 449 338 283T104 11L117 -10Q159 -3 222 0T370 4Q552 4 656 -2Q668 -2 672 2Q674 4 678 13T687 38Q690 49 692 60T699 82Q712 123 724 154T749 210L734 215Q681 94 594 61Q537 40
376 40Q373 40 340 40T242 42L616 468Q729 597 759 626Q784 650 801 668T830 697Z" />
<glyph unicode="[" glyph-name="bracketleft" horiz-adv-x="375" d="M595 734Q524 735 472 735T384 735L20 -205Q72 -202 255 -205L267 -198L120 -178Q134 -137 151 -90T190 14Q301 299 368 471T461 707L584 727L595 734Z" />
<glyph unicode="]" glyph-name="bracketright" horiz-adv-x="375" d="M478 734Q399 735 340 735Q282 735 243 735L231 727L378 707Q365 667 348 620T308 515Q274 428 241 342T175 168Q136 65 101 -21T37 -177L-90 -192L-101 -205Q42 -202 114 -205L478 734Z" />
<glyph unicode="^" glyph-name="asciicircum" horiz-adv-x="511" d="M498 774L388 947L136 780L147 768L358 865L481 768L498 774Z" />
<glyph unicode="`" glyph-name="grave" horiz-adv-x="271" d="M240 530L197 646Q193 656 190 666T183 685Q172 709 153 709Q112 709 112 682Q112 660 164 592Q178 573 193 555T223 518L240 530Z" />
<glyph unicode="a" glyph-name="a" horiz-adv-x="537" d="M564 447H477L452 390Q444 459 380 459Q271 459 169 338Q72 222 72 110Q72 -12 174 -12Q260 -12 329 101Q327 85 326 77T324 70Q324 -6 385 -6Q458 -6 531 97L524 111Q510 93 481 70Q447 44 429 44Q419
44 408 52Q399 59 399 71Q399 117 564 447ZM420 369Q420 299 341 171Q257 33 194 33Q151 33 151 80Q151 152 225 283Q306 425 375 425Q394 425 408 407Q420 390 420 369Z" />
<glyph unicode="b" glyph-name="b" horiz-adv-x="499" d="M514 358Q514 408 465 430Q426 447 374 447Q374 447 349 447T271 445Q240 444 215 444T168 447L160 444L236 420L84 28L11 4L1 -1Q40 1 58 2T75 3Q88 3 108 3T154 1T199 0T232 -1Q311 -1 371 23Q454 56
454 124Q454 201 350 234Q514 264 514 358ZM427 365Q427 308 384 278Q347 251 289 253L260 254Q284 318 299 357T322 412Q327 423 342 423Q427 423 427 365ZM364 149Q364 86 312 55Q268 29 204 29H172L251 230Q308 219 326 211Q364 193 364 149Z" />
<glyph unicode="c" glyph-name="c" horiz-adv-x="478" d="M576 500L569 512L488 430Q453 459 381 459Q270 459 177 375Q80 288 80 179Q80 89 143 37Q201 -12 294 -12Q345 -12 388 13Q432 39 457 81L442 88Q372 15 300 15Q176 15 176 158Q176 252 234 337Q299 432
387 432Q414 432 437 419Q463 404 463 378Q463 342 445 305L458 296Q505 401 576 500Z" />
<glyph unicode="d" glyph-name="d" horiz-adv-x="562" d="M565 268Q565 363 495 409Q436 448 336 448Q329 448 307 448Q285 448 247 447Q191 445 157 447L146 442L223 419Q178 288 146 191T93 28L23 3L13 -2Q28 0 45 1T82 2Q89 2 109 2Q129 2 163 0Q214 -1 245
0Q364 7 459 76Q565 152 565 268ZM470 307Q470 193 406 114Q338 30 227 30Q225 30 213 30Q201 30 179 31L302 399Q306 411 310 419Q314 420 316 420T318 421Q389 421 424 400Q470 373 470 307Z" />
<glyph unicode="e" glyph-name="e" horiz-adv-x="405" d="M462 375Q462 410 438 430Q414 449 379 449Q306 449 231 387Q168 336 124 263Q92 268 69 273T31 282L25 269Q51 255 113 241Q80 179 80 124Q80 64 114 26Q149 -12 206 -12Q254 -12 305 27Q329 45 347 65T376
108L368 119Q347 89 309 61Q265 29 233 29Q158 29 158 117Q158 164 200 224Q236 224 259 225T294 229Q357 242 404 277Q462 319 462 375ZM391 372Q391 319 338 283Q290 250 236 250H216V251Q216 272 269 343Q324 418 353 418Q391 418 391 372Z" />
<glyph unicode="f" glyph-name="f" horiz-adv-x="243" d="M513 652Q513 686 491 708Q470 729 436 729Q409 729 370 712Q293 677 244 601Q218 562 171 448H87L76 431L161 421L46 98Q27 44 3 -9T-51 -116Q-139 -276 -202 -276Q-208 -276 -211 -274Q-216 -274 -219
-242Q-222 -215 -250 -215Q-286 -215 -286 -256Q-286 -276 -266 -290Q-247 -303 -227 -303Q-113 -303 -5 -153Q35 -96 75 -19T154 158Q179 224 202 289T248 421L351 431L362 448H258Q283 510 299 547T323 598Q380 702 433 702Q447 702 459 693Q470 685 470 672Q470
672 468 666L462 662Q425 658 425 627Q425 617 436 608Q446 599 457 599Q480 599 497 614Q513 627 513 652Z" />
<glyph unicode="g" glyph-name="g" horiz-adv-x="541" d="M603 476L597 487L527 428Q489 459 431 459Q318 459 215 374Q107 284 107 175Q107 94 166 41T305 -12Q340 -12 381 -1L330 -118Q304 -175 279 -175Q268 -175 264 -165V-162Q264 -157 268 -149Q272 -142
272 -135Q272 -109 243 -109Q202 -109 202 -147Q202 -172 223 -187Q241 -199 267 -199Q328 -199 402 -103Q430 -66 452 -28T489 50L517 130L579 141L586 155Q428 154 348 152L342 138L425 128L405 54Q365 14 309 14Q204 14 204 139Q204 238 266 330Q334 431 427
431Q457 431 476 418Q500 403 500 376Q500 338 479 304L496 294Q519 348 546 393T603 476Z" />
<glyph unicode="h" glyph-name="h" horiz-adv-x="582" d="M661 446H434L425 441L504 421L438 249H253L321 421L387 441L397 446H166L157 441L232 421L79 26L15 5L5 0H238L248 5L169 26L243 217H427L353 26L283 5L274 0H504L514 5L440 26L592 421L651 441L661 446Z" />
<glyph unicode="i" glyph-name="i" horiz-adv-x="311" d="M402 446H175L166 441L242 421L89 26L23 5L13 0H244L254 5L178 26L330 421L392 441L402 446Z" />
<glyph unicode="j" glyph-name="j" horiz-adv-x="353" d="M440 446H207L196 442L274 421Q251 346 233 291T201 198Q159 76 130 -6T81 -132Q61 -173 37 -173Q26 -173 22 -163V-160Q22 -155 26 -147Q30 -140 30 -133Q30 -107 2 -107Q-40 -107 -40 -146Q-40 -172
-19 -185Q-1 -197 25 -197Q30 -197 35 -197Q41 -197 48 -196Q123 -190 189 -59Q209 -17 267 140Q301 234 326 303T368 421L430 441L440 446Z" />
<glyph unicode="k" glyph-name="k" horiz-adv-x="541" d="M614 446H428L419 441L493 421Q467 399 442 378T391 335Q290 253 263 253L257 254L397 625L464 645L474 650H246L237 645L312 625L85 26L21 5L10 0H241L251 5L175 26L246 223Q266 225 276 226T289 227Q307
227 318 206Q327 189 327 169Q327 148 324 108Q321 64 321 46Q320 -17 355 -82Q395 -154 454 -154Q483 -154 501 -139Q506 -135 514 -126T533 -100L521 -95Q513 -109 495 -118Q478 -128 462 -128Q440 -128 426 -84Q416 -51 416 -21Q416 104 408 138Q387 226 302
241Q325 246 425 323Q457 347 487 371T550 421L605 441L614 446Z" />
<glyph unicode="l" glyph-name="l" horiz-adv-x="478" d="M488 151L480 157Q457 119 438 95T404 60Q368 36 285 36H169L411 625L477 645L486 650H251L244 645L320 625Q304 578 284 528Q196 309 145 185T78 27L14 3L2 -2Q68 0 118 1T202 3Q236 3 307 0Q342 -1 368
-1T411 -2Q429 -2 431 6Q456 72 470 108T488 151Z" />
<glyph unicode="m" glyph-name="m" horiz-adv-x="816" d="M823 389Q823 420 800 440Q778 459 746 459Q702 459 651 417Q630 400 613 380T580 337Q586 367 586 384Q586 415 566 438Q546 459 514 459Q432 459 338 327Q350 354 350 390Q350 453 294 453Q250 453 199
406Q176 386 160 365T132 321L140 315Q150 329 162 343T192 371Q230 403 261 403Q282 403 282 384Q282 364 259 312T185 175Q159 130 133 87T80 0H173Q374 413 486 413Q518 413 518 379Q518 355 481 288L321 0H411Q598 408 717 408Q744 408 744 375Q744 359 726
320T670 220Q657 200 644 180T617 140Q585 89 585 49Q585 -6 644 -6Q695 -6 738 25Q768 47 809 97L802 106Q775 83 749 62Q716 36 686 36Q664 36 664 56Q664 80 744 210Q823 339 823 389Z" />
<glyph unicode="n" glyph-name="n" horiz-adv-x="562" d="M640 446H456L445 441L529 421Q519 391 506 355T473 277Q457 242 442 206T411 135Q369 231 338 307T283 442Q163 447 143 448L133 445Q197 440 213 397L68 26L3 5L-7 0H180L191 5L108 25Q148 134 178 214T231
348L306 177Q329 126 344 82T371 0H397Q413 45 433 98T480 212Q503 265 525 316T570 421L630 441L640 446Z" />
<glyph unicode="o" glyph-name="o" horiz-adv-x="541" d="M559 288Q559 358 519 407Q477 459 409 459Q290 459 199 372Q104 283 104 166Q104 89 150 39Q195 -12 271 -12Q380 -12 470 84Q559 179 559 288ZM469 351Q469 248 420 143Q360 13 273 13Q194 13 194 112Q194
205 245 312Q305 436 389 436Q469 436 469 351Z" />
<glyph unicode="p" glyph-name="p" horiz-adv-x="435" d="M515 331Q515 390 471 420Q432 447 371 447Q371 447 344 447Q317 447 262 445Q230 444 203 444T154 447L144 443L220 419L162 251Q138 261 120 268T89 283L79 274Q99 260 117 248T153 228Q136 177 119
128T85 27Q65 -33 47 -82T11 -172L-55 -193L-66 -198Q97 -197 180 -198L189 -192L101 -172L230 206Q261 201 280 198T309 195Q346 195 378 203T441 226Q515 264 515 331ZM424 346Q424 290 385 257Q347 224 290 224Q286 224 274 225T238 229L305 420H331Q424 420
424 346Z" />
<glyph unicode="q" glyph-name="q" horiz-adv-x="541" d="M615 -116L603 -109Q600 -125 586 -141Q580 -147 557 -165Q552 -166 550 -166T545 -167Q538 -167 529 -161T511 -144T493 -121T476 -96Q464 -77 459 -62T452 -30T447 6T435 53Q559 156 559 288Q559 358
519 407Q477 459 409 459Q291 459 197 371Q104 282 104 166Q104 89 150 39Q196 -12 271 -12Q316 -12 354 4Q418 -197 528 -197Q568 -197 588 -174Q596 -166 602 -151T615 -116ZM469 351Q469 234 398 103Q363 134 301 140Q275 140 248 140Q221 140 195 141Q202 192
215 238T252 327Q310 436 396 436Q431 436 450 411Q469 384 469 351ZM345 37Q313 13 277 13Q194 13 194 113V127Q214 125 234 124T274 120Q305 117 319 100T345 37Z" />
<glyph unicode="r" glyph-name="r" horiz-adv-x="499" d="M533 -150L531 -135Q525 -147 500 -163Q477 -178 462 -178Q440 -178 426 -134Q416 -103 416 -71V-27Q416 -11 416 1T417 21Q417 191 329 234Q500 259 500 352Q500 446 373 446H158L149 441L229 420L181
278L130 291L123 283L173 255L93 26L28 5L20 0H240L247 5L178 26L250 237Q271 231 284 226T303 217Q327 202 327 169Q327 147 324 107Q321 66 321 46Q321 -26 354 -105Q394 -204 454 -204Q481 -204 501 -189Q513 -179 533 -150ZM417 362Q417 318 382 286Q348 255
301 255Q293 255 283 256T258 260Q265 283 271 305T286 351Q311 423 329 423Q417 423 417 362Z" />
<glyph unicode="s" glyph-name="s" horiz-adv-x="437" d="M447 440L439 442L416 420Q397 431 384 438T363 449Q339 459 303 459Q245 459 204 421Q164 384 164 324Q164 267 208 226Q228 211 249 196T292 165Q335 134 335 98Q335 66 309 40Q283 16 250 16Q205 16
165 49Q127 80 125 126Q124 143 124 154Q124 165 123 170L110 173Q101 79 55 -53L62 -61L111 38Q131 24 148 14T181 -2Q210 -12 258 -12Q314 -12 362 36T410 140Q410 191 362 229Q339 243 317 257T272 286Q224 319 224 362Q224 393 249 412Q274 432 304 432Q394
432 394 316Q394 306 394 299Q394 292 393 287L405 283Q420 375 447 440Z" />
<glyph unicode="t" glyph-name="t" horiz-adv-x="413" d="M491 448H150Q115 349 102 298L112 296L176 421H277Q260 380 248 350T227 300Q213 270 200 241T172 182Q128 85 128 61Q128 36 149 15T195 -6Q240 -6 284 27Q306 45 353 96L346 104Q333 93 321 83T295
62Q278 48 263 42T235 36Q207 36 207 60Q207 75 281 238L365 421H447L420 274L434 272Q460 353 474 397T491 448Z" />
<glyph unicode="u" glyph-name="u" horiz-adv-x="582" d="M677 446H484L472 441L556 421Q546 382 538 343T518 265Q504 211 487 171T451 102Q401 28 329 23L313 22Q282 21 253 35Q219 51 219 83Q219 117 267 245Q290 304 309 348T344 421L409 441L420 446H181L172
441L247 421Q232 383 217 347T186 272Q161 210 150 169T138 108Q138 50 195 19Q242 -7 303 -7Q399 -7 453 51Q473 73 492 109T528 196Q553 271 570 327T599 421L666 441L677 446Z" />
<glyph unicode="v" glyph-name="v" horiz-adv-x="541" d="M634 446H431L421 441L509 421Q466 362 400 284T243 105L313 421L381 441L392 446Q233 448 153 446L141 441L218 421Q203 242 140 -8H174Q312 140 407 246T557 421L622 441L634 446Z" />
<glyph unicode="w" glyph-name="w" horiz-adv-x="721" d="M878 425Q803 384 782 385Q788 452 747 452Q731 452 719 433Q708 414 708 398Q708 373 723 366Q726 365 729 364T736 362Q743 361 743 355Q743 268 659 147Q570 18 495 18Q469 18 453 33Q436 47 436 71Q436
130 613 448H521Q342 22 247 22Q185 22 185 89Q185 148 244 264Q302 379 349 406L375 421L367 447Q338 445 319 444T289 443Q212 443 155 468Q143 383 104 305L109 297L186 401Q191 400 196 400Q201 400 206 400Q235 400 330 424Q243 371 181 296Q105 205 105 120Q105
66 141 27Q176 -11 229 -11Q271 -11 305 11Q326 24 365 65Q371 29 411 7Q445 -13 485 -13Q592 -13 683 126Q761 245 779 365Q822 372 878 425Z" />
<glyph unicode="x" glyph-name="x" horiz-adv-x="541" d="M611 -188Q611 -188 593 -161T546 -93T483 0T417 101T360 192T326 255L514 421L578 441L587 446H390L380 441L461 421L314 284Q294 330 279 364T255 421L325 441L336 446H103L92 441L160 421L246 228L17
26L-50 5L-61 0H150L159 5L76 25Q136 84 181 127T258 199Q271 175 288 141T320 76T347 23T358 1L455 2L600 -198L611 -188Z" />
<glyph unicode="y" glyph-name="y" horiz-adv-x="494" d="M565 446H480Q336 27 188 27Q171 27 161 40Q150 53 150 69Q150 95 218 223Q286 350 286 394Q286 421 267 436Q247 451 220 451Q137 451 82 352L89 346Q127 402 177 402Q202 402 202 380Q202 344 139 235Q76
125 76 86Q76 44 100 16Q122 -12 164 -12Q207 -12 256 19Q302 48 330 85Q258 -52 225 -89Q153 -171 46 -171Q-12 -171 -20 -142Q-14 -133 10 -121Q29 -112 29 -92Q29 -76 17 -64Q6 -53 -11 -53Q-37 -53 -55 -73T-73 -119Q-73 -158 -33 -180Q-2 -198 42 -198Q180
-198 291 -81Q334 -36 375 28T455 178Q484 244 510 311T565 446Z" />
<glyph unicode="z" glyph-name="z" horiz-adv-x="499" d="M553 438L541 454Q501 450 473 449T427 447H237Q186 447 190 448Q179 446 176 440Q173 435 168 421T155 380Q140 330 129 310H142Q174 377 214 399Q245 417 305 417Q310 417 323 417Q337 417 357 416Q376
415 391 415Q406 415 419 415L253 238H163L139 229L226 209Q163 143 118 94T43 10L55 -7Q105 3 238 3Q258 3 307 2T437 -1Q449 -1 460 8Q463 16 468 32T482 73Q489 93 495 109T507 138L489 143Q460 75 417 53Q381 36 300 36H164L328 209L458 229L482 238H355Q419
307 468 356T553 438Z" />
<glyph unicode="~" glyph-name="asciitilde" horiz-adv-x="545" d="M529 742L514 745Q476 716 438 716Q413 716 370 745T303 774Q245 774 165 685L179 679Q219 712 249 712Q276 712 322 681T394 650Q442 650 529 742Z" />
</font>
</defs>
</svg>
