<?xml version="1.0" standalone="no"?> <!DOCTYPE svg PUBLIC "-//W3C//DTD SVG 1.0//EN" "http://www.w3.org/TR/2001/REC-SVG-20010904/DTD/svg10.dtd" > <svg xmlns="http://www.w3.org/2000/svg" width="100%" height="100%">
<defs >
<font horiz-adv-x="353" ><font-face
    font-family="ParmaPetit"
    units-per-em="1000"
    panose-1="2 0 6 6 9 0 0 9 0 4"
    ascent="605"
    descent="-245"
    alphabetic="0" />
<missing-glyph horiz-adv-x="500" />
<glyph unicode=" " glyph-name="space" horiz-adv-x="299" />
<glyph unicode="!" glyph-name="exclam" horiz-adv-x="216" d="M279 544L266 561Q257 557 245 552T220 543T194 535T171 530L118 164L124 163Q154 261 192 357T279 544ZM125 38Q125 57 112 70T80 83Q62 83 49 70T35 38Q35 19 48 6T80 -7Q99 -7 112 6T125 38Z" />
<glyph unicode="&quot;" glyph-name="quotedbl" horiz-adv-x="316" d="M472 517Q472 530 470 543T460 568T441 586T409 593Q389 593 374 583T358 552Q358 539 368 526T392 513Q403 513 408 519T423 525Q431 525 433 521T436 510Q436 485 423 465T389 429T345 403T300
387L306 367Q332 370 361 383T415 416T456 461T472 517ZM315 518Q315 547 299 569T250 592Q223 592 211 580T199 552Q199 537 209 525T237 512Q245 512 249 514T256 520T261 525T268 528Q276 528 278 523T280 510Q280 487 266 466T232 429T188 401T144 386L150
367Q177 371 206 383T259 416T299 462T315 518Z" />
<glyph unicode="#" glyph-name="numbersign" horiz-adv-x="680" d="M677 395Q618 393 569 392T476 389Q490 417 502 441T525 489T548 536T573 588H544Q518 528 499 482T458 388Q444 386 429 385T401 381Q415 378 427 377T453 376Q450 367 448 360T444 347T439
332T433 313Q453 345 467 374Q510 372 536 371T583 370T621 369Q639 369 665 368L677 395ZM403 588H375Q362 560 352 536T331 489T311 442T288 389Q246 391 198 392T92 395L80 368Q106 369 124 369Q143 369 163 369T211 371T283 374Q277 360 274 347T263 314Q270
325 274 332T282 346T289 360T298 376Q312 376 325 377T355 381Q344 383 331 384T305 388Q327 435 350 481T403 588ZM597 221Q570 220 552 220T513 219T466 217T394 215Q399 229 405 244T416 276Q409 265 405 257T396 242T387 229T378 213Q364 213 351 212T322
208Q333 206 346 205T372 201Q349 154 326 108T274 1H302Q314 29 324 53T345 100T366 147T389 200Q431 198 479 197T584 193L597 221ZM278 208Q264 210 252 211T226 213Q229 222 231 228T235 242T240 257T246 276Q226 244 212 215Q169 216 143 217T96 218T58 219T14
221L2 193Q61 196 110 197T203 200Q189 172 177 148T154 100T132 53T107 1H135Q160 61 180 107T221 201Q235 203 250 204T278 208Z" />
<glyph unicode="$" glyph-name="dollar" horiz-adv-x="486" d="M464 454Q464 475 457 492T438 523T411 546T379 560L409 630H379L351 565Q310 568 279 562T223 544T182 513T155 472Q143 446 141 416T146 357T174 301T226 255L135 30Q128 31 115 36T90 50T68 67T58
84Q58 88 62 92T70 101T79 116T84 140Q85 154 74 162T49 170Q30 170 21 156T9 124Q8 110 14 93T35 58T71 26T123 3L94 -70H123L151 -3Q189 -3 229 4T304 33T362 90T389 184Q390 210 382 231T359 271T326 305T288 336L371 536Q377 534 384 529T398 517T409 501T413
482Q412 472 403 463T393 443Q393 432 401 421T422 410Q437 410 450 420T464 454ZM343 542L264 351Q227 373 214 401T206 458Q213 497 247 521T343 542ZM321 146Q319 113 303 89T263 50T212 29T160 24L248 238Q261 232 274 223T298 201T315 175T321 146Z" />
<glyph unicode="%" glyph-name="percent" horiz-adv-x="756" d="M765 263Q765 284 760 304T744 339T716 363T675 373Q635 373 600 348T538 285T496 204T480 124Q480 98 485 75T503 33T535 4T584 -7Q611 -7 635 6T679 43T715 94T742 153T759 212T765 263ZM742 272Q742
253 737 227T721 172T696 116T663 66T624 30T580 16Q566 16 558 22T546 38T540 59T538 81Q538 104 543 131T558 184T579 234T604 278Q611 287 620 299T640 321T663 339T689 347Q703 347 713 340T729 322T739 297T742 272ZM650 549H618L249 0H283L650 549ZM418 439Q420
488 401 521T335 555Q288 555 251 529T188 465T147 382T133 299Q133 275 139 253T158 214T190 186T235 175Q271 175 304 200T361 265T401 350T418 439ZM395 449Q395 420 382 378T347 295T296 226T232 197Q220 197 212 203T199 218T192 238T190 259Q190 285 202
330T234 419T281 495T341 527Q357 527 367 520T384 501T392 476T395 449Z" />
<glyph unicode="&amp;" glyph-name="ampersand" horiz-adv-x="594" d="M600 241Q600 258 590 274T560 290Q524 290 524 259Q524 245 532 240T555 233Q559 233 562 235T568 239Q571 226 568 217Q563 200 542 195T495 190Q478 190 449 193T392 196T344 184T323 146Q323
130 334 121T360 111Q367 111 377 115T388 134Q388 147 376 149Q378 154 378 155T382 161Q396 153 406 141T417 112Q417 91 408 75T385 48T352 31T315 25Q254 25 213 56T162 137Q149 202 173 255T257 335Q269 314 289 297T335 280Q353 280 370 290T387 320Q387
335 379 344T360 358T335 366T310 368H298V398Q298 422 305 453T335 507Q352 525 379 538T444 552Q456 552 471 548T500 535T523 514T533 487Q533 482 530 475T520 468Q515 469 514 471T510 475T505 479T493 481Q482 481 476 472T469 452Q469 437 481 430T507 422Q530
422 545 436T561 481Q561 505 548 522T514 552T470 570T428 576Q396 576 359 567T296 537Q252 503 244 456T247 356Q151 321 113 264T87 128Q97 67 148 29T284 -10Q321 -10 351 -1T402 25T434 63T445 108Q445 128 435 144T403 171Q428 177 456 173T510 169Q527
169 543 173T572 185T592 207T600 241ZM359 320Q359 312 352 307T337 301Q330 301 323 305T309 316T300 330T296 345Q296 347 302 348T312 349Q318 349 326 348T342 343T354 334T359 320Z" />
<glyph unicode="&apos;" glyph-name="quotesingle" horiz-adv-x="158" d="M343 573L336 593L317 588L297 581Q284 576 275 571Q247 558 229 544T199 515Q168 477 171 434Q172 420 176 410T186 391Q196 380 208 374T233 367Q252 367 264 373Q280 388 280 405Q281
417 276 426T263 441T249 446Q247 448 244 446L237 444L230 440L223 433L220 432L217 431Q215 431 213 432L211 435L208 438Q208 440 208 442T207 449Q206 480 235 513T330 569Q332 570 335 570T342 573H343Z" />
<glyph unicode="(" glyph-name="parenleft" horiz-adv-x="313" d="M444 591L438 613Q359 587 283 544T146 442T48 306T11 139Q11 88 20 46T49 -32T95 -103T159 -171L176 -154Q128 -107 104 -44T80 86Q80 172 107 251T182 397T297 513T444 591Z" />
<glyph unicode=")" glyph-name="parenright" horiz-adv-x="346" d="M298 303Q298 354 289 396T261 474T215 544T151 613L134 596Q182 549 206 486T230 356Q230 270 203 191T128 45T13 -71T-134 -149L-128 -171Q-49 -145 27 -102T164 0T261 135T298 303Z" />
<glyph unicode="*" glyph-name="asterisk" horiz-adv-x="449" d="M405 564L381 588Q362 566 352 554T336 533T326 520T316 507T298 486T267 449Q290 469 302 480T323 498T336 509T349 519T369 535T405 564ZM452 419V453Q423 450 407 449T381 446T365 443T348 441T320
439T273 436Q303 434 320 433T347 430T364 428T380 426T406 423T452 419ZM269 631H236Q238 602 240 586T243 561T245 545T247 528T249 500T252 452Q254 482 255 499T258 527T260 543T262 560T265 586T269 631ZM405 307Q382 326 370 336T350 352T337 362T323 372T303
390T267 422Q287 399 298 386T315 365T326 352T336 339T352 319T381 284L405 307ZM237 449Q217 472 206 485T189 507T178 520T168 533T152 553T123 588L99 564Q121 545 134 535T154 520T167 510T181 499T201 481T237 449ZM269 239Q266 268 265 284T262 310T260
326T258 343T256 370T252 418Q250 387 249 370T247 343T245 327T243 310T240 284T236 239H269ZM232 436Q201 438 184 439T157 441T141 443T124 445T98 448T53 453V419Q82 421 98 423T124 426T140 428T157 430T184 432T232 436ZM239 422Q216 401 204 390T183 373T170
362T157 352T136 336T101 307L125 284Q143 306 153 318T170 339T180 352T190 365T208 386T239 422Z" />
<glyph unicode="+" glyph-name="plus" horiz-adv-x="680" d="M615 269V324Q579 320 556 317T506 310T443 304T345 295Q406 292 455 288T540 279T595 272T615 269ZM346 588H290Q290 588 293 569T301 514T309 429T316 318Q321 379 324 415T331 478T338 528T346 588ZM291
295Q230 300 194 303T131 310T81 316T21 324V269Q21 269 40 272T95 279T180 287T291 295ZM346 -5Q342 31 339 54T332 104T325 167T316 265Q313 204 309 155T301 70T294 15T290 -5H346Z" />
<glyph unicode="," glyph-name="comma" horiz-adv-x="197" d="M166 23Q166 36 163 49T152 74T132 92T102 99Q82 99 67 90T51 58Q51 45 61 32T85 19Q96 19 101 25T117 31Q124 31 125 27T127 16Q127 -9 113 -31T78 -72T35 -105T-1 -127Q25 -123 54 -110T108 -78T149
-32T166 23Z" />
<glyph unicode="-" glyph-name="hyphen" horiz-adv-x="260" d="M234 225H26L4 167H211L234 225Z" />
<glyph unicode="." glyph-name="period" horiz-adv-x="157" d="M118 36Q118 56 105 69T73 82Q53 82 40 69T27 36Q27 17 40 4T73 -10Q92 -10 105 3T118 36Z" />
<glyph unicode="/" glyph-name="slash" horiz-adv-x="270" d="M440 637H373L-98 -74L-30 -73L440 637Z" />
<glyph unicode="0" glyph-name="zero" horiz-adv-x="492" d="M446 395Q449 432 440 462T414 514T372 546T322 559Q281 560 236 538T143 464Q133 453 124 442T107 420Q62 358 41 289T24 158Q30 75 70 33T166 -10Q224 -10 282 33T392 176Q416 223 427 272T444 372L446
395ZM415 402Q415 358 405 316T373 225Q324 117 272 68T176 17Q168 16 160 18T146 22Q125 29 114 48T101 108Q99 143 109 196T143 310Q154 340 169 367T200 418Q243 479 276 502T339 523Q370 521 392 491T415 403V402Z" />
<glyph unicode="1" glyph-name="one" horiz-adv-x="338" d="M347 550L328 564Q306 557 286 550T242 537Q216 530 189 526T136 517L247 507Q222 445 205 405T177 337T159 293T145 260T132 228T115 186T88 121T46 23L-50 0Q-19 1 12 1Q43 1 73 1Q108 1 141 1Q174
1 209 0L124 23Q147 79 168 135T213 248Q241 317 268 385T331 520L347 550Z" />
<glyph unicode="2" glyph-name="two" horiz-adv-x="492" d="M452 410Q452 447 440 475T407 521T361 549T310 558Q272 558 239 544T182 506T143 448T129 378V360Q134 386 146 410T177 452T220 482T272 493Q320 493 348 463T376 386Q376 339 353 301T295 231T217
178T135 141Q114 133 93 127T52 113Q43 109 33 103T13 89T-3 71T-9 50Q-9 37 -1 30T20 22Q32 22 39 29T51 46T57 68T57 89Q63 90 69 91T81 93Q109 93 138 76T194 38T246 0T293 -17Q312 -17 333 -7T376 18T416 49T451 76Q443 73 432 69T410 62T387 56T367 53Q340
53 310 65T250 90T197 115T156 123Q201 141 252 167T348 229T422 310T452 410Z" />
<glyph unicode="3" glyph-name="three" horiz-adv-x="458" d="M455 553L436 567Q416 558 401 552T371 541T340 536T302 534Q291 534 276 535T245 541T217 551T197 568Q182 553 169 537T142 505Q128 490 113 476T83 444L153 486Q169 480 181 477T204 473T228 471T258
470Q277 470 296 471T335 477Q284 428 233 380T129 285L146 269Q156 280 179 289T219 299Q257 299 276 272T295 210Q295 175 283 140T248 77T194 32T125 14Q118 14 104 16T77 23T53 35T42 51Q42 58 49 67T56 90Q56 108 46 118T17 129Q0 129 -8 114T-17 85Q-17 59
0 41T42 12T94 -4T142 -9Q186 -9 228 6T304 49T358 115T379 201Q379 260 345 291T253 322Q243 322 232 321T213 314Q239 346 268 375T330 432Q358 455 387 476T448 516L455 553Z" />
<glyph unicode="4" glyph-name="four" horiz-adv-x="469" d="M478 573L456 593Q390 533 329 477T204 366Q175 341 152 321T107 281T61 240T8 193L20 167Q61 169 100 170T181 171Q196 171 211 171T243 170L183 0H257Q271 43 285 85T313 170Q339 171 364 171T415
168L437 223H333Q347 259 359 295T385 368Q405 420 428 471T478 573ZM365 481Q347 443 333 407T304 337Q293 307 283 279T262 223Q242 223 216 223T161 221Q136 220 114 220T74 220Q110 250 144 279T214 340Q252 375 289 408T365 481Z" />
<glyph unicode="5" glyph-name="five" horiz-adv-x="469" d="M496 550Q475 543 447 537T397 530Q354 530 313 543T232 571Q212 514 190 460T146 349Q122 289 93 231L123 230Q133 263 155 285T215 307Q264 307 286 276T309 201Q309 169 297 136T263 76T208 32T137
15Q129 15 116 17T88 23T64 35T54 53Q54 56 61 66T69 90Q70 104 61 116T34 128Q14 128 6 117T-3 85Q-3 62 8 45T40 15T86 -3T143 -9Q206 -9 252 10T330 59T377 125T393 198Q393 226 384 252T357 298T312 330T249 342Q222 342 201 332T157 310L228 478Q256 467 289
463T352 459Q382 459 401 466T436 486T464 515T496 550Z" />
<glyph unicode="6" glyph-name="six" horiz-adv-x="452" d="M483 590H479Q386 590 299 556T146 456Q88 399 55 324T21 162Q21 129 31 98T59 43T105 5T169 -10Q217 -10 257 8T328 57T374 130T391 219Q391 247 383 275T359 327T318 366T263 381Q230 381 201 368T148
331Q172 382 207 423T285 497T379 553T483 590ZM313 234Q313 205 305 167T279 95T235 37T174 13Q152 13 136 23T110 49T95 84T90 124Q90 153 99 192T127 266T173 325T236 350Q259 350 274 339T297 311T309 274T313 234Z" />
<glyph unicode="7" glyph-name="seven" horiz-adv-x="424" d="M430 503V547L415 560Q398 542 372 536T322 529Q271 529 216 539T116 573Q96 533 77 501T31 429L94 475Q105 473 115 470T137 464Q161 457 190 457T243 456Q272 456 297 459T351 467Q336 448 307 414T244
336T173 246T108 155T59 74T40 13Q40 -4 53 -20T95 -36Q114 -36 126 -25T139 5Q139 32 117 40Q112 42 107 42Q102 42 99 46Q97 49 99 54T104 66T110 78T115 88Q128 112 149 147T197 220T252 299T309 375T362 439T405 483Q411 488 417 493T430 503Z" />
<glyph unicode="8" glyph-name="eight" horiz-adv-x="458" d="M458 455Q457 496 425 525T328 559Q296 561 268 555T215 534Q145 495 141 431Q139 406 146 384T170 338L187 315L204 293Q199 291 194 289T184 284Q139 264 109 246T62 208T37 169T30 126Q31 99 44
75T80 31T137 1T212 -10Q266 -9 307 18Q349 46 368 81T387 159Q387 188 378 213T348 263L328 287L307 310Q312 312 316 313T325 317Q399 351 428 386T458 455ZM390 458Q392 427 376 398T323 346Q318 343 315 341T307 336L303 333L293 330L290 328H289L288 329L287
330L283 334L273 345L250 370Q228 394 219 415T208 453V466Q212 495 235 516T293 539Q335 541 361 519T390 458ZM320 126V127Q321 107 315 87Q304 54 278 34T214 12Q161 9 129 40T98 122Q100 163 124 202T195 263L210 270L219 274L222 275L223 274V273L231 267L248
250L267 231Q294 204 306 179T320 126Z" />
<glyph unicode="9" glyph-name="nine" horiz-adv-x="469" d="M426 386V387Q426 451 401 492T329 550Q303 559 273 559Q231 558 192 540T118 486Q61 424 58 336Q56 296 66 265T96 213T140 181T192 171Q215 172 234 180T281 207Q285 209 288 212T294 217Q292 212
289 208T283 199Q256 158 230 124T176 64T115 19T42 -8L-50 -28L-19 -26L12 -23Q24 -21 36 -19T59 -15Q159 6 235 55T359 177Q392 228 409 281T426 386ZM362 437Q362 393 350 353Q338 312 321 283T284 235T246 207T208 199Q178 201 156 229T133 311Q132 334 138
358T156 412Q182 477 217 505T289 532Q311 530 328 516Q361 489 361 437H362Z" />
<glyph unicode=":" glyph-name="colon" horiz-adv-x="216" d="M247 295Q247 314 234 327T201 340Q182 340 169 327T156 295Q156 276 169 263T201 249Q221 249 234 262T247 295ZM168 39Q168 59 155 72T122 85Q102 85 89 72T76 39Q76 20 89 7T122 -7Q141 -7 154 6T168 39Z" />
<glyph unicode=";" glyph-name="semicolon" horiz-adv-x="216" d="M238 295Q238 314 225 327T192 340Q173 340 160 327T147 295Q147 276 160 263T192 249Q211 249 224 262T238 295ZM166 23Q166 36 163 49T152 74T132 92T102 99Q82 99 67 90T51 58Q51 45 61 32T85
19Q96 19 101 25T117 31Q124 31 125 27T127 16Q127 -9 113 -31T78 -72T35 -105T-1 -127Q25 -123 54 -110T108 -78T149 -32T166 23Z" />
<glyph unicode="&lt;" glyph-name="less" horiz-adv-x="530" d="M462 -7V50L108 211L462 372V428L38 237V185L462 -7Z" />
<glyph unicode="=" glyph-name="equal" horiz-adv-x="576" d="M579 298V335H24V298H579ZM579 152V188H24V152H579Z" />
<glyph unicode="&gt;" glyph-name="greater" horiz-adv-x="530" d="M467 185V237L43 428V372L398 211L43 50V-7L467 185Z" />
<glyph unicode="?" glyph-name="question" horiz-adv-x="360" d="M468 429Q468 488 430 523T333 558Q306 558 281 552T237 533T207 501T195 455Q195 438 205 427T232 415Q249 415 258 426T267 454Q267 466 260 473T252 485Q252 511 275 522T327 534Q365 534 388
510T412 447Q412 418 401 400T373 369T335 347T291 328Q234 302 209 250T184 138Q188 149 191 159T200 181Q211 208 235 224T290 253T351 277T409 307T451 354T468 429ZM193 36Q193 56 180 69T147 82Q127 82 114 69T101 36Q101 17 114 4T147 -10Q166 -10 179 3T193
36Z" />
<glyph unicode="@" glyph-name="at" horiz-adv-x="691" d="M621 212L360 547L459 258L15 355L409 209L15 65L464 162L360 -145L621 212Z" />
<glyph unicode="A" glyph-name="A" horiz-adv-x="549" d="M528 606H480Q453 562 420 517T350 427T278 340T209 259Q177 248 143 236T74 223Q59 223 48 225T32 236T27 258T32 281Q7 240 19 216Q28 196 57 189T122 181Q128 181 134 181Q141 181 147 182Q137 173
128 161T109 138Q84 109 60 80T8 23L-65 0Q-39 1 -14 1Q11 1 36 1Q61 1 85 1Q109 1 133 0L62 23Q94 65 126 106T191 188Q209 192 229 200T271 217T312 231T349 238Q356 238 359 237Q349 183 334 130T305 23L219 0Q251 1 283 1T347 2Q375 2 401 2T455 0L395 23Q407
89 421 154T450 285Q469 366 488 445T528 606ZM431 489Q415 427 396 368T362 245Q348 251 339 256T321 264T302 270T275 272Q270 272 266 272Q262 272 257 271L431 489Z" />
<glyph unicode="B" glyph-name="B" horiz-adv-x="534" d="M556 482Q557 513 544 533T510 567T463 585T410 591Q370 591 331 589T252 586Q232 586 214 587T175 589L254 563L158 339L92 338L151 320L29 28L-66 -1Q-40 2 -13 3T41 4Q79 4 116 0T192 -5Q236 -5 282
3T367 32T431 88T459 177Q460 204 449 228T418 270T373 299T323 310Q339 312 355 314T387 319Q418 324 448 337T501 371T540 420T556 482ZM475 476Q474 450 461 424T422 377T363 343T285 330Q274 330 263 330Q252 330 241 331Q263 382 284 433T328 536Q338 558
349 564T384 570Q435 570 455 542T475 476ZM380 195Q380 160 364 129T319 74T252 38T172 26L114 28L234 310Q274 308 301 298T346 273T372 237T380 195Z" />
<glyph unicode="C" glyph-name="C" horiz-adv-x="521" d="M569 589L504 561Q483 584 454 594T394 605Q334 605 282 588T187 542T111 472T57 384Q29 319 24 250T40 123T111 28T241 -10Q307 -10 352 20T433 103V104Q411 85 392 69T354 42T311 25T256 18Q202 18 170
45T123 114T112 210T133 318Q148 367 174 414T233 497T307 556T390 577Q416 577 433 572T460 558T474 538T479 513Q480 488 472 461T455 407Q458 411 464 421T478 444T495 474T515 506Q531 531 544 551T569 589Z" />
<glyph unicode="D" glyph-name="D" horiz-adv-x="647" d="M602 361Q605 412 592 454T549 528T474 576T366 593Q337 593 310 591T254 587Q233 587 211 588T166 590L236 562Q210 499 184 437T131 311Q102 239 73 169T15 28L-69 1Q-49 3 -36 3T-3 2Q29 2 65 1T133
-1Q244 -1 330 32T475 117T567 234T602 361ZM483 258Q461 213 429 172T355 99T266 48T165 28Q150 28 135 28T103 28Q136 118 174 207T249 386Q266 426 282 468T318 548Q324 559 332 563T352 567Q420 567 458 539T511 467T517 368T483 258Z" />
<glyph unicode="E" glyph-name="E" horiz-adv-x="556" d="M556 587Q529 587 498 587T436 586T373 585T316 584Q278 584 240 586T164 590L241 562L14 25L-67 0Q-25 1 17 2T101 3H186Q211 3 246 3T314 2T374 1T409 0Q414 13 420 33T432 70Q441 97 452 124T474 177Q439
123 411 95T351 53Q311 36 262 35T148 34Q138 34 127 34Q117 34 106 35L216 303Q236 303 256 303T293 300T325 292T347 278Q358 264 363 240T370 178Q378 204 386 234T405 294Q416 324 427 353T449 408Q424 379 407 363T370 337Q357 332 339 329T300 325T260 324T225
326L321 559Q343 559 367 559T414 559T455 555T482 543Q489 537 493 529T499 509T503 479T507 434Q512 454 518 476T531 519Q539 541 545 558T556 587Z" />
<glyph unicode="F" glyph-name="F" horiz-adv-x="481" d="M547 587Q493 587 427 586T307 584Q269 584 231 586T155 590L227 563L4 23L-74 0Q-44 0 -28 0T0 1T21 2T49 3Q68 3 78 3T100 2T129 1T180 0L94 23L207 303Q227 303 247 303T284 300T316 292T338 278Q349
264 354 240T361 178Q369 204 377 234T396 294Q407 324 418 353T440 408Q416 379 399 363T361 337Q349 332 330 329T291 325T251 324T216 326L312 559Q334 559 358 559T405 559T446 555T474 543Q481 537 484 529T490 509T494 479T499 434Q504 454 510 476T522 519Q530
541 536 558T547 587Z" />
<glyph unicode="G" glyph-name="G" horiz-adv-x="538" d="M580 589L513 559Q488 587 455 596T386 605Q326 605 274 590T179 546T104 478T50 391Q22 327 16 257T30 127T98 29T227 -10Q251 -10 277 -6T330 9T380 34T425 70L464 180L542 203Q508 202 477 200T412
197Q382 196 350 198T288 200L371 177L340 73Q335 62 324 53T300 37T273 26T248 22Q198 22 167 48T120 116T106 211T125 318Q141 367 167 413T226 496T299 555T382 577Q410 577 429 572T461 558T479 537T488 509Q492 484 489 456T482 397Q496 423 507 451T532 505Q543
528 555 547T580 589Z" />
<glyph unicode="H" glyph-name="H" horiz-adv-x="630" d="M708 588Q682 587 651 587Q621 587 589 587Q555 587 522 587Q490 587 464 588L547 565Q538 541 525 508T499 442T471 377T447 323Q421 322 387 322T315 322Q289 322 264 322Q240 322 217 323L319 565L405
588Q375 588 342 588T276 587Q241 587 209 587Q177 587 154 588L228 565Q208 513 180 444T122 301Q90 221 59 148T6 23L-75 0Q-52 1 -18 1T51 2Q86 2 119 2T176 0L94 21L205 291Q230 291 257 291T314 292Q344 292 374 292T434 290Q434 290 423 263T396 197T364
118T337 51T325 23L236 0Q264 1 297 1Q330 1 365 1Q397 1 427 1Q458 1 484 0L412 20Q435 77 463 145T519 282Q551 363 580 434T634 565L708 588Z" />
<glyph unicode="I" glyph-name="I" horiz-adv-x="329" d="M402 588Q373 587 343 587Q314 587 283 587Q248 587 215 587Q182 587 157 588L233 565L7 23L-76 0Q-53 1 -19 1T51 2Q86 2 118 2T175 0L95 23L320 565L402 588Z" />
<glyph unicode="J" glyph-name="J" horiz-adv-x="370" d="M468 588Q439 587 409 587Q379 587 348 587Q313 587 280 587Q247 587 223 588L302 565Q293 543 279 509T250 434T217 350T185 269T157 200T138 153Q120 109 100 60T59 -30T15 -98T-32 -125Q-40 -125 -42
-117Q-43 -112 -42 -107T-38 -94Q-37 -89 -37 -82T-41 -69T-50 -59T-67 -54Q-84 -54 -92 -66T-101 -93Q-101 -117 -78 -134Q-89 -147 -106 -163T-139 -192Q-130 -189 -120 -182T-99 -167T-81 -150T-69 -136Q-54 -142 -44 -142Q15 -143 60 -112Q99 -85 128 -41T184
59T236 184T292 329Q297 341 309 372T335 440T363 511T384 565L468 588Z" />
<glyph unicode="K" glyph-name="K" horiz-adv-x="508" d="M650 588Q628 587 604 587Q580 587 556 587Q527 587 500 587Q473 587 453 588L527 565L311 378Q292 361 275 347T237 323Q221 315 204 315L310 565L396 588Q367 587 336 587Q305 587 273 587Q243 587 212
587Q182 587 151 588L224 565L119 316H30Q50 312 71 309T112 301L-3 23L-84 0Q-53 1 -22 1Q8 1 39 1Q70 1 101 1Q132 1 164 0L86 23L198 299Q219 299 235 295T262 282Q291 262 298 223T306 134T313 30T343 -73Q356 -97 377 -108T422 -119Q451 -119 476 -104T517
-53Q495 -78 479 -87T449 -96Q434 -96 425 -85T410 -55T404 -13T403 36Q405 93 394 150T356 249Q322 298 266 311Q308 341 343 368T412 425T485 488T575 563L650 588Z" />
<glyph unicode="L" glyph-name="L" horiz-adv-x="499" d="M478 193Q459 166 445 144T417 105T390 76T361 56Q344 47 326 43T274 37Q225 34 178 34T81 33Q104 89 131 155T188 291Q220 369 249 440T301 565L389 588Q357 587 325 587T260 586Q225 586 193 586T137
588L216 565Q187 498 162 433T107 300Q77 231 49 163T-9 26L-94 0Q-53 2 -14 2T66 3Q110 3 153 3Q196 3 240 2Q247 2 269 2Q292 2 318 2T368 1T404 0Q409 21 416 41T431 81Q452 138 478 193Z" />
<glyph unicode="M" glyph-name="M" horiz-adv-x="774" d="M847 591Q815 589 791 589T735 587Q716 587 697 587T657 588Q618 531 579 478T501 372T421 268T339 160L389 592Q374 591 362 591T338 590Q327 590 315 590Q303 590 288 590Q279 590 264 590T232 591T200
592T176 593L289 563Q268 522 238 465T174 344T109 219T50 107Q36 81 25 59T6 23L-81 0Q-55 1 -29 1T24 2Q51 2 77 2T131 0L46 23Q59 53 75 84Q130 198 187 314T305 540L243 -10H258Q269 5 282 22T308 59T335 96T359 129Q367 140 391 172T448 248T516 340T585 432T642
507T674 550Q645 478 620 411T568 275Q544 212 519 150T466 23L386 0Q418 1 450 1T514 1Q543 1 574 1Q606 1 635 0L557 23Q574 68 598 131T648 265Q680 347 710 426T762 562L847 591Z" />
<glyph unicode="N" glyph-name="N" horiz-adv-x="613" d="M696 588Q675 587 653 587T605 586Q574 586 543 586T491 588L580 565Q570 544 562 522T545 477Q511 395 478 314T409 150Q374 259 339 369T271 589Q252 590 235 589T199 588Q179 589 158 589Q137 589 117
590Q124 587 136 582T161 571T184 559T199 546L201 535L2 24L-83 0Q-57 1 -31 1T21 1Q47 1 73 1Q100 1 126 0L38 23Q50 52 60 82T81 141L216 489L315 177Q329 133 342 84T363 -10H386Q398 29 413 71T444 152L617 565L696 588Z" />
<glyph unicode="O" glyph-name="O" horiz-adv-x="593" d="M567 382Q567 422 556 462T523 534T468 586T388 606Q310 606 246 572T135 483T64 357T38 213Q38 173 49 133T82 62T137 10T217 -10Q295 -10 359 23T470 112T541 238T567 382ZM483 434Q483 400 474 356T448
266T407 174T355 93T293 35T223 13Q195 13 176 27T144 62T126 108T120 157Q120 190 129 235T156 327T198 420T252 502T315 560T385 582Q412 582 430 569T461 534T478 486T483 434Z" />
<glyph unicode="P" glyph-name="P" horiz-adv-x="554" d="M562 464Q562 489 553 512T525 552T476 580T404 590Q364 590 324 588T245 586Q228 586 213 587T182 588L256 561L157 325Q137 330 120 338T84 354Q98 339 118 325T148 306Q120 234 91 164T31 23L-55 0Q-23
1 10 1Q43 1 76 2Q109 2 142 2T208 0L119 23L224 278Q245 271 270 267T321 262Q377 262 422 279T498 324T545 388T562 464ZM481 462Q481 427 467 396T427 341T366 304T289 290Q275 290 261 292T232 299L342 564Q379 564 405 556T448 534T473 502T481 462Z" />
<glyph unicode="Q" glyph-name="Q" horiz-adv-x="599" d="M569 382Q569 422 558 462T525 534T470 586T391 606Q313 606 249 572T138 483T66 357T40 213Q40 173 51 133T84 62T140 10T219 -10Q231 -10 243 -9T266 -6Q269 -35 273 -63T289 -113Q303 -143 327 -160T387
-169Q401 -166 415 -153T437 -126Q434 -128 428 -132T415 -141T398 -146T381 -144Q366 -136 358 -115T347 -70T342 -22T341 15Q393 37 435 75T507 162T553 267T569 382ZM486 434Q486 398 475 349T444 249T397 151T336 69Q327 114 303 142Q286 164 259 174T193 188Q171
190 155 189T123 186Q127 221 138 264T168 352T210 437T262 511T321 562T387 582Q414 582 433 569T463 534T480 486T486 434ZM264 20Q246 13 225 13Q197 13 178 27T146 62T128 108T122 157Q122 163 122 169Q122 175 123 181Q134 179 150 176T184 166T216 152T239
134Q252 117 256 86T264 20Z" />
<glyph unicode="R" glyph-name="R" horiz-adv-x="495" d="M535 480Q537 510 527 530T497 564T454 582T403 588Q341 588 281 587T158 588L233 563L144 356L67 375L136 335Q102 257 72 181T7 27L-76 0Q43 3 162 0L90 23L215 313Q236 313 256 303T285 282Q309 255
312 215T314 127T314 28T338 -73Q349 -97 369 -108T413 -119Q442 -119 468 -104T513 -53Q490 -78 473 -87T442 -96Q427 -96 419 -85T407 -55T403 -12Q403 11 406 36Q410 64 410 95Q410 126 407 155T396 209T379 251Q365 276 343 291T291 313Q326 312 367 319T444
345T505 397T535 480ZM450 489Q447 456 433 427T397 377T345 344T282 331Q278 331 270 332T252 334T235 336T224 340L302 518Q307 530 311 538T320 552T334 560T358 563Q376 563 393 559T423 547T443 524T450 489Z" />
<glyph unicode="S" glyph-name="S" horiz-adv-x="442" d="M462 572Q445 563 436 559T418 551Q392 578 362 591T287 604Q201 604 157 556T112 431Q112 393 126 365T163 313T211 271T259 232T296 190T311 139Q311 112 302 90T277 52T240 27T193 18Q165 18 143 26T105
49T76 81T57 118Q47 143 43 169T33 221Q28 192 24 164T14 109Q9 86 3 66T-8 24L35 59Q53 40 70 27T107 6T148 -6T197 -10Q236 -10 270 5T330 47T371 109T386 183Q386 222 371 250T333 299T284 339T234 376T196 417T181 470Q181 518 210 548T288 579Q333 579 359
559T398 506Q409 477 412 444T415 382Q417 400 424 433T439 498Q451 548 462 572Z" />
<glyph unicode="T" glyph-name="T" horiz-adv-x="559" d="M623 589Q607 589 588 589T539 588T470 587T373 586Q324 586 280 586T201 587T140 589T105 590Q103 577 99 561T89 527Q80 496 70 465T51 412Q67 438 85 467T128 518Q149 536 178 545T233 556Q254 556
275 556T318 558Q275 450 233 345T146 133Q135 105 123 78T99 23L2 0Q37 1 75 2T149 2Q183 2 216 2T283 0L192 23Q243 155 295 285T404 558Q428 558 451 558Q475 558 499 556Q532 553 545 539Q553 530 556 515T560 483T559 447T555 411Q566 447 575 473T596 528Q603
544 609 559T623 589Z" />
<glyph unicode="U" glyph-name="U" horiz-adv-x="572" d="M663 588Q639 587 613 587T560 586Q528 586 499 586Q470 586 447 588L534 565Q524 532 510 489T481 403T453 322T433 263T424 239Q405 183 379 142T324 75T266 35T214 22Q169 22 142 44T108 104Q104 125
113 163T138 249T174 346T214 440T249 517T272 565L359 588Q330 587 297 586T229 585Q193 585 159 585T98 588L176 565Q175 563 167 543T144 488T116 418T90 352T72 308Q66 293 57 268T40 213T29 151T31 89Q35 69 46 52T75 21T122 -1T188 -9Q257 -9 304 19T383
91T438 191T480 300Q504 366 527 432T573 565L663 588Z" />
<glyph unicode="V" glyph-name="V" horiz-adv-x="486" d="M615 588Q592 587 566 587Q540 587 514 587Q479 587 447 587Q415 587 392 588L487 565L432 486Q397 436 362 392T291 305T218 219T142 130Q153 180 165 234T188 345Q201 406 212 463T231 565L326 588Q301
587 266 587Q231 587 193 587Q157 587 123 587Q89 587 65 588L143 565Q123 418 92 275Q76 203 58 133T18 -9H55Q117 63 178 132T300 272T418 414T531 565L615 588Z" />
<glyph unicode="W" glyph-name="W" horiz-adv-x="678" d="M831 588Q810 587 783 586T726 586Q698 586 671 586T618 588L699 565Q656 509 615 457T533 355T449 254T362 148Q373 190 382 228T401 303T419 379T439 459Q446 486 452 512T466 565L551 588Q525 587 496
587Q467 587 437 587Q403 587 372 587Q341 587 318 588L386 565L360 457L86 121Q115 230 144 341T204 565L280 588Q252 587 224 587Q196 587 168 587Q139 587 110 587Q81 587 51 588L118 565Q103 487 84 410T46 256Q29 188 12 122T-25 -10H6L342 390Q318 290 293
189T238 -10H265L749 565L831 588Z" />
<glyph unicode="X" glyph-name="X" horiz-adv-x="632" d="M705 588Q684 587 659 587Q635 587 609 587Q575 586 544 586T489 588L578 565Q529 514 480 464T379 363Q362 414 347 463T316 566L411 589Q384 588 349 588T277 587Q244 587 213 587Q183 587 160 588L227
565Q236 542 247 508T271 437T295 365T314 307L23 23L-61 0Q-33 1 -5 1Q22 1 50 1Q80 2 110 2T170 0L76 23Q136 89 198 152T323 277Q344 213 365 151T405 23L306 0Q344 1 380 1T455 1Q482 1 509 1Q536 1 563 0L493 23Q483 52 469 93T440 179T412 265T390 337L626
565L705 588Z" />
<glyph unicode="Y" glyph-name="Y" horiz-adv-x="437" d="M539 588Q516 587 490 587Q464 587 436 587Q404 587 374 587Q344 587 321 588L410 565Q369 510 326 455T234 351Q227 373 218 402T200 461T183 518T171 565L263 588Q235 587 201 586T132 586Q98 586 66
586T8 588L75 565Q80 554 84 542T92 519Q110 469 125 417T157 314Q131 239 107 169T53 24L-46 0Q93 3 233 0L149 21Q153 38 158 54T168 87Q186 148 205 203T248 322L454 564L539 588Z" />
<glyph unicode="Z" glyph-name="Z" horiz-adv-x="589" d="M610 581L602 598Q581 594 543 592T464 589T384 588Q346 588 324 588Q292 588 256 589T187 591Q182 576 177 558T166 525Q156 498 145 469T121 414Q137 443 161 468T215 511T277 542T343 556Q378 558 413
559T483 561L177 210Q151 180 125 149T73 87Q56 67 39 48T5 9L16 -8Q67 0 117 2T220 4Q281 4 342 4T465 -2Q470 13 478 31T494 70Q507 99 520 127T543 175Q523 141 496 113T438 69Q391 43 341 38T244 33Q212 33 182 33T120 35L432 390Q461 423 490 457T551 522Q581
551 610 581Z" />
<glyph unicode="[" glyph-name="bracketleft" horiz-adv-x="324" d="M494 612H488L468 611H443L401 612H360L318 613L15 -171L37 -170H58H134L211 -171L221 -148H98L113 -104L129 -59L143 -24L157 12L334 470L349 508L366 548L383 589H485L494 612Z" />
<glyph unicode="\" glyph-name="backslash" horiz-adv-x="438" d="M437 280Q437 308 425 326T394 354T352 369T304 374Q274 374 244 372T184 370Q160 370 136 373L128 357Q142 351 161 350T191 349L143 209Q114 220 82 236L73 228Q88 217 103 208T136 190Q107
106 78 23T17 -143Q17 -143 10 -143Q3 -143 -6 -143Q-15 -143 -24 -143Q-33 -143 -38 -143L-48 -165Q-24 -164 0 -164Q24 -164 49 -164Q75 -164 103 -164T158 -165L165 -143H92L199 172Q216 168 233 166T268 163Q294 163 324 169T379 189T420 225T437 280ZM362
288Q362 262 353 243T327 212T290 193T245 186Q235 186 226 187T207 191L263 350L284 351Q315 353 338 338T362 288Z" />
<glyph unicode="]" glyph-name="bracketright" horiz-adv-x="324" d="M397 612H375L353 611H277L201 613L191 589H313L298 545L283 501L269 465L255 429L77 -29L63 -67L46 -108L29 -148H-77L-86 -171L-70 -170H-53H-3L25 -171H93L397 612Z" />
<glyph unicode="^" glyph-name="asciicircum" horiz-adv-x="0" d="M371 645L278 789L70 650L78 632L254 721L356 632L371 645Z" />
<glyph unicode="_" glyph-name="underscore" horiz-adv-x="1050" />
<glyph unicode="`" glyph-name="grave" horiz-adv-x="0" d="M196 426Q190 455 187 473T181 504T176 530T170 559Q168 568 166 581T157 604T142 621T119 621Q107 616 104 608T102 589T109 569T117 552L196 426Z" />
<glyph unicode="a" glyph-name="a" horiz-adv-x="367" d="M357 140Q349 144 339 149T318 160T298 169T285 174Q289 184 294 197T305 225T313 255T316 284Q314 327 290 356T213 385Q161 385 126 357T65 285Q75 295 89 306T119 328T151 344T183 351Q224 351 237
329T246 276Q244 253 235 229T217 188Q187 188 149 182T77 160T20 118T-1 53Q1 24 21 8T70 -9Q95 -9 119 1T162 32Q169 11 184 1T220 -10Q239 -10 256 -3T290 17T321 45T349 76Q344 72 332 64T306 47T276 31T249 24Q243 24 238 25T231 29Q226 35 228 46Q229 50
236 65T251 99T267 134T277 155Q282 155 293 153T316 149T340 144T357 140ZM209 165Q203 153 195 135T178 98Q161 63 143 41T95 19Q78 19 71 30T63 54Q62 76 75 100T108 137Q130 153 158 159T209 165Z" />
<glyph unicode="b" glyph-name="b" horiz-adv-x="404" d="M367 282Q367 326 349 355T283 384Q250 384 225 365T176 324Q205 392 233 457T293 588L279 603Q244 594 210 591Q169 588 129 588Q148 580 167 574T207 565Q167 471 131 377T54 188Q51 180 46 173T36 158Q19
130 1 102T-32 45Q-14 63 3 85T34 128Q28 105 27 81T33 37T57 3T103 -10Q156 -10 204 16T288 84T345 178T367 282ZM309 320Q309 301 301 271T280 208T248 140T210 79T168 34T126 17Q106 17 98 30T89 62Q89 80 97 109T119 171T151 237T190 298T233 342T276 359Q293
359 301 348T309 320Z" />
<glyph unicode="c" glyph-name="c" horiz-adv-x="326" d="M384 424Q361 414 342 401T302 374Q291 380 280 382T257 384Q196 384 151 359T75 295T29 209T13 119Q13 95 18 72T36 31T69 2T119 -10Q141 -10 160 -2T194 20T224 50T250 83Q240 74 227 64T199 44T169
30T139 24Q109 24 95 48T81 109Q81 146 93 190T126 273T177 336T241 362Q252 362 259 354T267 334Q263 327 259 320T255 303Q255 292 263 287T282 281Q299 281 311 297T323 328Q323 336 323 342T317 356Q332 375 349 391T384 424Z" />
<glyph unicode="d" glyph-name="d" horiz-adv-x="447" d="M517 590L506 605Q489 601 468 598T431 592Q411 590 394 590T354 589Q358 587 368 583T390 574T412 567T426 565Q403 511 381 457T335 350Q328 367 314 375T281 384Q239 384 200 364T126 311T66 238T25
157Q14 126 12 96T16 43T40 5T89 -10Q121 -10 151 11T202 57Q210 66 220 80T236 105T244 117Q236 94 226 70T220 24Q222 11 231 3T262 -5Q282 -5 298 3T330 23T358 51T384 81Q374 74 360 66T333 50T308 37T292 33Q284 35 282 41T285 63L448 449Q462 482 481 519T517
590ZM312 322Q310 302 301 272T275 207T238 139T194 78T145 33T96 16Q79 16 74 30T70 60Q72 79 82 109T107 172T143 239T186 300T233 344T279 361Q295 361 304 353T312 322Z" />
<glyph unicode="e" glyph-name="e" horiz-adv-x="345" d="M334 328Q334 358 312 373T244 384Q165 374 119 333T44 227Q39 227 29 229T9 233T-12 238T-29 242Q-25 237 -15 232T5 222T25 212T39 207Q28 187 26 160T24 110Q24 89 29 68T47 30T77 1T119 -10Q145 -10
164 -3T200 16T230 46T260 85Q249 75 237 64T210 44T181 29T151 23Q121 23 108 42T91 89T93 145T104 194Q124 193 147 192T191 196Q267 213 300 250T334 328ZM275 334Q275 305 260 283T222 245T172 222T120 214H110Q114 234 127 260T159 309T200 347T246 363Q275
363 275 334Z" />
<glyph unicode="f" glyph-name="f" horiz-adv-x="287" d="M433 552Q434 576 416 591T366 607Q327 607 293 586T231 533T182 464T148 394Q146 389 144 385T140 375H46L37 353H133L26 82Q19 64 7 35T-20 -28T-55 -96T-94 -159T-135 -205T-178 -223Q-179 -223 -181
-222T-185 -221Q-185 -212 -185 -203Q-185 -195 -187 -188T-196 -177T-213 -172Q-227 -172 -234 -181T-241 -202Q-241 -216 -233 -228T-208 -244Q-219 -257 -235 -273T-266 -303Q-257 -300 -247 -293T-226 -277T-208 -260T-194 -245Q-189 -246 -185 -246T-176 -244Q-130
-238 -90 -208T-16 -132T48 -27T105 96T157 226T206 354H317L326 376H214Q224 398 238 434T271 504T315 562T370 587Q378 587 386 584T396 567Q398 555 372 547Q356 542 355 523Q355 513 363 506T380 499Q404 499 418 514T433 552Z" />
<glyph unicode="g" glyph-name="g" horiz-adv-x="412" d="M466 341Q466 360 454 370T422 381Q407 381 394 374T369 356T350 331T338 304Q330 339 306 359T246 379Q209 379 179 365T127 328T93 272T81 204Q81 175 90 149T123 104Q104 101 83 96T43 83T12 67T0 51Q0
12 21 -7T73 -37T140 -51T208 -63T260 -85T281 -132Q281 -167 263 -190T224 -228T184 -247T166 -253V-264Q167 -264 183 -260T226 -247T276 -223T319 -186T337 -134Q337 -92 317 -69T266 -33T200 -15T134 -5T83 9T62 39Q62 57 78 64T115 73T157 74T188 72Q234 72
263 95T310 149T336 214T346 269Q349 300 362 319T397 338Q403 338 406 333T413 322T422 311T438 306Q452 306 459 317T466 341ZM289 303Q289 283 281 248T259 179T225 120T179 95Q167 95 158 101T144 117T136 138T133 161Q133 180 142 213T166 278T203 334T247
358Q272 358 280 341T289 303Z" />
<glyph unicode="h" glyph-name="h" horiz-adv-x="414" d="M469 539Q469 558 458 571T430 592T396 603T362 607Q290 607 246 574T171 476Q137 404 110 334T52 189Q43 178 31 163T7 129T-18 92T-41 54Q-24 77 -5 98T29 131Q20 113 14 97T1 66T-11 35T-24 0H41Q50
24 60 48T82 105Q92 130 112 171T160 253T218 322T280 351Q294 351 301 347T309 336T309 319T303 296Q294 267 278 229T245 154T218 86T206 39Q207 16 221 6T259 -5Q278 -5 293 -1T321 14T346 40T372 78Q358 62 336 47T291 31Q284 31 278 36T271 50Q270 62 283
90T313 155T347 231T370 306Q378 348 360 366T298 385Q278 385 260 378T226 359T195 333T168 305Q187 350 202 389T237 474Q247 499 259 519T286 554T320 577T366 585Q372 585 380 584T397 580T412 572T419 560Q419 554 410 550T396 541Q387 534 385 525T387 506Q391
497 401 491T427 485Q446 485 458 500T469 539Z" />
<glyph unicode="i" glyph-name="i" horiz-adv-x="254" d="M276 480Q276 499 263 512T230 526Q211 526 198 513T184 480Q184 461 197 448T230 434Q249 434 262 447T276 480ZM215 326Q215 357 201 370T158 384Q140 384 123 376T92 355T67 326T50 294Q65 312 89 329T138
347Q142 347 147 343T153 335Q153 324 144 302T119 253T88 195T56 135T32 82T22 41Q22 18 37 6T74 -6Q95 -6 114 2T149 22T180 50T208 80Q199 72 187 64T160 48T132 35T106 30Q89 30 89 49Q89 65 108 102T152 181T195 264T215 326Z" />
<glyph unicode="j" glyph-name="j" horiz-adv-x="249" d="M260 520Q260 539 247 552T215 566Q195 566 182 553T169 520Q169 501 182 488T215 474Q234 474 247 487T260 520ZM205 324Q209 336 206 346T194 364T174 375T149 379Q129 379 112 371T80 351T53 322T31
290Q40 299 50 309T72 327T96 341T121 347Q126 347 132 342T133 324Q120 292 104 252T72 173T40 98T16 38Q9 20 -1 -6T-26 -61T-56 -119T-90 -171T-129 -208T-170 -223Q-171 -223 -173 -222T-177 -221Q-177 -212 -177 -203Q-177 -195 -179 -188T-188 -177T-205
-172Q-219 -172 -226 -181T-234 -203Q-234 -217 -225 -229T-199 -244Q-210 -258 -226 -273T-259 -303Q-250 -300 -240 -293T-219 -277T-201 -260T-188 -245Q-182 -245 -179 -245T-170 -245Q-105 -236 -59 -198T25 -98T96 45T167 220Q177 245 187 272T205 324Z"
/>
<glyph unicode="k" glyph-name="k" horiz-adv-x="419" d="M471 376Q451 375 430 375T389 374Q368 375 349 375Q330 375 308 376L362 356Q348 347 328 330T287 295T244 257T204 224Q195 217 183 214Q176 213 171 213Q167 213 162 213Q204 309 243 403T333 591L323
604Q288 595 255 592Q237 590 218 589T178 589Q192 581 207 574T239 564Q221 521 201 471T159 371T118 273T80 187Q67 179 57 172T36 154T13 127T-18 86Q-2 102 9 112T29 130T46 142T65 154L0 0H73Q90 51 111 99T154 198Q187 200 200 190T217 160T222 117Q222 95
220 73T218 38Q218 13 224 -16T244 -70T278 -111T328 -128Q352 -128 367 -116T394 -83Q379 -96 367 -101T344 -106Q323 -106 311 -85T297 -30Q295 -3 296 23T297 74T288 123T260 169Q246 183 234 191T212 205Q220 211 223 214T230 220Q273 253 314 289T403 350Q427
363 444 367T471 376Z" />
<glyph unicode="l" glyph-name="l" horiz-adv-x="236" d="M302 591L292 604Q275 599 260 597T227 592Q209 590 190 589T150 589Q164 581 179 574T211 564Q193 520 181 490T157 433T133 380T105 313Q93 284 75 242T41 160T13 88T1 49Q1 26 16 10T54 -6Q98 -6 125
18T173 77Q158 61 136 46T90 30Q82 30 77 35T69 47Q68 52 80 83T109 155T146 240T178 314Q199 362 211 393T236 453T262 513T302 591Z" />
<glyph unicode="m" glyph-name="m" horiz-adv-x="596" d="M573 79Q559 63 538 48T494 32Q477 32 475 48Q474 58 483 83T507 141T538 214T568 291Q583 334 561 359T494 385Q474 385 458 378T428 360T402 335T379 307Q384 348 367 366T305 385Q286 385 269 377T236
356T207 328T182 298Q186 310 190 329T191 359Q186 372 174 378T134 385Q114 385 98 377T70 357T48 328T31 296Q38 305 47 315T66 333T88 347T112 353Q117 353 123 349T127 329Q126 321 116 295T91 232T59 156T28 82T3 25T-8 0H68Q78 26 89 51T113 108Q124 135
143 175T185 254T235 320T288 348Q303 348 309 343T317 329T316 312T312 296Q310 288 300 264T277 207T249 139T222 73T201 23T191 0H264Q275 26 285 51T309 108Q320 135 338 175T378 254T426 319T479 346Q493 346 498 340T505 325T504 305T498 285Q490 260 475
225T444 155T418 88T409 41Q411 18 426 7T464 -4Q483 -4 497 0T524 15T548 41T573 79Z" />
<glyph unicode="n" glyph-name="n" horiz-adv-x="431" d="M396 305Q403 347 382 366T316 385Q296 385 277 377T240 356T207 328T181 298Q186 314 190 325T189 354Q185 367 173 373T134 380Q114 380 98 372T69 352T47 323T30 291Q44 309 65 328T111 348Q116 348
122 343T126 325Q125 317 115 291T89 229T57 154T25 81T0 25T-11 0H66Q77 26 87 51T110 108Q121 135 141 176T186 256T240 323T300 351Q315 351 321 345T329 330T328 313T324 299Q314 272 297 233T264 155T235 84T224 39Q226 16 241 6T279 -5Q298 -5 313 -1T341
14T365 40T390 78Q376 62 358 47T317 31Q309 31 303 37T296 50Q295 62 309 95T341 167T376 244T396 305Z" />
<glyph unicode="o" glyph-name="o" horiz-adv-x="357" d="M346 258Q346 326 317 355T244 384Q207 384 167 365T94 311T40 229T18 126Q18 57 47 24T118 -10Q154 -10 194 11T268 68T324 153T346 258ZM278 238Q275 225 268 204T250 157T224 105T193 59T157 25T118
11Q99 11 91 26T80 63T80 108T86 146T97 183T116 230T142 279T173 323T208 355T245 367Q266 367 275 352T285 315T284 273T278 238Z" />
<glyph unicode="p" glyph-name="p" horiz-adv-x="421" d="M400 218Q411 249 414 279T410 332T385 370T336 385Q304 385 274 364T223 318Q217 311 213 307T206 298T200 288T190 276Q200 298 205 314T206 355Q204 368 195 374T164 381Q144 381 127 373T96 353T68
325T42 295Q51 302 65 311T93 327T118 339T134 343Q142 340 144 334T141 313L-21 -74Q-28 -90 -36 -110T-54 -152T-72 -193T-91 -230L-79 -245Q-62 -241 -46 -239T-15 -234Q5 -232 25 -231T69 -230Q65 -229 54 -225T30 -216T6 -209T-10 -207Q14 -153 39 -91T89
25Q103 -9 143 -9Q184 -9 223 8T296 55T356 127T400 218ZM355 316Q353 296 343 266T317 203T281 136T238 76T191 32T145 15Q128 15 119 25T112 53Q113 70 124 99T151 162T189 231T235 295T283 342T329 360Q346 360 351 345T355 316Z" />
<glyph unicode="q" glyph-name="q" horiz-adv-x="408" d="M416 330Q397 311 381 290T349 246Q356 268 357 292T352 336T327 370T281 384Q228 384 180 358T96 291T39 197T17 93Q17 49 35 20T101 -9Q134 -9 159 10T208 51Q179 -17 147 -90T83 -230L97 -245Q131 -236
166 -233Q186 -231 206 -231T247 -230Q207 -214 169 -207Q209 -113 248 -17T326 173Q329 181 336 195T348 216Q365 245 383 273T416 330ZM295 313Q295 294 287 265T265 203T233 137T194 77T151 33T108 16Q90 16 83 27T75 55Q75 74 83 104T104 167T136 235T174 296T215
341T257 358Q277 358 286 345T295 313Z" />
<glyph unicode="r" glyph-name="r" horiz-adv-x="381" d="M464 471Q430 455 404 436T351 385Q324 384 297 369T245 330T202 281T170 233Q174 244 181 262T195 299T203 334T200 359Q193 369 184 374T150 379Q130 379 113 371T83 351T58 322T39 290Q55 308 78 327T125
347Q130 347 135 341T136 321Q134 313 124 287T99 226T68 152T37 80T13 24T2 0H79Q90 26 99 53T125 113Q139 142 156 173T193 232T237 285T285 325Q292 330 296 332T306 332Q314 331 314 323Q314 316 318 306Q322 297 328 290T348 283Q368 284 378 298T391 330Q393
344 389 358T374 380Q383 396 392 407T412 428T435 448T464 471Z" />
<glyph unicode="s" glyph-name="s" horiz-adv-x="325" d="M319 303Q319 342 292 363T225 385Q206 385 187 381T152 367T124 341T104 299T103 250T120 203T146 157T169 113Q176 97 175 81T166 50T148 26T125 12Q105 5 82 8T43 28L37 37Q35 42 37 49T40 64T39 79T26
92Q11 99 -2 91T-18 61Q-19 52 -14 41T-3 23Q-23 -6 -44 -33T-89 -83Q-74 -72 -62 -62T-38 -41T-15 -18T10 11Q28 2 49 -3T92 -9T135 -6T174 8Q207 25 224 56T233 133Q229 156 212 183T180 239T158 295T167 343Q178 358 198 363T235 365Q258 360 269 348T278 317Q278
315 275 315T269 314Q255 312 251 302T248 281T258 265T277 259Q294 259 306 273T319 303Z" />
<glyph unicode="t" glyph-name="t" horiz-adv-x="278" d="M295 376H220L260 467Q250 456 239 451T214 444Q205 442 195 442T176 443L147 376H74L66 354H138Q112 290 86 231T32 110Q26 96 20 82T12 55T12 29T27 6Q35 -1 44 -3T64 -5Q85 -5 103 3T139 23T170 51T199
80Q193 76 179 66T148 46T115 31T89 32Q82 36 81 44T82 62T87 79T93 93L211 354H287L295 376Z" />
<glyph unicode="u" glyph-name="u" horiz-adv-x="432" d="M425 376H347Q337 350 328 327T305 272Q294 245 274 204T228 122T173 54T113 25Q98 25 92 31T84 45T84 62T88 76Q98 103 116 142T151 220T179 291T190 336Q188 359 173 369T135 380Q96 380 73 361T24 297Q38
313 56 328T97 344Q104 344 111 338T118 325Q119 313 105 281T73 211T39 134T19 73Q13 32 33 11T97 -10Q116 -10 136 -1T174 22T207 52T234 82Q229 66 225 53T225 22Q230 8 242 2T281 -5Q301 -5 317 3T346 23T368 52T385 84Q378 75 369 66T350 48T328 34T304 28Q299
28 293 33T289 51Q290 59 300 85T326 147T358 222T389 295T414 351T425 376Z" />
<glyph unicode="v" glyph-name="v" horiz-adv-x="414" d="M445 384Q431 367 417 355T383 333Q381 362 372 373T349 384Q330 385 321 374T312 348Q312 333 317 325T328 313T340 306T348 302Q354 294 353 277T346 240T334 202T323 175Q315 159 300 133T263 81T215
38T160 20Q134 20 123 38T112 86Q112 120 124 162T155 245T197 317T242 364L233 383Q214 377 188 375T134 371Q108 371 83 373T38 381Q38 362 38 346Q38 330 34 316Q32 297 26 280T12 240L71 328Q90 331 102 331T125 334Q142 337 158 342T206 360Q189 349 171 332T141
303Q120 279 99 251T64 189T45 120T53 47Q64 17 87 4T140 -10Q183 -10 220 13T285 72T334 149T365 226Q379 271 383 317Q421 340 445 384Z" />
<glyph unicode="w" glyph-name="w" horiz-adv-x="570" d="M630 384Q616 367 602 355T568 333Q566 362 557 373T534 384Q515 385 506 374T496 349Q496 334 501 326T512 314T525 307T533 302Q539 294 537 277T530 241T518 203T507 176Q498 155 481 129T442 81T395
43T344 27Q327 27 319 32T307 45T303 61Q303 70 304 75Q305 83 309 97T320 126T333 155T345 179Q349 186 360 208T385 258T412 313T434 358T444 376H370Q369 375 360 358T336 312T306 255T279 203T264 173Q256 156 243 131T212 83T174 43T132 26Q114 26 106 44T98
85Q98 115 108 153T139 230T187 303T251 361L242 383Q222 377 196 374T143 371Q116 370 91 373T47 381Q47 362 46 346T43 316Q40 297 35 280T21 240L80 328Q99 331 111 331T134 334Q150 337 168 342T218 360Q201 349 182 336T146 307Q121 285 100 260T62 207T36
149T26 88Q26 71 30 54T43 22T68 -1T104 -10Q128 -10 148 -2T186 19T217 51T243 90Q239 74 239 57T246 24T272 0T325 -10Q368 -10 405 13T470 72T519 149T550 226Q557 249 561 271T568 317Q606 340 630 384Z" />
<glyph unicode="x" glyph-name="x" horiz-adv-x="425" d="M479 426Q471 454 424 454Q404 454 384 439T341 396Q314 363 283 317T218 221L201 309Q193 353 181 366T143 380Q126 380 108 370T74 343T44 306T23 264Q30 272 40 285T64 310T90 330T115 339Q123 339
128 332T135 316T139 298T141 284L167 143Q161 130 146 110T112 71T74 39T39 25Q32 25 30 29T28 38T26 50T21 60Q16 66 5 69T-17 65Q-30 57 -31 44T-27 19Q-15 -9 17 -9Q46 -9 69 4T110 37T144 79T171 119Q176 99 179 78T187 37Q193 11 207 1T239 -10Q256 -10 271
-3T299 15Q318 30 332 50T356 87Q330 63 312 49T273 34Q264 34 256 56T240 107T229 162T223 197Q231 209 245 231T276 278T312 328T349 375T384 409T413 422Q417 422 421 420T423 411Q422 406 421 399T420 384T427 372T447 366Q458 366 465 371T477 386T481 405T479
426Z" />
<glyph unicode="y" glyph-name="y" horiz-adv-x="415" d="M438 308Q421 281 401 257T356 211L424 376H351Q340 342 329 313T305 254Q292 223 272 178T224 92Q202 60 176 39T120 18Q105 18 99 28T94 50Q94 57 100 72T113 105T127 138T137 160Q143 172 154 195T177
245T196 295T205 334Q205 356 190 368T154 380Q134 380 115 372T78 352T45 325T18 294Q27 302 39 311T66 327T94 340T120 345Q131 345 134 340T138 325Q138 317 130 299T110 257T84 205T58 150T38 99T30 58Q30 27 49 9T97 -9Q121 -9 141 -3T176 14T204 37T224 61Q213
35 198 -3T165 -82T129 -164T94 -232L105 -245Q121 -240 136 -237T166 -232Q185 -230 204 -230Q224 -230 244 -229Q215 -211 185 -205Q221 -108 258 -19T337 167Q354 184 368 199T394 231T417 266T438 308Z" />
<glyph unicode="z" glyph-name="z" horiz-adv-x="457" d="M421 364L411 377Q388 376 365 374T319 372Q270 372 218 373T118 375Q115 367 113 363T110 354T106 344T99 330Q96 324 94 318T88 305T79 287T66 259Q83 285 105 302T151 331Q189 348 232 352T320 356L161
187L86 195L76 174H149Q109 134 71 93T-4 8L6 -6Q43 0 81 1T158 3Q206 3 251 2T341 0Q344 9 347 22T356 51Q362 69 370 86T383 115Q366 91 347 76T305 50Q280 39 253 35T199 29T146 29T97 30L234 174L342 166L352 187H246Q288 232 330 278T421 364Z" />
<glyph unicode="{" glyph-name="braceleft" horiz-adv-x="705" d="M668 213L338 544L7 213L338 -118L668 213ZM518 214Q517 160 487 127T402 93Q351 93 320 125T288 209Q288 234 297 256T321 294T358 320T406 330Q430 330 450 320T486 294T509 257T518 214ZM292
100H224H156L157 113L200 114Q202 139 202 163Q202 188 202 213Q202 237 202 261T201 308H157V321Q174 320 190 320Q207 320 224 320Q241 320 257 320Q274 320 291 321V308H250Q249 285 249 263Q249 241 249 218Q248 192 248 166Q248 140 248 114L292 113V100ZM495
204Q495 245 472 274T405 303Q385 303 371 294T347 271T333 240T328 205Q328 187 333 170T348 140T374 119T409 111Q447 111 471 139T495 204Z" />
<glyph unicode="|" glyph-name="bar" horiz-adv-x="414" d="M203 -253V740H184V-253H203Z" />
<glyph unicode="}" glyph-name="braceright" horiz-adv-x="705" d="M660 205L329 537L-2 205L329 -126L660 205ZM438 166Q438 143 431 121T410 82T375 53T327 42Q297 42 275 53T239 83T218 129T211 188Q211 229 218 268T242 339T283 390T344 409Q355 409 368 407T394
398T415 382T428 357Q431 340 424 332T406 323Q394 323 390 327T383 337Q380 345 380 355T377 374T368 389T348 395Q324 395 310 378T287 340T277 300T274 274Q297 291 334 291Q361 291 380 280T412 252T431 212T438 166ZM388 167Q388 188 385 208T374 243T355
269T328 279Q311 279 299 269T279 243T266 207T262 166Q262 145 266 125T279 88T299 63T327 54Q342 54 353 64T372 90T384 126T388 167Z" />
<glyph unicode="~" glyph-name="asciitilde" horiz-adv-x="1" d="M634 725L621 736L607 726L593 716Q571 701 552 704Q545 704 535 708T515 719T495 731T479 741Q468 748 459 750T442 752Q427 751 411 744T377 722L352 700L330 678L342 664L346 668L367 685Q379
695 388 698T407 699Q418 699 430 692T457 675T487 657T519 649Q534 648 549 655T585 680L610 702L634 725Z" />
</font>
</defs>
</svg>
