<?xml version="1.0" standalone="no"?> <!DOCTYPE svg PUBLIC "-//W3C//DTD SVG 1.0//EN" "http://www.w3.org/TR/2001/REC-SVG-20010904/DTD/svg10.dtd" > <svg xmlns="http://www.w3.org/2000/svg" width="100%" height="100%">
<defs >
<font horiz-adv-x="360" ><font-face
    font-family="ParmaPetit"
    units-per-em="1000"
    panose-1="2 0 5 6 9 0 0 2 0 3"
    ascent="611"
    descent="-234"
    alphabetic="0" />
<missing-glyph horiz-adv-x="500" />
<glyph unicode=" " glyph-name="space" horiz-adv-x="251" />
<glyph unicode="!" glyph-name="exclam" horiz-adv-x="214" d="M186 563Q186 569 181 580T168 602T152 622T137 631Q131 631 122 623T105 604T91 582T85 565Q85 531 90 498T99 432Q117 286 123 135H148Q150 210 156 283T172 431Q176 463 181 496T186 563ZM175
38Q175 59 163 69T136 80Q122 80 110 70T98 38Q98 16 110 6T136 -5Q151 -5 163 6T175 38Z" />
<glyph unicode="&quot;" glyph-name="quotedbl" horiz-adv-x="356" d="M284 537Q304 532 309 513T307 470T277 427T220 402L222 397Q260 400 285 415T324 451T340 497T335 541T308 574T261 588Q235 588 221 574T205 543T211 511T240 497Q256 497 261 504T267 519T271
534T284 537ZM93 537Q113 532 118 513T116 470T87 427T30 402L31 397Q69 400 95 415T134 451T150 496T145 540T118 573T71 587Q45 587 32 573T16 542T22 511T49 497Q67 497 72 504T78 519T80 534T93 537Z" />
<glyph unicode="#" glyph-name="numbersign" horiz-adv-x="648" d="M613 385Q562 385 511 384T409 379Q411 430 412 480T414 583H395Q395 532 396 481T399 379L343 375L399 371L403 312L408 371Q459 369 510 369T612 368L613 385ZM613 197L612 213Q510 213 408
210L403 269L399 210L343 206L399 203Q397 151 396 100T395 -2H414Q414 49 413 100T409 203Q460 199 511 198T613 197ZM293 375L237 379Q239 430 240 481T241 583H223Q223 531 224 481T228 379Q177 383 126 384T24 385V368Q75 368 126 368T229 371L233 312L237
371L293 375ZM293 206L237 210L233 269L229 210Q127 213 24 213V197Q75 197 126 198T228 203Q226 151 225 100T223 -2H241Q241 49 240 100T237 203L293 206Z" />
<glyph unicode="$" glyph-name="dollar" horiz-adv-x="483" d="M418 178Q418 223 405 252T367 301T311 333T241 356V566Q271 562 292 547T328 511T351 463T361 409H371Q368 446 368 472Q368 498 372 521T385 569T406 627L398 628L342 553Q296 585 241 593V673H223V594Q184
596 154 584T102 550T70 495T59 426Q59 385 72 358T107 313T160 282T223 260V21Q187 24 160 40T114 80T83 135T67 199H57Q67 133 62 77T23 -37L28 -41L94 43Q122 23 155 10T223 -6V-109H241V-6Q280 -5 313 9T369 47T405 105T418 178ZM223 361Q202 367 182 374T147
393T121 422T111 465Q111 488 120 507T144 539T180 560T223 568V361ZM370 143Q370 116 360 94T331 56T290 30T241 20V254Q263 248 285 240T327 220T358 190T370 143Z" />
<glyph unicode="%" glyph-name="percent" horiz-adv-x="494" d="M738 179Q738 241 716 282T659 343T586 363T512 341T456 279T434 177Q435 114 457 72T514 10T587 -11T659 11T715 74T738 179ZM503 563H473L210 0H242L503 563ZM278 385Q278 447 256 488T199 549T126
569T53 547T-3 485T-26 383Q-26 321 -4 279T53 216T126 195Q166 195 199 216T255 279T278 385ZM673 178Q673 122 661 84T629 27T588 7T546 24T514 80T501 176Q501 260 527 302T586 344Q619 344 646 303T673 178ZM213 384Q213 328 201 290T169 232T128 212T87 229T55
285T42 381Q42 438 54 476T86 532T127 551T168 532T200 476T213 384Z" />
<glyph unicode="&amp;" glyph-name="ampersand" horiz-adv-x="626" d="M599 84Q599 101 588 114T560 129Q544 131 533 123T522 97Q522 88 526 82T535 71T545 64T549 58Q549 48 544 42T531 33T514 28T497 26Q477 26 456 37T416 63T381 97T353 131Q361 144 376 173T408
233T444 287T478 310Q491 310 492 301T495 280T501 259T527 249Q541 249 551 260T561 285Q561 317 541 332T491 347Q462 347 438 325T395 272T361 208T336 152Q277 231 224 318Q238 330 252 344T278 375T297 410T305 448Q305 468 299 486T280 519T251 543T212 552Q182
552 162 542T129 515T110 474T104 424Q104 389 119 356T148 291Q124 277 99 261T51 223T15 177T1 120Q1 91 11 67T40 26T84 0T137 -10Q190 -10 235 16T315 80Q349 50 391 25T481 0Q499 0 519 5T558 20T587 47T599 84ZM273 450Q273 415 254 389T211 340Q204 351
194 368T175 403T160 440T154 471Q154 503 172 516T213 527T254 504T273 450ZM295 97Q273 68 241 52T174 36Q152 36 133 46T100 71T78 107T70 149Q70 169 78 187T99 220T128 247T161 269Q191 221 222 180T295 97Z" />
<glyph unicode="&apos;" glyph-name="quotesingle" horiz-adv-x="178" d="M112 537Q131 532 136 513T134 470T104 427T48 402L49 397Q87 400 113 415T152 451T168 496T163 540T136 573T89 587Q63 587 50 573T34 542T40 511T67 497Q84 497 89 504T95 519T99 534T112 537Z" />
<glyph unicode="(" glyph-name="parenleft" horiz-adv-x="358" d="M342 596L338 603Q280 577 229 539T140 453T79 346T57 221Q57 154 79 95T140 -16T228 -110T332 -185L337 -178Q243 -102 187 2T131 230Q131 287 145 340T187 441T253 528T342 596Z" />
<glyph unicode=")" glyph-name="parenright" horiz-adv-x="358" d="M305 221Q305 287 283 345T223 452T133 539T24 603L20 596Q70 568 109 529T175 442T216 341T230 230Q230 108 175 3T25 -178L30 -185Q84 -152 134 -110T222 -17T282 94T305 221Z" />
<glyph unicode="*" glyph-name="asterisk" horiz-adv-x="428" d="M360 565L344 580Q313 547 283 514T222 448Q257 477 292 505T360 565ZM217 631H196Q198 586 202 542T211 452Q212 497 213 541T217 631ZM407 420V441Q362 440 318 438T228 435Q273 431 317 427T407
420ZM360 304Q326 334 292 363T222 421L345 289L360 304ZM199 448H198Q167 481 137 514T76 580L61 564Q96 535 130 506T199 448ZM216 239Q214 284 213 329T209 419Q206 374 202 329T195 239H216ZM192 435Q147 436 103 438T13 442V420Q58 422 102 426T192 435ZM197
421Q162 392 127 364T59 304L75 289Q106 322 136 355T197 421Z" />
<glyph unicode="+" glyph-name="plus" horiz-adv-x="648" d="M614 284V306Q547 303 480 302T346 296Q413 293 480 290T614 284ZM327 587H305Q308 520 309 453T315 319Q318 386 321 453T327 587ZM326 0Q322 67 321 134T315 268Q312 201 309 134T303 0H326ZM287
296Q220 300 153 301T19 306V284Q86 286 153 289T287 296Z" />
<glyph unicode="," glyph-name="comma" horiz-adv-x="178" d="M85 40Q105 34 110 14T108 -29T78 -71T22 -95L23 -100Q61 -97 87 -82T126 -46T142 -1T137 43T110 76T63 90Q37 90 24 76T8 45T14 14T41 0Q59 0 64 7T70 23T72 37T85 40Z" />
<glyph unicode="-" glyph-name="hyphen" horiz-adv-x="286" d="M243 167V225H36V167H243Z" />
<glyph unicode="." glyph-name="period" horiz-adv-x="93" d="M82 38Q82 59 70 69T43 80Q29 80 17 70T5 38Q5 17 17 6T43 -5Q58 -5 70 5T82 38Z" />
<glyph unicode="/" glyph-name="slash" horiz-adv-x="393" d="M360 637H329L-3 -72L29 -73L360 637Z" />
<glyph unicode="0" glyph-name="zero" horiz-adv-x="494" d="M456 225Q456 302 425 352T348 428T247 452T146 426T69 349T39 223Q40 145 71 94T148 16T248 -10T348 17T425 95T456 225ZM370 224Q370 153 352 105T307 33T249 8T191 30T146 101T128 221Q128 275 138
315T166 381T204 421T249 434Q272 434 293 420T332 380T359 315T370 224Z" />
<glyph unicode="1" glyph-name="one" horiz-adv-x="304" d="M283 2V4L196 26Q194 126 195 224T198 423L283 438V444Q149 438 15 444V439L104 422Q104 322 105 224T102 26L15 4V2Q82 4 149 3T283 2Z" />
<glyph unicode="2" glyph-name="two" horiz-adv-x="494" d="M462 171H459Q427 133 400 110T350 78Q339 74 327 73T298 71H215Q241 94 269 121T320 180T358 244T373 313Q373 346 361 372T327 416T278 444T219 454Q162 454 126 440T69 403T44 356T43 309T62 273T95
258Q110 258 121 269T134 296Q135 303 133 309T128 324Q119 339 114 353Q108 367 109 382T131 412Q144 421 160 424T194 424T226 414T252 395Q276 372 285 338T294 271Q294 219 274 181T222 115T148 68T64 36L69 2Q84 3 112 4T174 6T244 7Q281 7 314 7T373 4T413
-2Q424 42 436 84T462 171Z" />
<glyph unicode="3" glyph-name="three" horiz-adv-x="494" d="M441 -38Q441 4 427 34T387 86T328 121T254 143Q281 158 306 175T352 212T385 258T397 315Q397 362 370 393T302 439T214 454T126 442T58 403T31 339Q31 310 44 298T73 286Q89 286 102 295T116 319Q116
331 114 339T107 354Q103 362 101 365Q98 369 98 374Q98 389 106 399T128 414T155 422T180 425Q235 425 271 391T308 300Q308 258 292 227T249 171T190 130T122 99L129 90Q164 106 199 106Q248 106 281 83T330 26T345 -49T326 -123T270 -181T177 -204Q166 -204
150 -201T117 -190T90 -172T78 -147Q78 -139 81 -132T89 -118T98 -104T102 -88Q102 -71 93 -59T66 -47Q43 -47 31 -60T16 -94T24 -138T56 -182T114 -216T200 -230Q245 -230 288 -219T366 -185T420 -125T441 -38Z" />
<glyph unicode="4" glyph-name="four" horiz-adv-x="494" d="M475 67L351 65V340H270V64H66Q117 159 169 254T270 444H231Q171 337 111 232T-10 19L-1 2Q66 7 132 7T267 6V-231H354L352 5Q381 5 409 4T464 1L475 67Z" />
<glyph unicode="5" glyph-name="five" horiz-adv-x="494" d="M444 -21Q444 31 428 70T381 135T310 175T218 189Q209 189 196 186T169 179T142 168T121 156Q121 207 123 256T127 355Q156 355 181 355T229 354Q252 355 270 357T305 366Q336 378 353 411T370 516L364
515Q362 502 358 488T343 463Q338 457 321 454T279 448T227 444T173 443Q147 443 127 443T96 445L97 130L110 124Q124 138 147 146T191 154Q229 154 259 140T310 100T342 43T353 -26Q353 -62 343 -94T312 -151T261 -189T193 -204Q183 -204 165 -202T130 -193T102
-175T93 -147Q94 -137 100 -129T112 -114T123 -99T128 -81Q128 -61 116 -51T83 -40Q61 -40 48 -54T32 -89T36 -136T64 -182T116 -218T196 -232Q245 -232 290 -219T369 -180T424 -115T444 -21Z" />
<glyph unicode="6" glyph-name="six" horiz-adv-x="494" d="M421 581Q417 607 401 625T363 655T316 672T266 677Q216 677 179 657T114 605T68 529T38 441T22 349T17 264Q17 210 28 161T64 74T131 14T234 -9Q303 -9 348 25T416 111T439 223T419 334T354 420T246
455Q215 455 187 448T131 421Q132 452 140 492T165 569T208 630T273 654Q304 653 316 637T333 593Q335 581 335 569T340 544Q345 529 360 522T390 519T415 537T421 581ZM350 224Q350 151 332 103T288 32T230 9T172 34T127 105T109 221Q109 272 119 311T146 378T184
421T229 438Q252 439 274 427T313 389T340 321T350 224Z" />
<glyph unicode="7" glyph-name="seven" horiz-adv-x="494" d="M446 430L434 445H92Q76 402 58 361T19 278L28 272Q35 283 43 295T62 320T85 341T111 354Q130 359 164 360T237 362Q275 361 312 361T373 359Q358 324 335 286T295 216Q265 158 235 101T173 -14Q157
-43 141 -73T112 -135Q100 -164 103 -184T117 -215T146 -230T179 -230T206 -214T218 -184Q218 -174 215 -162T202 -145Q198 -143 193 -143Q185 -141 175 -139T165 -126Q165 -119 175 -95T204 -34T245 46T292 137Q316 183 340 228T386 313T422 383T446 430Z" />
<glyph unicode="8" glyph-name="eight" horiz-adv-x="494" d="M448 186Q446 242 420 279T351 349Q337 359 323 369T292 390Q318 406 342 423T385 462T415 508T427 565Q427 616 401 649T334 699T248 716T161 697T94 644T67 556Q67 526 77 498T105 444T146 397T195
359Q164 347 136 332T86 296T51 249T38 186Q38 137 56 101T103 40T170 4T247 -8Q286 -8 323 4T388 41T433 102T448 186ZM268 404Q246 422 222 442T179 487T146 538T133 597Q133 621 142 639T166 669T201 687T243 693Q278 693 300 676T333 632T344 572Q344 539 335
507T309 448T268 404ZM372 136Q372 110 361 87T332 48T291 22T242 12Q208 12 185 28T147 69T126 124T119 182Q119 239 146 276T219 344Q246 326 273 305T322 258T358 202T372 136Z" />
<glyph unicode="9" glyph-name="nine" horiz-adv-x="494" d="M450 182Q450 235 439 284T402 372T335 432T233 454Q164 453 119 419T50 334T27 223T51 112T120 26T234 -10Q265 -11 293 -4T349 24Q348 -7 340 -47T315 -124T272 -185T207 -209Q176 -208 164 -192T147
-148Q145 -136 145 -124T140 -99Q135 -84 120 -78T90 -75T65 -93T59 -136Q63 -162 79 -180T117 -210T164 -227T214 -232Q263 -232 300 -212T363 -159T406 -82T433 7T446 98T450 182ZM358 224Q358 153 340 105T295 33T237 8T179 30T134 101T116 221Q116 275 126
315T154 383T192 423T237 436Q260 436 281 422T320 382T347 316T358 224Z" />
<glyph unicode=":" glyph-name="colon" horiz-adv-x="93" d="M85 281Q85 302 73 313T46 324Q32 324 20 314T8 281Q8 259 20 249T46 238Q61 238 73 249T85 281ZM82 38Q82 59 70 69T43 80Q29 80 17 70T5 38Q5 17 17 6T43 -5Q58 -5 70 5T82 38Z" />
<glyph unicode=";" glyph-name="semicolon" horiz-adv-x="172" d="M99 281Q99 303 87 313T60 324Q46 324 34 313T22 281Q22 260 34 249T60 238Q75 238 87 248T99 281ZM100 40Q120 34 125 14T123 -29T93 -71T37 -95L38 -100Q76 -97 101 -82T140 -46T156 -1T151
43T125 76T78 90Q52 90 39 76T23 45T29 14T56 0Q74 0 79 7T85 23T87 37T100 40Z" />
<glyph unicode="&lt;" glyph-name="less" horiz-adv-x="505" d="M462 -7V50L108 211L462 372V428L38 237V185L462 -7Z" />
<glyph unicode="=" glyph-name="equal" horiz-adv-x="573" d="M562 298V335H7V298H562ZM562 152V188H7V152H562Z" />
<glyph unicode="&gt;" glyph-name="greater" horiz-adv-x="505" d="M467 185V237L43 428V372L398 211L43 50V-7L467 185Z" />
<glyph unicode="?" glyph-name="question" horiz-adv-x="339" d="M316 458Q316 505 294 536T239 584T167 602T95 591T39 551T17 482Q17 465 26 450T48 425T75 416T100 434Q112 453 106 461T88 475T64 484T52 499Q51 524 65 541T100 568T146 579T193 571T229 541T244
488Q244 463 234 444T210 407T180 367T155 314T141 240T149 135H159Q151 182 159 213T185 266T225 307T268 345T302 392T316 458ZM194 37Q194 58 182 68T155 79Q141 79 129 69T117 37Q117 16 129 6T155 -5Q170 -5 182 5T194 37Z" />
<glyph unicode="@" glyph-name="at" horiz-adv-x="670" d="M604 212Q604 273 586 321T533 404T451 456T341 475Q280 475 227 452T134 389T71 296T48 182Q48 121 71 68T133 -25T226 -88T341 -111V-89Q285 -89 236 -68T149 -10T91 76T70 182Q70 238 91 287T149 373T235
431T341 453Q454 453 518 389T582 212Q582 167 567 132T525 65Q523 63 518 57T506 45T495 33T489 28Q481 28 476 35T471 50Q471 83 471 116T473 182H520V186Q509 190 497 193T474 199Q474 228 474 260Q474 293 463 320Q454 342 433 355T384 374T328 376T276 361T237
331T221 286Q221 268 231 259T255 250T278 257T289 280Q289 297 280 307T270 319Q270 328 278 334T296 345T318 351T336 353Q373 353 387 333T402 278V200Q373 198 338 192T271 171T218 132T196 71Q196 34 219 14T278 -6Q311 -6 345 5T401 43Q401 18 418 5T458
-8Q489 -8 516 17T562 77T593 150T604 212ZM401 69Q367 35 339 31T294 38T271 75T276 123T317 164T401 182V69Z" />
<glyph unicode="A" glyph-name="A" horiz-adv-x="515" d="M529 0V6L468 23Q415 168 364 311T263 600H227Q201 493 170 390T109 180Q77 178 65 190T62 237Q43 205 49 178T96 141Q88 111 77 82T55 24L-8 6V0Q87 3 182 0V6L100 23L133 138Q156 140 182 151T234 173T281
191T317 191L372 23L300 6V0Q357 2 414 2Q472 2 529 1V0ZM313 204Q303 218 283 224T246 230Q236 230 223 226T197 217T171 205T149 194Q167 261 186 327T226 459Q247 395 269 332T313 204Z" />
<glyph unicode="B" glyph-name="B" horiz-adv-x="499" d="M459 163Q459 205 442 232T398 275T336 299T267 310Q300 317 330 328T384 356T421 399T434 464Q433 498 419 522T381 562T327 585T267 592Q198 592 131 589T-5 588L-4 582L83 561Q80 427 82 294T84 26L-9
6L-10 -2Q32 -4 74 -1T158 1Q188 1 222 1Q257 1 290 5T354 18T408 46T445 92T459 163ZM352 454Q352 412 336 386T294 344T235 324T167 318Q167 381 167 442T168 567H226Q251 567 274 560T314 538T342 502T352 454ZM374 163Q374 121 355 95T305 52T238 30T167 24V295Q201
295 237 291T304 273T354 233T374 163Z" />
<glyph unicode="C" glyph-name="C" horiz-adv-x="552" d="M521 14Q514 67 516 121T521 228H512Q508 188 494 151T455 84T396 37T318 19Q261 19 225 44T166 109T136 197T126 292Q125 334 134 382T164 473T220 543T307 571Q397 571 444 519T493 380H502Q498 429
502 477T515 574H509L476 543Q434 575 395 587T303 600Q235 600 184 574T97 505T44 407T26 294Q26 237 43 182T96 85T186 16T314 -11Q358 -11 399 3T475 45L517 12L521 14Z" />
<glyph unicode="D" glyph-name="D" horiz-adv-x="593" d="M563 305Q563 384 541 438T477 527T376 575T242 590Q188 590 135 589T28 587V580L115 563Q120 429 116 294T114 24L22 8V0H235Q308 0 368 19T471 76T539 172T563 305ZM245 26H199Q193 160 194 294T198
562H243Q323 562 374 523T449 423T471 294T443 165T366 66T245 26Z" />
<glyph unicode="E" glyph-name="E" horiz-adv-x="537" d="M493 190H486Q478 120 452 85T385 37T294 24T188 26L183 300Q225 299 257 300T313 294T351 263T373 188H380Q380 249 379 309T381 431H374Q376 385 359 363T313 332T249 323Q215 323 184 323L187 560Q233
560 276 561T356 552T418 514T455 430H462Q460 471 458 511T459 593Q348 583 239 585T18 587V580L101 564Q105 295 101 27L6 7V0Q36 2 66 2Q97 2 127 2Q215 2 303 -1T479 -5Q481 44 484 92T493 190Z" />
<glyph unicode="F" glyph-name="F" horiz-adv-x="483" d="M461 430Q459 472 458 512T459 594Q349 586 239 585T18 587V578L101 562Q104 294 101 26L6 6V0Q144 3 283 0V6L186 26L184 300Q225 299 257 300T313 294T352 262T373 188H380Q378 249 378 309Q378 370
381 431H374Q374 384 357 362T313 332T252 323T184 323L187 558Q232 558 276 559T356 551T419 514T455 430H461Z" />
<glyph unicode="G" glyph-name="G" horiz-adv-x="574" d="M600 257V263Q538 263 477 262T354 263V258L441 239Q441 213 441 188T442 137Q442 93 419 64T362 24T288 21T213 61T156 147T133 285Q133 328 141 378T169 471T225 542T314 571Q404 571 451 519T500 380H509Q505
429 510 477T522 574H516L483 543Q443 574 403 587T312 601Q242 601 190 575T103 505T51 407T34 294Q34 236 52 181T105 83T192 14T315 -13Q381 -13 439 15T531 103V239L600 257Z" />
<glyph unicode="H" glyph-name="H" horiz-adv-x="641" d="M627 0H626V6L532 23Q530 159 530 293Q530 428 532 564L626 582V587Q557 585 490 585T354 588V582L451 564V312Q379 310 309 310T167 312V564L263 582V587Q194 585 126 585T-12 588V582L83 564Q83 428
84 294T83 23L-12 6V0Q126 3 264 0L263 6L167 23V282Q238 284 309 284Q380 284 451 282V23L354 6V0Q490 3 627 0Z" />
<glyph unicode="I" glyph-name="I" horiz-adv-x="327" d="M298 0V6L203 23Q201 159 201 293Q201 428 203 564L298 582V587Q229 587 161 587T23 588V582L119 564Q124 293 119 23L23 6V0Q92 0 160 1T298 0Z" />
<glyph unicode="J" glyph-name="J" horiz-adv-x="389" d="M407 581V586Q338 584 269 584T131 587V581L224 563Q226 504 227 446T228 328Q228 308 229 277T230 212T225 143T209 80T179 35T128 17Q122 17 115 18T102 21T91 28T86 41Q86 46 89 49T97 57T104 67T109
86Q110 107 97 119T66 133T33 122T18 81Q18 54 32 35T69 5T121 -9T179 -6T233 14T276 53Q292 76 300 110T311 182T314 256T313 321Q312 442 313 563L407 581Z" />
<glyph unicode="K" glyph-name="K" horiz-adv-x="549" d="M550 -32Q532 -32 528 -41T523 -62T521 -83T508 -93Q487 -93 478 -76T464 -31T459 33T454 106T438 180T404 244T341 289T240 306Q294 374 349 438T467 562L543 581V588Q438 585 333 588V582L418 564Q361
494 301 428T182 294V288Q197 287 214 287T249 284T283 276T311 260Q332 242 340 207T353 130T362 45T381 -34T422 -93T499 -116Q530 -116 546 -103T568 -74T568 -45T550 -32ZM278 0V6L187 23Q185 92 183 160T181 297Q181 364 183 430T187 564L273 582V587Q207
585 142 585T11 588V582L98 564Q100 428 100 293Q100 159 98 23L5 6V0Q141 3 278 0Z" />
<glyph unicode="L" glyph-name="L" horiz-adv-x="514" d="M489 190H482Q473 120 447 85T381 37T291 24T185 26Q180 161 181 294T183 563L283 581V586Q212 584 143 584T2 587L3 581L97 563Q97 428 97 295T96 26L2 7V0Q120 9 238 3T474 -5Q477 44 480 92T489 190Z" />
<glyph unicode="M" glyph-name="M" horiz-adv-x="711" d="M682 0V6L590 23Q588 158 587 292T588 561L681 581V587H479Q444 478 409 370T336 152Q301 261 265 369T197 587Q146 587 98 586T-2 587V581L88 558Q90 424 91 291T90 24L-5 6V0Q105 3 216 0V6L120 23Q120
87 119 151T117 279Q117 349 117 419T118 559Q163 419 208 280T297 0H316Q363 140 408 280T500 560Q503 423 503 288Q503 222 503 156T502 23L410 6V0Q546 3 682 0Z" />
<glyph unicode="N" glyph-name="N" horiz-adv-x="590" d="M608 581V586Q551 586 495 586T381 587V581L479 563L478 147Q406 258 332 365T194 587Q98 584 3 587V581Q27 576 51 571T98 558Q99 486 100 415T101 272Q100 209 100 148T99 23L8 6V0Q120 3 232 0L233
6L130 23L126 534Q213 400 298 267T471 0H514Q509 142 508 281T515 563L608 581Z" />
<glyph unicode="O" glyph-name="O" horiz-adv-x="631" d="M602 299Q602 373 578 429T513 522T422 578T318 597Q265 597 214 579T123 523T59 429T34 297Q34 220 58 163T123 68T214 11T318 -8T422 12T513 70T577 166T602 299ZM496 308Q496 207 470 141T403 42T316
10T229 43T163 138T136 295Q136 390 162 453T229 547T316 579T403 550T469 460T496 308Z" />
<glyph unicode="P" glyph-name="P" horiz-adv-x="475" d="M452 439Q452 474 438 501T401 548T347 577T283 587Q220 587 157 584T30 587L28 581L102 561V348Q91 356 82 366T63 386L60 383Q68 366 78 351T102 324Q102 248 101 173T100 22L5 6V0Q143 3 282 0V6L184
23Q182 87 183 151T184 279Q201 275 218 273T252 270Q289 270 325 281T389 314T434 367T452 440V439ZM245 556Q287 556 313 537T351 489T361 426T344 364T302 316T237 296Q223 296 210 298T184 303V557Q199 556 214 556Q230 556 245 556Z" />
<glyph unicode="Q" glyph-name="Q" horiz-adv-x="631" d="M808 -212Q794 -176 773 -139T722 -72T657 -24T577 -5Q566 -5 539 -15T477 -37T406 -60T343 -71Q317 -71 305 -57T307 -7Q380 -7 435 18T527 86T583 183T602 294T586 405T533 502T444 571T320 597Q250
597 197 572T107 506T53 413T33 305T47 195T96 98T181 26T301 -8Q285 -29 285 -52T298 -95T331 -126T377 -139Q409 -139 439 -127T499 -100T561 -73T625 -60Q658 -60 685 -74T733 -110T772 -159T803 -212H808ZM496 308Q496 207 470 141T403 42T316 10T229 43T163
138T136 295Q136 390 162 453T229 547T316 579T403 550T469 460T496 308Z" />
<glyph unicode="R" glyph-name="R" horiz-adv-x="502" d="M553 -61Q555 -44 549 -35T533 -24T514 -26T502 -40Q501 -44 501 -51Q501 -58 501 -64Q501 -71 500 -77T497 -85Q491 -92 483 -90T468 -80T456 -65T448 -52Q437 -27 438 9T440 87T430 170T390 248Q367
274 334 287T269 309Q300 314 332 324T390 351T432 394T448 458Q448 496 433 521T392 563T336 586T271 593Q207 593 144 589T15 587V579L98 561Q98 427 100 294T99 26L7 6V0Q142 3 277 0V6L183 23Q185 92 184 159T182 296Q201 295 221 294T260 287T295 272T323
244Q340 217 345 181T351 105T355 28T369 -40T407 -88T482 -107Q492 -107 504 -105T526 -97T544 -82T553 -61ZM365 453Q364 385 323 354T218 321L182 320Q182 382 182 443T180 567H237Q263 567 286 560T327 538T355 503T365 453Z" />
<glyph unicode="S" glyph-name="S" horiz-adv-x="463" d="M418 177Q418 236 396 269T339 320T265 349T191 371T134 404T111 465Q111 497 128 520T172 556T229 567T288 549T336 498T361 409H371Q368 446 368 472Q368 498 372 521T385 568T406 627L398 628L342 553Q296
585 246 592T155 584T86 528T59 426Q59 372 82 341T139 292T214 263T289 239T347 204T370 143Q370 103 350 75T298 33T229 20T158 41T99 99T67 199H57Q67 134 62 78T23 -37L28 -41L94 43Q143 7 200 -2T305 6T386 66T418 178V177Z" />
<glyph unicode="T" glyph-name="T" horiz-adv-x="531" d="M515 389Q513 440 514 488T515 588Q388 588 263 586T11 588Q16 539 13 489T8 389L15 388Q19 446 32 478T71 527T133 549T224 556V23L126 6V0Q270 3 414 0V6L315 23V556Q372 557 407 553T463 531T492 480T506
388L515 389Z" />
<glyph unicode="U" glyph-name="U" horiz-adv-x="559" d="M581 583V588Q471 585 362 588L363 582L458 565Q459 493 460 422T460 279Q458 232 455 186T436 103T387 43T293 20Q243 20 215 44T174 104T159 182T156 262Q156 338 156 413T156 565L262 583V588Q121 585
-20 588V582L70 565Q70 483 70 402T71 238Q71 185 80 139T113 60T176 7T276 -12Q340 -12 381 6T447 58T480 139T490 245Q490 326 490 405T489 565L581 583Z" />
<glyph unicode="V" glyph-name="V" horiz-adv-x="526" d="M532 580V587Q478 587 424 587T316 588V582L417 564Q388 454 355 347T288 130Q247 239 207 346T133 565L228 582V588Q94 585 -40 588V582L36 564Q65 489 94 417T151 269Q178 198 202 127T250 -17H278Q322
129 365 273T455 564L532 580Z" />
<glyph unicode="W" glyph-name="W" horiz-adv-x="693" d="M731 583V588Q635 585 539 588V582L623 563Q591 454 558 347T492 130Q454 239 414 346T341 565L414 582V587H-49V582L24 565Q76 418 130 275T232 -18H262Q281 60 303 137T352 291Q380 213 407 137T459
-18H482Q517 131 563 274T655 563L731 583ZM335 338L272 130Q232 239 194 346T120 564Q147 570 160 573T184 577Q195 577 208 574T249 564L335 338Z" />
<glyph unicode="X" glyph-name="X" horiz-adv-x="507" d="M546 0V6L469 23Q427 100 384 174T299 326Q336 386 373 445T449 564L524 582V587Q474 587 425 586T326 587V581L413 563L283 354L168 563L252 582V587Q189 587 126 586T0 587L1 581L74 563Q114 491 154
419T234 275Q194 212 154 149T72 23L-8 6V0Q94 3 196 0V6L113 23L251 247L371 23L288 6V0Q417 3 546 0Z" />
<glyph unicode="Y" glyph-name="Y" horiz-adv-x="515" d="M524 582V587Q475 587 427 586T329 587V581L405 563Q374 498 340 437T271 312L140 563L219 582V587Q95 584 -31 587V581L40 563Q44 557 57 535T88 481T125 416T161 352T188 302T199 279V23L100 6V0Q240
3 381 0V6L284 23V278Q325 350 365 420T446 562L524 582Z" />
<glyph unicode="Z" glyph-name="Z" horiz-adv-x="537" d="M476 573L466 587Q364 587 263 586T59 591Q56 545 52 500T42 408H52Q58 452 69 481T100 527T150 552T226 560H378Q293 422 208 287T32 17L44 0Q64 0 82 0Q101 0 121 1Q206 3 290 0T460 -5Q465 44 467 92T475
190H468Q466 172 462 153T449 114T429 79T401 53Q379 39 344 33T271 26T196 25T133 27L476 573Z" />
<glyph unicode="[" glyph-name="bracketleft" horiz-adv-x="259" d="M240 -197V-189L118 -173V590L238 606V613H42V-197H240Z" />
<glyph unicode="\" glyph-name="backslash" horiz-adv-x="722" d="M708 291V292Q708 362 681 424T607 534T498 608T365 635Q294 635 232 608T123 534T49 425T21 292Q21 221 48 159T122 50T231 -24T364 -52Q434 -52 497 -25T606 49T680 158T708 291ZM668 300Q668
236 642 194T576 132T489 112Q443 112 404 133T338 194T311 293Q311 332 325 366T363 425T421 465T494 480Q531 480 562 466T617 426T654 369T668 300ZM288 123Q235 123 183 124T78 123V144L145 145Q150 220 149 295T147 446H78V467Q130 464 182 464T287 467V446H223Q220
296 220 145L288 144V123ZM620 289Q620 358 587 400T480 443Q450 443 428 429T391 394T369 345T361 292Q361 241 380 209T427 161T490 147T552 164T600 212T620 289Z" />
<glyph unicode="]" glyph-name="bracketright" horiz-adv-x="259" d="M203 -197V613H7V606L127 590V-173L5 -189V-197H203Z" />
<glyph unicode="^" glyph-name="asciicircum" horiz-adv-x="353" d="M333 648L174 789L12 648L24 632L173 721L322 632L333 648Z" />
<glyph unicode="_" glyph-name="underscore" horiz-adv-x="251" />
<glyph unicode="`" glyph-name="grave" horiz-adv-x="123" d="M129 438Q112 476 96 514T63 590Q61 596 56 605T45 621T30 633T13 633Q5 630 3 624T0 610T3 595T9 582Q31 542 59 504T113 429L129 438Z" />
<glyph unicode="a" glyph-name="a" horiz-adv-x="381" d="M360 65H353Q350 54 343 41T321 28Q313 28 308 35T303 50Q303 83 303 116T305 182H352V186Q341 190 329 193T306 199Q306 228 306 260Q306 293 295 320Q286 342 265 355T216 374T160 376T108 361T69 331T53
286Q53 268 63 259T87 250T110 257T121 280Q121 297 112 307T102 319Q102 328 110 334T128 345T150 351T168 353Q205 353 219 333T234 278V200Q205 198 170 192T103 171T50 132T28 71Q28 34 51 14T110 -6Q143 -6 177 5T233 43Q233 18 250 5T290 -8Q307 -8 319 -2T338
14T351 37T360 65ZM233 69Q199 35 171 31T126 38T103 75T108 123T149 164T233 182V69Z" />
<glyph unicode="b" glyph-name="b" horiz-adv-x="462" d="M258 -11Q315 -10 353 19T411 91T431 184T413 276T356 347T258 375Q223 375 194 362T139 326Q139 398 138 470T142 614L128 623Q93 606 64 599T-3 587L-2 582L68 571Q69 560 69 550T68 529Q68 512 68 481Q68
451 68 418Q68 385 68 354T69 303Q69 285 69 283Q69 283 64 273T51 248T34 212T18 172L22 170L65 235Q64 182 64 129T63 23L5 10V5Q37 2 67 -1T129 -12L138 -3V33Q164 12 194 0T258 -11ZM238 15Q209 15 185 26T138 58L139 293Q156 314 183 331T238 348Q275 348
300 324T337 262T349 182T336 101T299 40T238 15Z" />
<glyph unicode="c" glyph-name="c" horiz-adv-x="391" d="M403 372L402 376Q382 369 363 361T325 342Q305 359 280 367T229 375Q162 375 118 347T53 276T31 183T52 91T114 19T215 -11Q310 -12 362 68L358 72Q330 41 303 29T234 16Q201 16 178 32T139 72T117 126T109
184Q109 211 114 241T133 296T169 338T224 355Q230 355 241 354T264 350T282 340T288 323Q286 314 281 307T274 290Q270 270 280 258T310 246Q327 246 336 254T348 276T348 303T338 328Q369 354 403 372Z" />
<glyph unicode="d" glyph-name="d" horiz-adv-x="477" d="M439 6V14L381 28V177L415 129L418 132L381 212Q381 310 382 407T385 602L370 611Q341 592 304 589T233 588V580L306 563V334Q283 356 253 365T192 375Q132 375 93 347T35 276T17 183T38 91T99 20T200
-9Q229 -9 259 4T307 42V-3L326 -12Q354 -5 382 1T439 6ZM306 72Q267 19 202 19Q174 19 154 35T122 75T103 126T97 177Q97 238 112 274T151 328T201 346T252 338T290 314T306 284V72Z" />
<glyph unicode="e" glyph-name="e" horiz-adv-x="412" d="M377 273Q377 305 362 325T324 356T272 371T219 375Q167 375 125 352T56 283Q51 274 46 262T38 239L-6 251L-8 245L35 223Q26 168 39 125T79 51T143 4T219 -13T295 6T361 64L354 68Q328 41 305 29T243
16Q205 16 179 32T136 76T114 136T109 203Q138 198 167 195T225 192Q244 192 270 194T320 205T360 230T377 273ZM301 294Q301 263 289 248T257 226T214 219T169 218Q155 218 141 219T112 222Q116 265 131 293T168 336T212 355T255 353T288 332T301 294Z" />
<glyph unicode="f" glyph-name="f" horiz-adv-x="268" d="M305 525Q305 545 297 559T275 582T244 595T209 599Q155 599 124 578T78 522T58 446T54 361H5V356L53 343Q55 203 55 66T53 -211L-10 -228V-233Q42 -233 93 -233T197 -234V-228L131 -211Q132 -136 130
-62T126 88Q125 152 125 215T126 342L230 354V362H126Q126 384 126 420T131 490T153 550T204 575Q225 575 233 559Q238 548 238 535T242 510Q247 498 257 494T278 491T297 501T305 525Z" />
<glyph unicode="g" glyph-name="g" horiz-adv-x="401" d="M394 356Q385 375 369 380T336 380T306 357T289 317Q262 352 218 365T131 372T57 335T26 256Q26 223 39 196T77 147Q57 136 39 120T20 79Q20 40 44 19T106 -15T185 -35T265 -53T326 -81T351 -130Q351 -155
334 -171T288 -197T226 -213T158 -220T96 -222T51 -224V-233H208Q239 -233 271 -228T331 -208T375 -170T392 -107Q392 -64 368 -39T306 3T226 27T146 44T85 64T60 97Q60 111 71 121T94 138Q111 127 130 123T170 119Q208 119 234 132T277 167T300 219T306 284Q306
290 306 301T309 322T317 339T332 347Q337 347 339 340T345 326T356 313T378 310Q394 313 396 328T394 356ZM239 252Q239 189 217 160T167 132T117 164T94 249Q94 302 116 328T166 354Q194 354 216 328T239 252Z" />
<glyph unicode="h" glyph-name="h" horiz-adv-x="483" d="M457 0V5L400 23Q401 70 401 116Q401 163 401 210Q401 248 396 278T375 330T333 363T263 375Q231 375 203 362T151 327Q151 396 152 464T156 602L144 615Q114 601 81 596T15 588L16 580L77 568V250Q77
248 72 238T61 214T49 188T41 172L45 170L77 219V23L14 5V0Q112 3 210 0V5L151 23V296Q158 306 171 315T198 331T228 343T255 348Q283 348 298 334T319 300T326 255T327 211V24L268 5V0Q362 3 457 0Z" />
<glyph unicode="i" glyph-name="i" horiz-adv-x="233" d="M181 538Q181 562 166 574T132 587Q114 587 99 575T83 538Q83 514 98 502T132 489Q150 489 165 501T181 538ZM224 0V5L166 23Q166 114 164 204T167 386L153 395Q132 383 117 377T88 367T58 361T20 355V350L90
339Q94 260 93 181T90 23L27 5V0Q125 3 224 0Z" />
<glyph unicode="j" glyph-name="j" horiz-adv-x="233" d="M166 538Q166 562 151 574T117 587Q99 587 84 575T68 538Q68 514 83 502T117 489Q135 489 150 501T166 538ZM153 398L139 407Q119 396 104 390T73 380T40 373T2 367L3 362L73 351Q79 239 78 128T78 -95Q78
-107 78 -124T77 -159T70 -192T55 -216Q50 -220 43 -221T31 -218Q29 -216 31 -211T33 -203Q31 -190 21 -183T-1 -175Q-13 -175 -22 -183T-31 -211Q-31 -232 -13 -242T30 -250T81 -230T122 -179Q135 -150 141 -106T151 -11T154 97T152 207T151 311Q151 361 153 398Z"
/>
<glyph unicode="k" glyph-name="k" horiz-adv-x="432" d="M580 -60Q580 -47 572 -40T554 -33T536 -37T526 -54Q526 -57 527 -63T529 -75T528 -86T520 -91Q501 -91 475 -72T418 -24T357 42T297 113T247 177T211 223Q224 239 243 262T283 306T327 342T373 357V362Q337
360 299 360Q262 360 226 362V357L281 339Q249 300 215 263T147 189Q167 164 192 132T245 66T305 0T370 -58T439 -99T509 -115Q521 -115 534 -112T557 -102T573 -85T580 -60ZM198 0V5L146 23V405Q146 455 147 504T152 603L139 616Q110 597 77 594T10 589L11 581L71
568Q71 431 72 295T69 22L6 5V0Q102 3 198 0Z" />
<glyph unicode="l" glyph-name="l" horiz-adv-x="218" d="M207 0V5L148 23Q146 169 146 312Q146 456 153 602L141 615Q110 601 77 596T11 588V580L73 568V23L10 5V0Q108 3 207 0Z" />
<glyph unicode="m" glyph-name="m" horiz-adv-x="675" d="M656 0V5L599 23Q597 116 599 209Q599 245 595 275T578 328T538 362T469 375Q431 375 409 357T366 310Q353 346 327 360T264 375Q228 375 200 356T150 309V370L141 377Q108 371 82 369T23 364V358L76 343Q78
262 77 183T76 23L12 5V0Q111 3 211 0V5L151 23Q146 153 151 283Q158 292 169 303T194 324T222 340T248 347Q267 347 278 339T294 319T301 291T303 261V23L244 5V0Q339 3 435 0V5L375 23Q375 155 372 289Q389 312 409 330T461 348Q488 348 501 334T520 298T526
253Q526 229 526 211V24L467 5V0Q561 3 656 0Z" />
<glyph unicode="n" glyph-name="n" horiz-adv-x="445" d="M454 0V5L397 23Q397 70 397 116Q397 163 396 210Q396 248 391 278T370 330T328 363T257 375Q225 375 198 362T147 327Q147 337 147 347T148 367L134 376Q104 370 77 369T20 365V358L73 342V23L10 5V0Q108
3 206 0V5L147 23Q145 91 145 159T146 296Q153 306 165 315T192 331T222 343T249 348Q277 348 292 334T314 300T322 255T324 211Q324 164 324 118T323 24L265 5V0Q359 3 454 0Z" />
<glyph unicode="o" glyph-name="o" horiz-adv-x="450" d="M420 185Q420 249 391 291T319 355T224 376T130 354T58 290T30 184Q31 119 60 76T132 11T226 -11Q276 -11 319 11T391 76T420 185ZM341 185Q341 128 325 89T283 29T229 7T173 24T130 82T113 182Q113 240
129 279T171 337T225 357Q255 357 280 338T323 280T341 185Z" />
<glyph unicode="p" glyph-name="p" horiz-adv-x="465" d="M255 375Q223 375 194 361T141 325V368L129 378Q123 373 108 371T75 368T41 367T15 365V358L66 343L65 264Q48 238 32 213T0 160H9Q23 177 37 193T66 226Q68 116 68 8T67 -211L4 -228V-233Q56 -233 106
-233T209 -234V-228L142 -211Q141 -150 142 -90T141 32Q165 15 192 3T250 -10Q310 -10 351 18T413 90T435 182T417 275T357 346T255 375ZM242 348Q278 348 303 324T340 262T352 181Q352 138 339 101T300 39T235 14Q205 14 185 27T141 58V290Q149 300 161 310T186
328T214 342T242 348Z" />
<glyph unicode="q" glyph-name="q" horiz-adv-x="465" d="M457 160Q443 188 426 213T392 264L391 343L442 358V365Q433 366 417 366T382 368T349 371T328 378L316 368V327Q289 350 259 363T193 377Q137 377 99 348T42 275T23 180T45 86T108 15T214 -12Q240 -11
268 1T316 31Q315 -30 315 -90T315 -211L248 -227V-233Q300 -231 350 -232T453 -233V-228L390 -211Q390 -101 390 7T391 226Q405 209 419 193T448 160H457ZM316 57Q296 42 269 27T215 12Q179 12 155 36T119 98T107 179Q107 222 119 259T156 321T219 346Q248 346
273 326T316 284V57Z" />
<glyph unicode="r" glyph-name="r" horiz-adv-x="332" d="M311 314Q311 350 289 365T237 378T179 356T139 305Q139 320 139 336T140 367L126 376Q97 370 69 368T12 365V358L65 342V23L2 5V0Q100 3 198 0V5L139 23Q138 60 138 96T139 169Q139 189 139 211Q139 234
142 256T154 297T181 331Q185 335 192 338T206 344T220 345T232 339Q239 332 234 318T229 295Q229 280 242 273T270 266T298 279T311 314Z" />
<glyph unicode="s" glyph-name="s" horiz-adv-x="308" d="M279 113Q279 150 264 171T227 204T178 222T130 235T92 255T77 292Q77 316 89 331T121 352T163 356T204 341T236 306T249 251H257Q254 286 257 323T269 395L264 397L233 348Q204 370 170 374T107 369T57
332T37 266Q37 229 52 208T89 174T138 155T187 140T224 118T239 78Q239 55 226 40T193 16T149 9T104 23T65 58T43 117H37Q38 93 38 73Q38 54 36 35T27 -2T10 -43L13 -46L63 18Q88 3 106 -4T153 -11Q210 -11 244 22T279 113Z" />
<glyph unicode="t" glyph-name="t" horiz-adv-x="268" d="M256 25V35Q243 26 228 19T198 11T170 15T147 40Q137 59 136 82T135 126Q135 178 135 229T135 333H239V364L136 362V457H113Q107 432 99 414T79 381T50 357T7 339V333H61Q61 279 61 227T60 121Q60 95 62
71T74 29T101 0T151 -11Q180 -11 206 -3T256 25Z" />
<glyph unicode="u" glyph-name="u" horiz-adv-x="452" d="M432 -1V6L380 22Q380 107 380 191T379 361Q346 359 313 359T247 362V357L306 339Q308 271 308 204T307 68Q299 58 287 49T261 33T231 21T204 16Q176 16 161 30T139 64T131 108T129 153Q129 206 129 257T130
362Q64 359 -1 362V357L56 339Q55 292 55 247T56 154Q56 116 61 85T82 33T125 0T196 -11Q228 -11 255 2T306 37Q306 27 306 17Q306 7 305 -3L319 -12Q348 -6 375 -5T432 -1Z" />
<glyph unicode="v" glyph-name="v" horiz-adv-x="351" d="M370 357V362Q336 360 301 360Q267 360 233 362V358L291 340Q268 276 243 213T191 87L101 339L160 357V362Q66 359 -27 362V358L24 339Q60 251 94 162T157 -18H181Q215 73 250 161T323 340L370 357Z" />
<glyph unicode="w" glyph-name="w" horiz-adv-x="565" d="M589 356V361Q554 359 520 359T450 362V356L500 338Q480 274 458 211T412 85Q388 154 365 222T321 361H293Q268 290 244 220T193 80L110 338L168 356V361Q121 361 75 361T-18 362V357L30 338Q63 248 97
160T160 -20H185Q212 47 234 115T282 252Q307 184 331 117T377 -19H404Q434 72 465 160T530 338L589 356Z" />
<glyph unicode="x" glyph-name="x" horiz-adv-x="406" d="M403 0V5L351 23L226 210L323 339L382 357V362Q344 362 308 361T234 362V357L288 339Q269 312 251 286T212 233L143 339L203 357V362H3V358L57 339Q86 298 112 257T166 174L53 23L0 5V0Q74 3 148 0V5L89
23L181 150L263 23L202 5V0Q302 3 403 0Z" />
<glyph unicode="y" glyph-name="y" horiz-adv-x="377" d="M381 362Q346 360 312 360Q278 360 243 362V357L299 339Q272 275 249 210T201 80L112 339L169 357V362Q122 358 76 359T-18 362V357L31 339Q63 251 95 164T160 -11Q157 -19 152 -36T138 -74T121 -117T101
-157T81 -188T63 -200Q50 -200 50 -190T48 -172Q43 -160 33 -156T12 -153T-7 -164T-15 -188Q-15 -210 2 -222T40 -234Q65 -234 83 -220T115 -186T138 -143T156 -100L331 339L380 357L381 362Z" />
<glyph unicode="z" glyph-name="z" horiz-adv-x="422" d="M369 143H363Q357 88 335 62T281 26T208 18T125 21L359 351L351 362Q278 362 206 362T61 364Q59 329 56 296T49 227H56Q63 278 81 302T126 335T190 343T269 341Q211 258 154 176T37 13L46 0Q124 0 202
-1T358 -3Q360 34 362 70T369 143Z" />
<glyph unicode="{" glyph-name="braceleft" horiz-adv-x="465" />
<glyph unicode="|" glyph-name="bar" horiz-adv-x="465" d="M242 -260V740H223V-260H242Z" />
<glyph unicode="}" glyph-name="braceright" horiz-adv-x="722" d="M703 291Q703 361 676 424T603 533T494 607T360 635Q289 635 227 608T118 534T44 425T17 292Q17 221 44 159T118 50T227 -24T360 -52Q430 -52 492 -25T602 49T676 158T703 291ZM475 115Q422 115
371 116T266 115V137H333Q333 213 333 288T334 439H266V460Q318 457 370 457T475 460V439H410Q408 363 408 288Q408 213 408 137H475V115Z" />
<glyph unicode="~" glyph-name="asciitilde" horiz-adv-x="355" d="M333 726Q318 736 314 734T305 724T291 710T258 702Q236 702 217 711T179 730T142 747T105 752T66 731T22 673L37 665Q55 686 72 693T105 698T137 688T170 670T204 654T241 646Q258 646 271 654T296
674T316 700T333 726Z" />
</font>
</defs>
</svg>
